; NON-PLATED HOLES START AT T1
; THROUGH (PLATED) HOLES START AT T100
M48
INCH
T1C0.086614
T100C0.030000
T101C0.038000
T102C0.035000
T103C0.015748
%
T1
X002796Y006497
X036109Y025702
T100
X027439Y008702
X003439Y024702
X023439Y021702
X027439Y011702
X010439Y008702
X010439Y011702
X030439Y024702
X008439Y021702
X006439Y024702
X004439Y008702
X026439Y021702
X004439Y011702
X024439Y024702
X031439Y008702
X009439Y024702
X031439Y011702
X007439Y008702
X029439Y021702
X003439Y021702
X007439Y011702
X027439Y024702
X025439Y008702
X010439Y024702
X025439Y011702
X030439Y021702
X006439Y021702
X028439Y008702
X004439Y024702
X028439Y011702
X024439Y021702
X011439Y008702
X022439Y024702
X011439Y011702
X009439Y021702
X007439Y024702
X005439Y008702
X027439Y021702
X005439Y011702
X025439Y024702
X023439Y008702
X010439Y021702
X023439Y011702
X008439Y008702
X008439Y011702
X004439Y021702
X028439Y024702
X026439Y008702
X011439Y024702
X022439Y021702
X026439Y011702
X007439Y021702
X029439Y008702
X005439Y024702
X003439Y008702
X025439Y021702
X029439Y011702
X003439Y011702
X023439Y024702
X030439Y008702
X008439Y024702
X030439Y011702
X006439Y008702
X028439Y021702
X006439Y011702
X026439Y024702
X024439Y008702
X011439Y021702
X024439Y011702
X009439Y008702
X005439Y021702
X009439Y011702
X029439Y024702
T101
X014439Y002702
X027439Y027702
X036439Y027702
X010439Y027702
X029439Y004702
X007439Y029702
X008439Y002702
X003439Y004702
X025439Y029702
X026439Y002702
X004439Y027702
X030439Y004702
X035439Y002702
X013439Y027702
X006439Y004702
X015439Y004702
X028439Y029702
X029439Y002702
X024439Y004702
X007439Y027702
X003439Y002702
X025439Y027702
X009439Y004702
X030439Y002702
X027439Y004702
X005439Y029702
X006439Y002702
X036439Y004702
X014439Y029702
X010439Y004702
X015439Y002702
X023439Y029702
X028439Y027702
X024439Y002702
X008439Y029702
X009439Y002702
X004439Y004702
X026439Y029702
X027439Y002702
X005439Y027702
X035439Y029702
X031439Y004702
X036439Y002702
X014439Y027702
X010439Y002702
X023439Y027702
X007439Y004702
X029439Y029702
X025439Y004702
X003439Y029702
X008439Y027702
X004439Y002702
X026439Y027702
X035439Y027702
X030439Y029702
X031439Y002702
X028439Y004702
X006439Y029702
X007439Y002702
X015439Y029702
X024439Y029702
X029439Y027702
X025439Y002702
X003439Y027702
X009439Y029702
X005439Y004702
X030439Y027702
X014439Y004702
X027439Y029702
X028439Y002702
X006439Y027702
X036439Y029702
X015439Y027702
X010439Y029702
X008439Y004702
X024439Y027702
X026439Y004702
X004439Y029702
X009439Y027702
X005439Y002702
X035439Y004702
X013439Y029702
T102
X026439Y015702
X032439Y012702
X030439Y012702
X029439Y015702
X027439Y015702
X025439Y015702
X031439Y012702
X028439Y015702
X002439Y020702
X004439Y020702
X006439Y020702
X006439Y012702
X003439Y020702
X005439Y020702
X007439Y020702
X009439Y020702
X032439Y015702
X030439Y015702
X009439Y012702
X007439Y012702
X005439Y012702
X002439Y017702
X004439Y017702
X006439Y017702
X008439Y020702
X031439Y015702
X008439Y012702
X003439Y017702
X005439Y017702
X007439Y017702
X009439Y017702
X008439Y017702
X011439Y012702
X006439Y015702
X012439Y012702
X010439Y012702
X009439Y015702
X007439Y015702
X005439Y015702
X008439Y015702
X011439Y015702
X022439Y020702
X024439Y020702
X026439Y020702
X012439Y015702
X010439Y015702
X026439Y012702
X021439Y020702
X023439Y020702
X025439Y020702
X027439Y020702
X029439Y012702
X027439Y012702
X025439Y012702
X022439Y017702
X024439Y017702
X026439Y017702
X028439Y020702
X028439Y012702
X021439Y017702
X023439Y017702
X025439Y017702
X027439Y017702
X028439Y017702
T103
X020621Y024670
X012437Y022882
X029020Y014119
X001719Y016694
X015459Y028705
X004178Y018371
X031684Y022449
X013449Y026343
X019707Y021571
X023878Y018512
X031712Y026128
X005346Y018702
X015297Y021651
X014246Y016854
X012392Y020490
X003537Y015850
X021033Y015595
X026152Y016858
X014582Y022882
X030806Y013514
X026879Y014902
X021534Y019903
X014367Y008520
X020780Y014301
X027454Y018949
X009338Y014023
X008480Y018459
X028419Y014976
X014437Y026413
X010515Y018836
X022096Y015049
X002904Y020047
X006429Y019283
X007424Y018761
X027932Y016400
X025377Y018465
X030513Y019863
X032447Y013585
X022528Y015930
X010465Y020721
X020827Y013588
X019474Y016824
X008782Y014579
X014344Y014897
X015138Y024710
X030424Y016944
T00
M30
