G04 MADE WITH FRITZING*
G04 WWW.FRITZING.ORG*
G04 DOUBLE SIDED*
G04 HOLES PLATED*
G04 CONTOUR ON CENTER OF CONTOUR VECTOR*
%ASAXBY*%
%FSLAX23Y23*%
%MOIN*%
%OFA0B0*%
%SFA1.0B1.0*%
%ADD10C,0.049370*%
%ADD11C,0.096614*%
%ADD12C,0.088000*%
%ADD13C,0.085000*%
%ADD14R,0.085000X0.085000*%
%ADD15R,0.001000X0.001000*%
%LNMASK0*%
G90*
G70*
G54D10*
X3051Y1986D03*
X1437Y852D03*
X1546Y2871D03*
X1345Y2634D03*
X1444Y2641D03*
X1239Y2049D03*
X934Y1402D03*
X878Y1458D03*
X2153Y1990D03*
X1971Y2157D03*
X2062Y2467D03*
X172Y1669D03*
X1425Y1685D03*
X3168Y2245D03*
X3171Y2613D03*
X2842Y1498D03*
X3245Y1359D03*
X3042Y1694D03*
X2793Y1640D03*
X2388Y1851D03*
X535Y1870D03*
X643Y1928D03*
X742Y1876D03*
X848Y1846D03*
X418Y1837D03*
X290Y2005D03*
X2538Y1847D03*
X2615Y1686D03*
X1947Y1682D03*
X2103Y1560D03*
X2688Y1490D03*
X2210Y1505D03*
X2902Y1412D03*
X3081Y1351D03*
X2083Y1359D03*
X1052Y1884D03*
X1047Y2072D03*
X354Y1585D03*
X1244Y2288D03*
X1458Y2288D03*
X1530Y2165D03*
X1514Y2471D03*
X2745Y1895D03*
X2078Y1430D03*
X1434Y1490D03*
X2253Y1593D03*
G54D11*
X280Y650D03*
X3611Y2570D03*
G54D12*
X2344Y2770D03*
X2444Y2770D03*
X2544Y2770D03*
X2644Y2770D03*
X2744Y2770D03*
X2844Y2770D03*
X2944Y2770D03*
X3044Y2770D03*
X2344Y2970D03*
X2444Y2970D03*
X2544Y2970D03*
X2644Y2970D03*
X2744Y2970D03*
X2844Y2970D03*
X2944Y2970D03*
X3044Y2970D03*
X344Y2770D03*
X444Y2770D03*
X544Y2770D03*
X644Y2770D03*
X744Y2770D03*
X844Y2770D03*
X944Y2770D03*
X1044Y2770D03*
X344Y2970D03*
X444Y2970D03*
X544Y2970D03*
X644Y2970D03*
X744Y2970D03*
X844Y2970D03*
X944Y2970D03*
X1044Y2970D03*
X3544Y2770D03*
X3644Y2770D03*
X1544Y470D03*
X1444Y470D03*
X3544Y470D03*
X3644Y470D03*
X1344Y2770D03*
X1444Y2770D03*
X1544Y2770D03*
G54D13*
X2844Y2070D03*
X2844Y1770D03*
X2744Y2070D03*
X2744Y1770D03*
X2644Y2070D03*
X2644Y1770D03*
X2544Y2070D03*
X2544Y1770D03*
X2444Y2070D03*
X2444Y1770D03*
X2344Y2070D03*
X2344Y1770D03*
X2244Y2070D03*
X2244Y1770D03*
X2144Y2070D03*
X2144Y1770D03*
X944Y2070D03*
X944Y1770D03*
X844Y2070D03*
X844Y1770D03*
X744Y2070D03*
X744Y1770D03*
X644Y2070D03*
X644Y1770D03*
X544Y2070D03*
X544Y1770D03*
X444Y2070D03*
X444Y1770D03*
X344Y2070D03*
X344Y1770D03*
X244Y2070D03*
X244Y1770D03*
G54D12*
X1344Y2970D03*
X1444Y2970D03*
X1544Y2970D03*
X3644Y2970D03*
X3544Y2970D03*
X1544Y270D03*
X1444Y270D03*
X3544Y270D03*
X3644Y270D03*
X1044Y470D03*
X944Y470D03*
X844Y470D03*
X744Y470D03*
X644Y470D03*
X544Y470D03*
X444Y470D03*
X344Y470D03*
X3144Y470D03*
X3044Y470D03*
X2944Y470D03*
X2844Y470D03*
X2744Y470D03*
X2644Y470D03*
X2544Y470D03*
X2444Y470D03*
G54D13*
X544Y1270D03*
X544Y1570D03*
X644Y1270D03*
X644Y1570D03*
X744Y1270D03*
X744Y1570D03*
X844Y1270D03*
X844Y1570D03*
X944Y1270D03*
X944Y1570D03*
X1044Y1270D03*
X1044Y1570D03*
X1144Y1270D03*
X1144Y1570D03*
X1244Y1270D03*
X1244Y1570D03*
X2544Y1270D03*
X2544Y1570D03*
X2644Y1270D03*
X2644Y1570D03*
X2744Y1270D03*
X2744Y1570D03*
X2844Y1270D03*
X2844Y1570D03*
X2944Y1270D03*
X2944Y1570D03*
X3044Y1270D03*
X3044Y1570D03*
X3144Y1270D03*
X3144Y1570D03*
X3244Y1270D03*
X3244Y1570D03*
G54D12*
X1044Y270D03*
X944Y270D03*
X844Y270D03*
X744Y270D03*
X644Y270D03*
X544Y270D03*
X444Y270D03*
X344Y270D03*
X3144Y270D03*
X3044Y270D03*
X2944Y270D03*
X2844Y270D03*
X2744Y270D03*
X2644Y270D03*
X2544Y270D03*
X2444Y270D03*
G54D14*
X2844Y2070D03*
X944Y2070D03*
X544Y1270D03*
X2544Y1270D03*
G54D15*
X339Y2510D02*
X348Y2510D01*
X439Y2510D02*
X448Y2510D01*
X539Y2510D02*
X548Y2510D01*
X639Y2510D02*
X648Y2510D01*
X739Y2510D02*
X748Y2510D01*
X839Y2510D02*
X848Y2510D01*
X939Y2510D02*
X948Y2510D01*
X1038Y2510D02*
X1048Y2510D01*
X1138Y2510D02*
X1148Y2510D01*
X2238Y2510D02*
X2248Y2510D01*
X2338Y2510D02*
X2348Y2510D01*
X2438Y2510D02*
X2448Y2510D01*
X2538Y2510D02*
X2548Y2510D01*
X2638Y2510D02*
X2648Y2510D01*
X2738Y2510D02*
X2748Y2510D01*
X2838Y2510D02*
X2848Y2510D01*
X2938Y2510D02*
X2948Y2510D01*
X3038Y2510D02*
X3048Y2510D01*
X334Y2509D02*
X352Y2509D01*
X434Y2509D02*
X452Y2509D01*
X534Y2509D02*
X552Y2509D01*
X634Y2509D02*
X652Y2509D01*
X734Y2509D02*
X752Y2509D01*
X834Y2509D02*
X852Y2509D01*
X934Y2509D02*
X952Y2509D01*
X1034Y2509D02*
X1052Y2509D01*
X1134Y2509D02*
X1152Y2509D01*
X2234Y2509D02*
X2252Y2509D01*
X2334Y2509D02*
X2352Y2509D01*
X2434Y2509D02*
X2452Y2509D01*
X2534Y2509D02*
X2552Y2509D01*
X2634Y2509D02*
X2652Y2509D01*
X2734Y2509D02*
X2752Y2509D01*
X2834Y2509D02*
X2852Y2509D01*
X2934Y2509D02*
X2952Y2509D01*
X3034Y2509D02*
X3052Y2509D01*
X331Y2508D02*
X355Y2508D01*
X431Y2508D02*
X455Y2508D01*
X531Y2508D02*
X555Y2508D01*
X631Y2508D02*
X655Y2508D01*
X731Y2508D02*
X755Y2508D01*
X831Y2508D02*
X855Y2508D01*
X931Y2508D02*
X955Y2508D01*
X1031Y2508D02*
X1055Y2508D01*
X1131Y2508D02*
X1155Y2508D01*
X2231Y2508D02*
X2255Y2508D01*
X2331Y2508D02*
X2355Y2508D01*
X2431Y2508D02*
X2455Y2508D01*
X2531Y2508D02*
X2555Y2508D01*
X2631Y2508D02*
X2655Y2508D01*
X2731Y2508D02*
X2755Y2508D01*
X2831Y2508D02*
X2855Y2508D01*
X2931Y2508D02*
X2955Y2508D01*
X3031Y2508D02*
X3055Y2508D01*
X329Y2507D02*
X358Y2507D01*
X429Y2507D02*
X458Y2507D01*
X529Y2507D02*
X558Y2507D01*
X629Y2507D02*
X658Y2507D01*
X729Y2507D02*
X758Y2507D01*
X829Y2507D02*
X858Y2507D01*
X929Y2507D02*
X958Y2507D01*
X1029Y2507D02*
X1058Y2507D01*
X1129Y2507D02*
X1158Y2507D01*
X2229Y2507D02*
X2257Y2507D01*
X2329Y2507D02*
X2357Y2507D01*
X2429Y2507D02*
X2457Y2507D01*
X2529Y2507D02*
X2557Y2507D01*
X2629Y2507D02*
X2657Y2507D01*
X2729Y2507D02*
X2757Y2507D01*
X2829Y2507D02*
X2857Y2507D01*
X2929Y2507D02*
X2957Y2507D01*
X3029Y2507D02*
X3057Y2507D01*
X327Y2506D02*
X360Y2506D01*
X427Y2506D02*
X460Y2506D01*
X527Y2506D02*
X560Y2506D01*
X627Y2506D02*
X660Y2506D01*
X727Y2506D02*
X760Y2506D01*
X827Y2506D02*
X859Y2506D01*
X927Y2506D02*
X959Y2506D01*
X1027Y2506D02*
X1059Y2506D01*
X1127Y2506D02*
X1159Y2506D01*
X2227Y2506D02*
X2259Y2506D01*
X2327Y2506D02*
X2359Y2506D01*
X2427Y2506D02*
X2459Y2506D01*
X2527Y2506D02*
X2559Y2506D01*
X2627Y2506D02*
X2659Y2506D01*
X2727Y2506D02*
X2759Y2506D01*
X2827Y2506D02*
X2859Y2506D01*
X2927Y2506D02*
X2959Y2506D01*
X3027Y2506D02*
X3059Y2506D01*
X325Y2505D02*
X361Y2505D01*
X425Y2505D02*
X461Y2505D01*
X525Y2505D02*
X561Y2505D01*
X625Y2505D02*
X661Y2505D01*
X725Y2505D02*
X761Y2505D01*
X825Y2505D02*
X861Y2505D01*
X925Y2505D02*
X961Y2505D01*
X1025Y2505D02*
X1061Y2505D01*
X1125Y2505D02*
X1161Y2505D01*
X2225Y2505D02*
X2261Y2505D01*
X2325Y2505D02*
X2361Y2505D01*
X2425Y2505D02*
X2461Y2505D01*
X2525Y2505D02*
X2561Y2505D01*
X2625Y2505D02*
X2661Y2505D01*
X2725Y2505D02*
X2761Y2505D01*
X2825Y2505D02*
X2861Y2505D01*
X2925Y2505D02*
X2961Y2505D01*
X3025Y2505D02*
X3061Y2505D01*
X324Y2504D02*
X363Y2504D01*
X424Y2504D02*
X463Y2504D01*
X524Y2504D02*
X563Y2504D01*
X624Y2504D02*
X663Y2504D01*
X724Y2504D02*
X763Y2504D01*
X824Y2504D02*
X863Y2504D01*
X924Y2504D02*
X963Y2504D01*
X1024Y2504D02*
X1063Y2504D01*
X1124Y2504D02*
X1163Y2504D01*
X2223Y2504D02*
X2263Y2504D01*
X2323Y2504D02*
X2363Y2504D01*
X2423Y2504D02*
X2463Y2504D01*
X2523Y2504D02*
X2563Y2504D01*
X2623Y2504D02*
X2663Y2504D01*
X2723Y2504D02*
X2763Y2504D01*
X2823Y2504D02*
X2863Y2504D01*
X2923Y2504D02*
X2963Y2504D01*
X3023Y2504D02*
X3062Y2504D01*
X322Y2503D02*
X364Y2503D01*
X422Y2503D02*
X464Y2503D01*
X522Y2503D02*
X564Y2503D01*
X622Y2503D02*
X664Y2503D01*
X722Y2503D02*
X764Y2503D01*
X822Y2503D02*
X864Y2503D01*
X922Y2503D02*
X964Y2503D01*
X1022Y2503D02*
X1064Y2503D01*
X1122Y2503D02*
X1164Y2503D01*
X2222Y2503D02*
X2264Y2503D01*
X2322Y2503D02*
X2364Y2503D01*
X2422Y2503D02*
X2464Y2503D01*
X2522Y2503D02*
X2564Y2503D01*
X2622Y2503D02*
X2664Y2503D01*
X2722Y2503D02*
X2764Y2503D01*
X2822Y2503D02*
X2864Y2503D01*
X2922Y2503D02*
X2964Y2503D01*
X3022Y2503D02*
X3064Y2503D01*
X321Y2502D02*
X366Y2502D01*
X421Y2502D02*
X466Y2502D01*
X521Y2502D02*
X566Y2502D01*
X621Y2502D02*
X666Y2502D01*
X721Y2502D02*
X766Y2502D01*
X821Y2502D02*
X866Y2502D01*
X921Y2502D02*
X966Y2502D01*
X1021Y2502D02*
X1066Y2502D01*
X1121Y2502D02*
X1166Y2502D01*
X2221Y2502D02*
X2265Y2502D01*
X2321Y2502D02*
X2365Y2502D01*
X2421Y2502D02*
X2465Y2502D01*
X2521Y2502D02*
X2565Y2502D01*
X2621Y2502D02*
X2665Y2502D01*
X2721Y2502D02*
X2765Y2502D01*
X2821Y2502D02*
X2865Y2502D01*
X2921Y2502D02*
X2965Y2502D01*
X3021Y2502D02*
X3065Y2502D01*
X320Y2501D02*
X367Y2501D01*
X420Y2501D02*
X467Y2501D01*
X520Y2501D02*
X567Y2501D01*
X620Y2501D02*
X667Y2501D01*
X720Y2501D02*
X767Y2501D01*
X820Y2501D02*
X867Y2501D01*
X920Y2501D02*
X967Y2501D01*
X1020Y2501D02*
X1067Y2501D01*
X1120Y2501D02*
X1167Y2501D01*
X2219Y2501D02*
X2267Y2501D01*
X2319Y2501D02*
X2367Y2501D01*
X2419Y2501D02*
X2467Y2501D01*
X2519Y2501D02*
X2567Y2501D01*
X2619Y2501D02*
X2667Y2501D01*
X2719Y2501D02*
X2767Y2501D01*
X2819Y2501D02*
X2867Y2501D01*
X2919Y2501D02*
X2967Y2501D01*
X3019Y2501D02*
X3067Y2501D01*
X319Y2500D02*
X368Y2500D01*
X418Y2500D02*
X468Y2500D01*
X518Y2500D02*
X568Y2500D01*
X618Y2500D02*
X668Y2500D01*
X718Y2500D02*
X768Y2500D01*
X818Y2500D02*
X868Y2500D01*
X918Y2500D02*
X968Y2500D01*
X1018Y2500D02*
X1068Y2500D01*
X1118Y2500D02*
X1168Y2500D01*
X2218Y2500D02*
X2268Y2500D01*
X2318Y2500D02*
X2368Y2500D01*
X2418Y2500D02*
X2468Y2500D01*
X2518Y2500D02*
X2568Y2500D01*
X2618Y2500D02*
X2668Y2500D01*
X2718Y2500D02*
X2768Y2500D01*
X2818Y2500D02*
X2868Y2500D01*
X2918Y2500D02*
X2968Y2500D01*
X3018Y2500D02*
X3068Y2500D01*
X317Y2499D02*
X369Y2499D01*
X417Y2499D02*
X469Y2499D01*
X517Y2499D02*
X569Y2499D01*
X617Y2499D02*
X669Y2499D01*
X717Y2499D02*
X769Y2499D01*
X817Y2499D02*
X869Y2499D01*
X917Y2499D02*
X969Y2499D01*
X1017Y2499D02*
X1069Y2499D01*
X1117Y2499D02*
X1169Y2499D01*
X2217Y2499D02*
X2269Y2499D01*
X2317Y2499D02*
X2369Y2499D01*
X2417Y2499D02*
X2469Y2499D01*
X2517Y2499D02*
X2569Y2499D01*
X2617Y2499D02*
X2669Y2499D01*
X2717Y2499D02*
X2769Y2499D01*
X2817Y2499D02*
X2869Y2499D01*
X2917Y2499D02*
X2969Y2499D01*
X3017Y2499D02*
X3069Y2499D01*
X316Y2498D02*
X370Y2498D01*
X416Y2498D02*
X470Y2498D01*
X516Y2498D02*
X570Y2498D01*
X616Y2498D02*
X670Y2498D01*
X716Y2498D02*
X770Y2498D01*
X816Y2498D02*
X870Y2498D01*
X916Y2498D02*
X970Y2498D01*
X1016Y2498D02*
X1070Y2498D01*
X1116Y2498D02*
X1170Y2498D01*
X2216Y2498D02*
X2270Y2498D01*
X2316Y2498D02*
X2370Y2498D01*
X2416Y2498D02*
X2470Y2498D01*
X2516Y2498D02*
X2570Y2498D01*
X2616Y2498D02*
X2670Y2498D01*
X2716Y2498D02*
X2770Y2498D01*
X2816Y2498D02*
X2870Y2498D01*
X2916Y2498D02*
X2970Y2498D01*
X3016Y2498D02*
X3070Y2498D01*
X315Y2497D02*
X371Y2497D01*
X415Y2497D02*
X471Y2497D01*
X515Y2497D02*
X571Y2497D01*
X615Y2497D02*
X671Y2497D01*
X715Y2497D02*
X771Y2497D01*
X815Y2497D02*
X871Y2497D01*
X915Y2497D02*
X971Y2497D01*
X1015Y2497D02*
X1071Y2497D01*
X1115Y2497D02*
X1171Y2497D01*
X2215Y2497D02*
X2271Y2497D01*
X2315Y2497D02*
X2371Y2497D01*
X2415Y2497D02*
X2471Y2497D01*
X2515Y2497D02*
X2571Y2497D01*
X2615Y2497D02*
X2671Y2497D01*
X2715Y2497D02*
X2771Y2497D01*
X2815Y2497D02*
X2871Y2497D01*
X2915Y2497D02*
X2971Y2497D01*
X3015Y2497D02*
X3071Y2497D01*
X314Y2496D02*
X372Y2496D01*
X414Y2496D02*
X472Y2496D01*
X514Y2496D02*
X572Y2496D01*
X614Y2496D02*
X672Y2496D01*
X714Y2496D02*
X772Y2496D01*
X814Y2496D02*
X872Y2496D01*
X914Y2496D02*
X972Y2496D01*
X1014Y2496D02*
X1072Y2496D01*
X1114Y2496D02*
X1172Y2496D01*
X2214Y2496D02*
X2272Y2496D01*
X2314Y2496D02*
X2372Y2496D01*
X2414Y2496D02*
X2472Y2496D01*
X2514Y2496D02*
X2572Y2496D01*
X2614Y2496D02*
X2672Y2496D01*
X2714Y2496D02*
X2772Y2496D01*
X2814Y2496D02*
X2872Y2496D01*
X2914Y2496D02*
X2972Y2496D01*
X3014Y2496D02*
X3072Y2496D01*
X314Y2495D02*
X373Y2495D01*
X414Y2495D02*
X473Y2495D01*
X514Y2495D02*
X573Y2495D01*
X614Y2495D02*
X673Y2495D01*
X714Y2495D02*
X773Y2495D01*
X814Y2495D02*
X873Y2495D01*
X913Y2495D02*
X973Y2495D01*
X1013Y2495D02*
X1073Y2495D01*
X1113Y2495D02*
X1173Y2495D01*
X2213Y2495D02*
X2273Y2495D01*
X2313Y2495D02*
X2373Y2495D01*
X2413Y2495D02*
X2473Y2495D01*
X2513Y2495D02*
X2573Y2495D01*
X2613Y2495D02*
X2673Y2495D01*
X2713Y2495D02*
X2773Y2495D01*
X2813Y2495D02*
X2873Y2495D01*
X2913Y2495D02*
X2973Y2495D01*
X3013Y2495D02*
X3073Y2495D01*
X313Y2494D02*
X374Y2494D01*
X413Y2494D02*
X474Y2494D01*
X513Y2494D02*
X574Y2494D01*
X613Y2494D02*
X674Y2494D01*
X713Y2494D02*
X774Y2494D01*
X813Y2494D02*
X874Y2494D01*
X913Y2494D02*
X974Y2494D01*
X1013Y2494D02*
X1074Y2494D01*
X1113Y2494D02*
X1174Y2494D01*
X2213Y2494D02*
X2274Y2494D01*
X2312Y2494D02*
X2374Y2494D01*
X2412Y2494D02*
X2474Y2494D01*
X2512Y2494D02*
X2574Y2494D01*
X2612Y2494D02*
X2673Y2494D01*
X2712Y2494D02*
X2773Y2494D01*
X2812Y2494D02*
X2873Y2494D01*
X2912Y2494D02*
X2973Y2494D01*
X3012Y2494D02*
X3073Y2494D01*
X312Y2493D02*
X375Y2493D01*
X412Y2493D02*
X475Y2493D01*
X512Y2493D02*
X575Y2493D01*
X612Y2493D02*
X675Y2493D01*
X712Y2493D02*
X775Y2493D01*
X812Y2493D02*
X875Y2493D01*
X912Y2493D02*
X975Y2493D01*
X1012Y2493D02*
X1075Y2493D01*
X1112Y2493D02*
X1175Y2493D01*
X2212Y2493D02*
X2274Y2493D01*
X2312Y2493D02*
X2374Y2493D01*
X2412Y2493D02*
X2474Y2493D01*
X2512Y2493D02*
X2574Y2493D01*
X2612Y2493D02*
X2674Y2493D01*
X2712Y2493D02*
X2774Y2493D01*
X2812Y2493D02*
X2874Y2493D01*
X2912Y2493D02*
X2974Y2493D01*
X3012Y2493D02*
X3074Y2493D01*
X311Y2492D02*
X375Y2492D01*
X411Y2492D02*
X475Y2492D01*
X511Y2492D02*
X575Y2492D01*
X611Y2492D02*
X675Y2492D01*
X711Y2492D02*
X775Y2492D01*
X811Y2492D02*
X875Y2492D01*
X911Y2492D02*
X975Y2492D01*
X1011Y2492D02*
X1075Y2492D01*
X1111Y2492D02*
X1175Y2492D01*
X2211Y2492D02*
X2275Y2492D01*
X2311Y2492D02*
X2375Y2492D01*
X2411Y2492D02*
X2475Y2492D01*
X2511Y2492D02*
X2575Y2492D01*
X2611Y2492D02*
X2675Y2492D01*
X2711Y2492D02*
X2775Y2492D01*
X2811Y2492D02*
X2875Y2492D01*
X2911Y2492D02*
X2975Y2492D01*
X3011Y2492D02*
X3075Y2492D01*
X311Y2491D02*
X376Y2491D01*
X411Y2491D02*
X476Y2491D01*
X511Y2491D02*
X576Y2491D01*
X611Y2491D02*
X676Y2491D01*
X711Y2491D02*
X776Y2491D01*
X811Y2491D02*
X876Y2491D01*
X911Y2491D02*
X976Y2491D01*
X1010Y2491D02*
X1076Y2491D01*
X1110Y2491D02*
X1176Y2491D01*
X2210Y2491D02*
X2276Y2491D01*
X2310Y2491D02*
X2376Y2491D01*
X2410Y2491D02*
X2476Y2491D01*
X2510Y2491D02*
X2576Y2491D01*
X2610Y2491D02*
X2676Y2491D01*
X2710Y2491D02*
X2776Y2491D01*
X2810Y2491D02*
X2876Y2491D01*
X2910Y2491D02*
X2976Y2491D01*
X3010Y2491D02*
X3076Y2491D01*
X310Y2490D02*
X377Y2490D01*
X410Y2490D02*
X477Y2490D01*
X510Y2490D02*
X577Y2490D01*
X610Y2490D02*
X677Y2490D01*
X710Y2490D02*
X777Y2490D01*
X810Y2490D02*
X877Y2490D01*
X910Y2490D02*
X977Y2490D01*
X1010Y2490D02*
X1077Y2490D01*
X1110Y2490D02*
X1177Y2490D01*
X2210Y2490D02*
X2276Y2490D01*
X2310Y2490D02*
X2376Y2490D01*
X2410Y2490D02*
X2476Y2490D01*
X2510Y2490D02*
X2576Y2490D01*
X2610Y2490D02*
X2676Y2490D01*
X2710Y2490D02*
X2776Y2490D01*
X2810Y2490D02*
X2876Y2490D01*
X2910Y2490D02*
X2976Y2490D01*
X3010Y2490D02*
X3076Y2490D01*
X309Y2489D02*
X377Y2489D01*
X409Y2489D02*
X477Y2489D01*
X509Y2489D02*
X577Y2489D01*
X609Y2489D02*
X677Y2489D01*
X709Y2489D02*
X777Y2489D01*
X809Y2489D02*
X877Y2489D01*
X909Y2489D02*
X977Y2489D01*
X1009Y2489D02*
X1077Y2489D01*
X1109Y2489D02*
X1177Y2489D01*
X2209Y2489D02*
X2277Y2489D01*
X2309Y2489D02*
X2377Y2489D01*
X2409Y2489D02*
X2477Y2489D01*
X2509Y2489D02*
X2577Y2489D01*
X2609Y2489D02*
X2677Y2489D01*
X2709Y2489D02*
X2777Y2489D01*
X2809Y2489D02*
X2877Y2489D01*
X2909Y2489D02*
X2977Y2489D01*
X3009Y2489D02*
X3077Y2489D01*
X309Y2488D02*
X378Y2488D01*
X409Y2488D02*
X478Y2488D01*
X509Y2488D02*
X578Y2488D01*
X609Y2488D02*
X678Y2488D01*
X709Y2488D02*
X778Y2488D01*
X809Y2488D02*
X878Y2488D01*
X909Y2488D02*
X978Y2488D01*
X1009Y2488D02*
X1078Y2488D01*
X1109Y2488D02*
X1178Y2488D01*
X2208Y2488D02*
X2278Y2488D01*
X2308Y2488D02*
X2378Y2488D01*
X2408Y2488D02*
X2478Y2488D01*
X2508Y2488D02*
X2578Y2488D01*
X2608Y2488D02*
X2678Y2488D01*
X2708Y2488D02*
X2778Y2488D01*
X2808Y2488D02*
X2878Y2488D01*
X2908Y2488D02*
X2978Y2488D01*
X3008Y2488D02*
X3077Y2488D01*
X308Y2487D02*
X378Y2487D01*
X408Y2487D02*
X478Y2487D01*
X508Y2487D02*
X578Y2487D01*
X608Y2487D02*
X678Y2487D01*
X708Y2487D02*
X778Y2487D01*
X808Y2487D02*
X878Y2487D01*
X908Y2487D02*
X978Y2487D01*
X1008Y2487D02*
X1078Y2487D01*
X1108Y2487D02*
X1178Y2487D01*
X2208Y2487D02*
X2278Y2487D01*
X2308Y2487D02*
X2378Y2487D01*
X2408Y2487D02*
X2478Y2487D01*
X2508Y2487D02*
X2578Y2487D01*
X2608Y2487D02*
X2678Y2487D01*
X2708Y2487D02*
X2778Y2487D01*
X2808Y2487D02*
X2878Y2487D01*
X2908Y2487D02*
X2978Y2487D01*
X3008Y2487D02*
X3078Y2487D01*
X308Y2486D02*
X379Y2486D01*
X408Y2486D02*
X479Y2486D01*
X508Y2486D02*
X579Y2486D01*
X608Y2486D02*
X679Y2486D01*
X708Y2486D02*
X779Y2486D01*
X808Y2486D02*
X879Y2486D01*
X908Y2486D02*
X979Y2486D01*
X1008Y2486D02*
X1079Y2486D01*
X1108Y2486D02*
X1179Y2486D01*
X2207Y2486D02*
X2279Y2486D01*
X2307Y2486D02*
X2379Y2486D01*
X2407Y2486D02*
X2479Y2486D01*
X2507Y2486D02*
X2579Y2486D01*
X2607Y2486D02*
X2679Y2486D01*
X2707Y2486D02*
X2779Y2486D01*
X2807Y2486D02*
X2879Y2486D01*
X2907Y2486D02*
X2979Y2486D01*
X3007Y2486D02*
X3079Y2486D01*
X307Y2485D02*
X379Y2485D01*
X407Y2485D02*
X479Y2485D01*
X507Y2485D02*
X579Y2485D01*
X607Y2485D02*
X679Y2485D01*
X707Y2485D02*
X779Y2485D01*
X807Y2485D02*
X879Y2485D01*
X907Y2485D02*
X979Y2485D01*
X1007Y2485D02*
X1079Y2485D01*
X1107Y2485D02*
X1179Y2485D01*
X2207Y2485D02*
X2279Y2485D01*
X2307Y2485D02*
X2379Y2485D01*
X2407Y2485D02*
X2479Y2485D01*
X2507Y2485D02*
X2579Y2485D01*
X2607Y2485D02*
X2679Y2485D01*
X2707Y2485D02*
X2779Y2485D01*
X2807Y2485D02*
X2879Y2485D01*
X2907Y2485D02*
X2979Y2485D01*
X3007Y2485D02*
X3079Y2485D01*
X307Y2484D02*
X380Y2484D01*
X407Y2484D02*
X480Y2484D01*
X507Y2484D02*
X580Y2484D01*
X607Y2484D02*
X680Y2484D01*
X707Y2484D02*
X780Y2484D01*
X807Y2484D02*
X880Y2484D01*
X907Y2484D02*
X980Y2484D01*
X1007Y2484D02*
X1080Y2484D01*
X1107Y2484D02*
X1180Y2484D01*
X2206Y2484D02*
X2280Y2484D01*
X2306Y2484D02*
X2380Y2484D01*
X2406Y2484D02*
X2480Y2484D01*
X2506Y2484D02*
X2580Y2484D01*
X2606Y2484D02*
X2680Y2484D01*
X2706Y2484D02*
X2780Y2484D01*
X2806Y2484D02*
X2879Y2484D01*
X2906Y2484D02*
X2979Y2484D01*
X3006Y2484D02*
X3079Y2484D01*
X306Y2483D02*
X380Y2483D01*
X406Y2483D02*
X480Y2483D01*
X506Y2483D02*
X580Y2483D01*
X606Y2483D02*
X680Y2483D01*
X706Y2483D02*
X780Y2483D01*
X806Y2483D02*
X880Y2483D01*
X906Y2483D02*
X980Y2483D01*
X1006Y2483D02*
X1080Y2483D01*
X1106Y2483D02*
X1180Y2483D01*
X2206Y2483D02*
X2280Y2483D01*
X2306Y2483D02*
X2380Y2483D01*
X2406Y2483D02*
X2480Y2483D01*
X2506Y2483D02*
X2580Y2483D01*
X2606Y2483D02*
X2680Y2483D01*
X2706Y2483D02*
X2780Y2483D01*
X2806Y2483D02*
X2880Y2483D01*
X2906Y2483D02*
X2980Y2483D01*
X3006Y2483D02*
X3080Y2483D01*
X306Y2482D02*
X381Y2482D01*
X406Y2482D02*
X481Y2482D01*
X506Y2482D02*
X581Y2482D01*
X606Y2482D02*
X681Y2482D01*
X706Y2482D02*
X781Y2482D01*
X806Y2482D02*
X881Y2482D01*
X906Y2482D02*
X981Y2482D01*
X1006Y2482D02*
X1081Y2482D01*
X1106Y2482D02*
X1181Y2482D01*
X2206Y2482D02*
X2280Y2482D01*
X2306Y2482D02*
X2380Y2482D01*
X2406Y2482D02*
X2480Y2482D01*
X2506Y2482D02*
X2580Y2482D01*
X2606Y2482D02*
X2680Y2482D01*
X2706Y2482D02*
X2780Y2482D01*
X2806Y2482D02*
X2880Y2482D01*
X2906Y2482D02*
X2980Y2482D01*
X3006Y2482D02*
X3080Y2482D01*
X306Y2481D02*
X381Y2481D01*
X406Y2481D02*
X481Y2481D01*
X506Y2481D02*
X581Y2481D01*
X606Y2481D02*
X681Y2481D01*
X706Y2481D02*
X781Y2481D01*
X806Y2481D02*
X881Y2481D01*
X906Y2481D02*
X981Y2481D01*
X1006Y2481D02*
X1081Y2481D01*
X1105Y2481D02*
X1181Y2481D01*
X2205Y2481D02*
X2281Y2481D01*
X2305Y2481D02*
X2381Y2481D01*
X2405Y2481D02*
X2481Y2481D01*
X2505Y2481D02*
X2581Y2481D01*
X2605Y2481D02*
X2681Y2481D01*
X2705Y2481D02*
X2781Y2481D01*
X2805Y2481D02*
X2881Y2481D01*
X2905Y2481D02*
X2981Y2481D01*
X3005Y2481D02*
X3081Y2481D01*
X305Y2480D02*
X381Y2480D01*
X405Y2480D02*
X481Y2480D01*
X505Y2480D02*
X581Y2480D01*
X605Y2480D02*
X681Y2480D01*
X705Y2480D02*
X781Y2480D01*
X805Y2480D02*
X881Y2480D01*
X905Y2480D02*
X981Y2480D01*
X1005Y2480D02*
X1081Y2480D01*
X1105Y2480D02*
X1181Y2480D01*
X2205Y2480D02*
X2281Y2480D01*
X2305Y2480D02*
X2381Y2480D01*
X2405Y2480D02*
X2481Y2480D01*
X2505Y2480D02*
X2581Y2480D01*
X2605Y2480D02*
X2681Y2480D01*
X2705Y2480D02*
X2781Y2480D01*
X2805Y2480D02*
X2881Y2480D01*
X2905Y2480D02*
X2981Y2480D01*
X3005Y2480D02*
X3081Y2480D01*
X305Y2479D02*
X382Y2479D01*
X405Y2479D02*
X482Y2479D01*
X505Y2479D02*
X582Y2479D01*
X605Y2479D02*
X682Y2479D01*
X705Y2479D02*
X782Y2479D01*
X805Y2479D02*
X882Y2479D01*
X905Y2479D02*
X982Y2479D01*
X1005Y2479D02*
X1082Y2479D01*
X1105Y2479D02*
X1182Y2479D01*
X2205Y2479D02*
X2281Y2479D01*
X2305Y2479D02*
X2381Y2479D01*
X2405Y2479D02*
X2481Y2479D01*
X2505Y2479D02*
X2581Y2479D01*
X2605Y2479D02*
X2681Y2479D01*
X2705Y2479D02*
X2781Y2479D01*
X2805Y2479D02*
X2881Y2479D01*
X2905Y2479D02*
X2981Y2479D01*
X3005Y2479D02*
X3081Y2479D01*
X305Y2478D02*
X382Y2478D01*
X405Y2478D02*
X482Y2478D01*
X505Y2478D02*
X582Y2478D01*
X605Y2478D02*
X682Y2478D01*
X705Y2478D02*
X782Y2478D01*
X805Y2478D02*
X882Y2478D01*
X905Y2478D02*
X982Y2478D01*
X1005Y2478D02*
X1082Y2478D01*
X1105Y2478D02*
X1182Y2478D01*
X2204Y2478D02*
X2282Y2478D01*
X2304Y2478D02*
X2382Y2478D01*
X2404Y2478D02*
X2482Y2478D01*
X2504Y2478D02*
X2582Y2478D01*
X2604Y2478D02*
X2682Y2478D01*
X2704Y2478D02*
X2782Y2478D01*
X2804Y2478D02*
X2882Y2478D01*
X2904Y2478D02*
X2981Y2478D01*
X3004Y2478D02*
X3081Y2478D01*
X305Y2477D02*
X382Y2477D01*
X405Y2477D02*
X482Y2477D01*
X505Y2477D02*
X582Y2477D01*
X605Y2477D02*
X682Y2477D01*
X705Y2477D02*
X782Y2477D01*
X804Y2477D02*
X882Y2477D01*
X904Y2477D02*
X982Y2477D01*
X1004Y2477D02*
X1082Y2477D01*
X1104Y2477D02*
X1182Y2477D01*
X2204Y2477D02*
X2282Y2477D01*
X2304Y2477D02*
X2382Y2477D01*
X2404Y2477D02*
X2482Y2477D01*
X2504Y2477D02*
X2582Y2477D01*
X2604Y2477D02*
X2682Y2477D01*
X2704Y2477D02*
X2782Y2477D01*
X2804Y2477D02*
X2882Y2477D01*
X2904Y2477D02*
X2982Y2477D01*
X3004Y2477D02*
X3082Y2477D01*
X304Y2476D02*
X382Y2476D01*
X404Y2476D02*
X482Y2476D01*
X504Y2476D02*
X582Y2476D01*
X604Y2476D02*
X682Y2476D01*
X704Y2476D02*
X782Y2476D01*
X804Y2476D02*
X882Y2476D01*
X904Y2476D02*
X982Y2476D01*
X1004Y2476D02*
X1082Y2476D01*
X1104Y2476D02*
X1182Y2476D01*
X2204Y2476D02*
X2282Y2476D01*
X2304Y2476D02*
X2382Y2476D01*
X2404Y2476D02*
X2482Y2476D01*
X2504Y2476D02*
X2582Y2476D01*
X2604Y2476D02*
X2682Y2476D01*
X2704Y2476D02*
X2782Y2476D01*
X2804Y2476D02*
X2882Y2476D01*
X2904Y2476D02*
X2982Y2476D01*
X3004Y2476D02*
X3082Y2476D01*
X304Y2475D02*
X382Y2475D01*
X404Y2475D02*
X482Y2475D01*
X504Y2475D02*
X582Y2475D01*
X604Y2475D02*
X682Y2475D01*
X704Y2475D02*
X782Y2475D01*
X804Y2475D02*
X882Y2475D01*
X904Y2475D02*
X982Y2475D01*
X1004Y2475D02*
X1082Y2475D01*
X1104Y2475D02*
X1182Y2475D01*
X2204Y2475D02*
X2282Y2475D01*
X2304Y2475D02*
X2382Y2475D01*
X2404Y2475D02*
X2482Y2475D01*
X2504Y2475D02*
X2582Y2475D01*
X2604Y2475D02*
X2682Y2475D01*
X2704Y2475D02*
X2782Y2475D01*
X2804Y2475D02*
X2882Y2475D01*
X2904Y2475D02*
X2982Y2475D01*
X3004Y2475D02*
X3082Y2475D01*
X304Y2474D02*
X383Y2474D01*
X404Y2474D02*
X483Y2474D01*
X504Y2474D02*
X583Y2474D01*
X604Y2474D02*
X683Y2474D01*
X704Y2474D02*
X783Y2474D01*
X804Y2474D02*
X883Y2474D01*
X904Y2474D02*
X983Y2474D01*
X1004Y2474D02*
X1083Y2474D01*
X1104Y2474D02*
X1182Y2474D01*
X2204Y2474D02*
X2282Y2474D01*
X2304Y2474D02*
X2382Y2474D01*
X2404Y2474D02*
X2482Y2474D01*
X2504Y2474D02*
X2582Y2474D01*
X2604Y2474D02*
X2682Y2474D01*
X2704Y2474D02*
X2782Y2474D01*
X2804Y2474D02*
X2882Y2474D01*
X2904Y2474D02*
X2982Y2474D01*
X3004Y2474D02*
X3082Y2474D01*
X304Y2473D02*
X383Y2473D01*
X404Y2473D02*
X483Y2473D01*
X504Y2473D02*
X583Y2473D01*
X604Y2473D02*
X683Y2473D01*
X704Y2473D02*
X783Y2473D01*
X804Y2473D02*
X883Y2473D01*
X904Y2473D02*
X983Y2473D01*
X1004Y2473D02*
X1083Y2473D01*
X1104Y2473D02*
X1183Y2473D01*
X2204Y2473D02*
X2282Y2473D01*
X2304Y2473D02*
X2382Y2473D01*
X2404Y2473D02*
X2482Y2473D01*
X2504Y2473D02*
X2582Y2473D01*
X2604Y2473D02*
X2682Y2473D01*
X2704Y2473D02*
X2782Y2473D01*
X2804Y2473D02*
X2882Y2473D01*
X2904Y2473D02*
X2982Y2473D01*
X3004Y2473D02*
X3082Y2473D01*
X304Y2472D02*
X383Y2472D01*
X404Y2472D02*
X483Y2472D01*
X504Y2472D02*
X583Y2472D01*
X604Y2472D02*
X683Y2472D01*
X704Y2472D02*
X783Y2472D01*
X804Y2472D02*
X883Y2472D01*
X904Y2472D02*
X983Y2472D01*
X1004Y2472D02*
X1083Y2472D01*
X1104Y2472D02*
X1183Y2472D01*
X2204Y2472D02*
X2282Y2472D01*
X2304Y2472D02*
X2382Y2472D01*
X2404Y2472D02*
X2482Y2472D01*
X2504Y2472D02*
X2582Y2472D01*
X2604Y2472D02*
X2682Y2472D01*
X2704Y2472D02*
X2782Y2472D01*
X2804Y2472D02*
X2882Y2472D01*
X2904Y2472D02*
X2982Y2472D01*
X3003Y2472D02*
X3082Y2472D01*
X304Y2471D02*
X383Y2471D01*
X404Y2471D02*
X483Y2471D01*
X504Y2471D02*
X583Y2471D01*
X604Y2471D02*
X683Y2471D01*
X704Y2471D02*
X783Y2471D01*
X804Y2471D02*
X883Y2471D01*
X904Y2471D02*
X983Y2471D01*
X1004Y2471D02*
X1083Y2471D01*
X1104Y2471D02*
X1183Y2471D01*
X2204Y2471D02*
X2283Y2471D01*
X2304Y2471D02*
X2382Y2471D01*
X2404Y2471D02*
X2482Y2471D01*
X2504Y2471D02*
X2582Y2471D01*
X2603Y2471D02*
X2682Y2471D01*
X2703Y2471D02*
X2782Y2471D01*
X2803Y2471D02*
X2882Y2471D01*
X2903Y2471D02*
X2982Y2471D01*
X3003Y2471D02*
X3082Y2471D01*
X304Y2470D02*
X383Y2470D01*
X404Y2470D02*
X483Y2470D01*
X504Y2470D02*
X583Y2470D01*
X604Y2470D02*
X683Y2470D01*
X704Y2470D02*
X783Y2470D01*
X804Y2470D02*
X883Y2470D01*
X904Y2470D02*
X983Y2470D01*
X1004Y2470D02*
X1083Y2470D01*
X1104Y2470D02*
X1183Y2470D01*
X2204Y2470D02*
X2283Y2470D01*
X2304Y2470D02*
X2382Y2470D01*
X2404Y2470D02*
X2482Y2470D01*
X2504Y2470D02*
X2582Y2470D01*
X2603Y2470D02*
X2682Y2470D01*
X2703Y2470D02*
X2782Y2470D01*
X2803Y2470D02*
X2882Y2470D01*
X2903Y2470D02*
X2982Y2470D01*
X3003Y2470D02*
X3082Y2470D01*
X304Y2469D02*
X383Y2469D01*
X404Y2469D02*
X483Y2469D01*
X504Y2469D02*
X583Y2469D01*
X604Y2469D02*
X683Y2469D01*
X704Y2469D02*
X783Y2469D01*
X804Y2469D02*
X883Y2469D01*
X904Y2469D02*
X983Y2469D01*
X1004Y2469D02*
X1083Y2469D01*
X1104Y2469D02*
X1183Y2469D01*
X2204Y2469D02*
X2282Y2469D01*
X2304Y2469D02*
X2382Y2469D01*
X2404Y2469D02*
X2482Y2469D01*
X2504Y2469D02*
X2582Y2469D01*
X2604Y2469D02*
X2682Y2469D01*
X2704Y2469D02*
X2782Y2469D01*
X2804Y2469D02*
X2882Y2469D01*
X2904Y2469D02*
X2982Y2469D01*
X3003Y2469D02*
X3082Y2469D01*
X304Y2468D02*
X383Y2468D01*
X404Y2468D02*
X483Y2468D01*
X504Y2468D02*
X583Y2468D01*
X604Y2468D02*
X683Y2468D01*
X704Y2468D02*
X783Y2468D01*
X804Y2468D02*
X883Y2468D01*
X904Y2468D02*
X983Y2468D01*
X1004Y2468D02*
X1083Y2468D01*
X1104Y2468D02*
X1183Y2468D01*
X2204Y2468D02*
X2282Y2468D01*
X2304Y2468D02*
X2382Y2468D01*
X2404Y2468D02*
X2482Y2468D01*
X2504Y2468D02*
X2582Y2468D01*
X2604Y2468D02*
X2682Y2468D01*
X2704Y2468D02*
X2782Y2468D01*
X2804Y2468D02*
X2882Y2468D01*
X2904Y2468D02*
X2982Y2468D01*
X3004Y2468D02*
X3082Y2468D01*
X304Y2467D02*
X383Y2467D01*
X404Y2467D02*
X483Y2467D01*
X504Y2467D02*
X583Y2467D01*
X604Y2467D02*
X683Y2467D01*
X704Y2467D02*
X783Y2467D01*
X804Y2467D02*
X883Y2467D01*
X904Y2467D02*
X983Y2467D01*
X1004Y2467D02*
X1083Y2467D01*
X1104Y2467D02*
X1182Y2467D01*
X2204Y2467D02*
X2282Y2467D01*
X2304Y2467D02*
X2382Y2467D01*
X2404Y2467D02*
X2482Y2467D01*
X2504Y2467D02*
X2582Y2467D01*
X2604Y2467D02*
X2682Y2467D01*
X2704Y2467D02*
X2782Y2467D01*
X2804Y2467D02*
X2882Y2467D01*
X2904Y2467D02*
X2982Y2467D01*
X3004Y2467D02*
X3082Y2467D01*
X304Y2466D02*
X382Y2466D01*
X404Y2466D02*
X482Y2466D01*
X504Y2466D02*
X582Y2466D01*
X604Y2466D02*
X682Y2466D01*
X704Y2466D02*
X782Y2466D01*
X804Y2466D02*
X882Y2466D01*
X904Y2466D02*
X982Y2466D01*
X1004Y2466D02*
X1082Y2466D01*
X1104Y2466D02*
X1182Y2466D01*
X2204Y2466D02*
X2282Y2466D01*
X2304Y2466D02*
X2382Y2466D01*
X2404Y2466D02*
X2482Y2466D01*
X2504Y2466D02*
X2582Y2466D01*
X2604Y2466D02*
X2682Y2466D01*
X2704Y2466D02*
X2782Y2466D01*
X2804Y2466D02*
X2882Y2466D01*
X2904Y2466D02*
X2982Y2466D01*
X3004Y2466D02*
X3082Y2466D01*
X304Y2465D02*
X382Y2465D01*
X404Y2465D02*
X482Y2465D01*
X504Y2465D02*
X582Y2465D01*
X604Y2465D02*
X682Y2465D01*
X704Y2465D02*
X782Y2465D01*
X804Y2465D02*
X882Y2465D01*
X904Y2465D02*
X982Y2465D01*
X1004Y2465D02*
X1082Y2465D01*
X1104Y2465D02*
X1182Y2465D01*
X2204Y2465D02*
X2282Y2465D01*
X2304Y2465D02*
X2382Y2465D01*
X2404Y2465D02*
X2482Y2465D01*
X2504Y2465D02*
X2582Y2465D01*
X2604Y2465D02*
X2682Y2465D01*
X2704Y2465D02*
X2782Y2465D01*
X2804Y2465D02*
X2882Y2465D01*
X2904Y2465D02*
X2982Y2465D01*
X3004Y2465D02*
X3082Y2465D01*
X305Y2464D02*
X382Y2464D01*
X405Y2464D02*
X482Y2464D01*
X505Y2464D02*
X582Y2464D01*
X605Y2464D02*
X682Y2464D01*
X705Y2464D02*
X782Y2464D01*
X804Y2464D02*
X882Y2464D01*
X904Y2464D02*
X982Y2464D01*
X1004Y2464D02*
X1082Y2464D01*
X1104Y2464D02*
X1182Y2464D01*
X2204Y2464D02*
X2282Y2464D01*
X2304Y2464D02*
X2382Y2464D01*
X2404Y2464D02*
X2482Y2464D01*
X2504Y2464D02*
X2582Y2464D01*
X2604Y2464D02*
X2682Y2464D01*
X2704Y2464D02*
X2782Y2464D01*
X2804Y2464D02*
X2882Y2464D01*
X2904Y2464D02*
X2982Y2464D01*
X3004Y2464D02*
X3082Y2464D01*
X305Y2463D02*
X382Y2463D01*
X405Y2463D02*
X482Y2463D01*
X505Y2463D02*
X582Y2463D01*
X605Y2463D02*
X682Y2463D01*
X705Y2463D02*
X782Y2463D01*
X805Y2463D02*
X882Y2463D01*
X905Y2463D02*
X982Y2463D01*
X1005Y2463D02*
X1082Y2463D01*
X1105Y2463D02*
X1182Y2463D01*
X2204Y2463D02*
X2282Y2463D01*
X2304Y2463D02*
X2382Y2463D01*
X2404Y2463D02*
X2482Y2463D01*
X2504Y2463D02*
X2582Y2463D01*
X2604Y2463D02*
X2682Y2463D01*
X2704Y2463D02*
X2782Y2463D01*
X2804Y2463D02*
X2882Y2463D01*
X2904Y2463D02*
X2981Y2463D01*
X3004Y2463D02*
X3081Y2463D01*
X305Y2462D02*
X382Y2462D01*
X405Y2462D02*
X482Y2462D01*
X505Y2462D02*
X582Y2462D01*
X605Y2462D02*
X682Y2462D01*
X705Y2462D02*
X782Y2462D01*
X805Y2462D02*
X882Y2462D01*
X905Y2462D02*
X982Y2462D01*
X1005Y2462D02*
X1082Y2462D01*
X1105Y2462D02*
X1182Y2462D01*
X2205Y2462D02*
X2281Y2462D01*
X2305Y2462D02*
X2381Y2462D01*
X2405Y2462D02*
X2481Y2462D01*
X2505Y2462D02*
X2581Y2462D01*
X2605Y2462D02*
X2681Y2462D01*
X2705Y2462D02*
X2781Y2462D01*
X2805Y2462D02*
X2881Y2462D01*
X2905Y2462D02*
X2981Y2462D01*
X3005Y2462D02*
X3081Y2462D01*
X305Y2461D02*
X381Y2461D01*
X405Y2461D02*
X481Y2461D01*
X505Y2461D02*
X581Y2461D01*
X605Y2461D02*
X681Y2461D01*
X705Y2461D02*
X781Y2461D01*
X805Y2461D02*
X881Y2461D01*
X905Y2461D02*
X981Y2461D01*
X1005Y2461D02*
X1081Y2461D01*
X1105Y2461D02*
X1181Y2461D01*
X2205Y2461D02*
X2281Y2461D01*
X2305Y2461D02*
X2381Y2461D01*
X2405Y2461D02*
X2481Y2461D01*
X2505Y2461D02*
X2581Y2461D01*
X2605Y2461D02*
X2681Y2461D01*
X2705Y2461D02*
X2781Y2461D01*
X2805Y2461D02*
X2881Y2461D01*
X2905Y2461D02*
X2981Y2461D01*
X3005Y2461D02*
X3081Y2461D01*
X306Y2460D02*
X381Y2460D01*
X406Y2460D02*
X481Y2460D01*
X506Y2460D02*
X581Y2460D01*
X606Y2460D02*
X681Y2460D01*
X706Y2460D02*
X781Y2460D01*
X806Y2460D02*
X881Y2460D01*
X906Y2460D02*
X981Y2460D01*
X1006Y2460D02*
X1081Y2460D01*
X1105Y2460D02*
X1181Y2460D01*
X2205Y2460D02*
X2281Y2460D01*
X2305Y2460D02*
X2381Y2460D01*
X2405Y2460D02*
X2481Y2460D01*
X2505Y2460D02*
X2581Y2460D01*
X2605Y2460D02*
X2681Y2460D01*
X2705Y2460D02*
X2781Y2460D01*
X2805Y2460D02*
X2881Y2460D01*
X2905Y2460D02*
X2981Y2460D01*
X3005Y2460D02*
X3081Y2460D01*
X306Y2459D02*
X381Y2459D01*
X406Y2459D02*
X481Y2459D01*
X506Y2459D02*
X581Y2459D01*
X606Y2459D02*
X681Y2459D01*
X706Y2459D02*
X781Y2459D01*
X806Y2459D02*
X881Y2459D01*
X906Y2459D02*
X981Y2459D01*
X1006Y2459D02*
X1081Y2459D01*
X1106Y2459D02*
X1181Y2459D01*
X2206Y2459D02*
X2280Y2459D01*
X2306Y2459D02*
X2380Y2459D01*
X2406Y2459D02*
X2480Y2459D01*
X2506Y2459D02*
X2580Y2459D01*
X2606Y2459D02*
X2680Y2459D01*
X2706Y2459D02*
X2780Y2459D01*
X2806Y2459D02*
X2880Y2459D01*
X2906Y2459D02*
X2980Y2459D01*
X3006Y2459D02*
X3080Y2459D01*
X306Y2458D02*
X380Y2458D01*
X406Y2458D02*
X480Y2458D01*
X506Y2458D02*
X580Y2458D01*
X606Y2458D02*
X680Y2458D01*
X706Y2458D02*
X780Y2458D01*
X806Y2458D02*
X880Y2458D01*
X906Y2458D02*
X980Y2458D01*
X1006Y2458D02*
X1080Y2458D01*
X1106Y2458D02*
X1180Y2458D01*
X2206Y2458D02*
X2280Y2458D01*
X2306Y2458D02*
X2380Y2458D01*
X2406Y2458D02*
X2480Y2458D01*
X2506Y2458D02*
X2580Y2458D01*
X2606Y2458D02*
X2680Y2458D01*
X2706Y2458D02*
X2780Y2458D01*
X2806Y2458D02*
X2880Y2458D01*
X2906Y2458D02*
X2980Y2458D01*
X3006Y2458D02*
X3080Y2458D01*
X307Y2457D02*
X380Y2457D01*
X407Y2457D02*
X480Y2457D01*
X507Y2457D02*
X580Y2457D01*
X607Y2457D02*
X680Y2457D01*
X707Y2457D02*
X780Y2457D01*
X807Y2457D02*
X880Y2457D01*
X907Y2457D02*
X980Y2457D01*
X1007Y2457D02*
X1080Y2457D01*
X1107Y2457D02*
X1180Y2457D01*
X2206Y2457D02*
X2280Y2457D01*
X2306Y2457D02*
X2380Y2457D01*
X2406Y2457D02*
X2480Y2457D01*
X2506Y2457D02*
X2580Y2457D01*
X2606Y2457D02*
X2680Y2457D01*
X2706Y2457D02*
X2780Y2457D01*
X2806Y2457D02*
X2879Y2457D01*
X2906Y2457D02*
X2979Y2457D01*
X3006Y2457D02*
X3079Y2457D01*
X307Y2456D02*
X379Y2456D01*
X407Y2456D02*
X479Y2456D01*
X507Y2456D02*
X579Y2456D01*
X607Y2456D02*
X679Y2456D01*
X707Y2456D02*
X779Y2456D01*
X807Y2456D02*
X879Y2456D01*
X907Y2456D02*
X979Y2456D01*
X1007Y2456D02*
X1079Y2456D01*
X1107Y2456D02*
X1179Y2456D01*
X2207Y2456D02*
X2279Y2456D01*
X2307Y2456D02*
X2379Y2456D01*
X2407Y2456D02*
X2479Y2456D01*
X2507Y2456D02*
X2579Y2456D01*
X2607Y2456D02*
X2679Y2456D01*
X2707Y2456D02*
X2779Y2456D01*
X2807Y2456D02*
X2879Y2456D01*
X2907Y2456D02*
X2979Y2456D01*
X3007Y2456D02*
X3079Y2456D01*
X308Y2455D02*
X379Y2455D01*
X408Y2455D02*
X479Y2455D01*
X508Y2455D02*
X579Y2455D01*
X608Y2455D02*
X679Y2455D01*
X708Y2455D02*
X779Y2455D01*
X808Y2455D02*
X879Y2455D01*
X908Y2455D02*
X979Y2455D01*
X1008Y2455D02*
X1079Y2455D01*
X1108Y2455D02*
X1179Y2455D01*
X2207Y2455D02*
X2279Y2455D01*
X2307Y2455D02*
X2379Y2455D01*
X2407Y2455D02*
X2479Y2455D01*
X2507Y2455D02*
X2579Y2455D01*
X2607Y2455D02*
X2679Y2455D01*
X2707Y2455D02*
X2779Y2455D01*
X2807Y2455D02*
X2879Y2455D01*
X2907Y2455D02*
X2979Y2455D01*
X3007Y2455D02*
X3079Y2455D01*
X308Y2454D02*
X378Y2454D01*
X408Y2454D02*
X478Y2454D01*
X508Y2454D02*
X578Y2454D01*
X608Y2454D02*
X678Y2454D01*
X708Y2454D02*
X778Y2454D01*
X808Y2454D02*
X878Y2454D01*
X908Y2454D02*
X978Y2454D01*
X1008Y2454D02*
X1078Y2454D01*
X1108Y2454D02*
X1178Y2454D01*
X2208Y2454D02*
X2278Y2454D01*
X2308Y2454D02*
X2378Y2454D01*
X2408Y2454D02*
X2478Y2454D01*
X2508Y2454D02*
X2578Y2454D01*
X2608Y2454D02*
X2678Y2454D01*
X2708Y2454D02*
X2778Y2454D01*
X2808Y2454D02*
X2878Y2454D01*
X2908Y2454D02*
X2978Y2454D01*
X3008Y2454D02*
X3078Y2454D01*
X309Y2453D02*
X378Y2453D01*
X409Y2453D02*
X478Y2453D01*
X509Y2453D02*
X578Y2453D01*
X609Y2453D02*
X678Y2453D01*
X709Y2453D02*
X778Y2453D01*
X809Y2453D02*
X878Y2453D01*
X909Y2453D02*
X978Y2453D01*
X1009Y2453D02*
X1078Y2453D01*
X1109Y2453D02*
X1178Y2453D01*
X2208Y2453D02*
X2278Y2453D01*
X2308Y2453D02*
X2378Y2453D01*
X2408Y2453D02*
X2478Y2453D01*
X2508Y2453D02*
X2578Y2453D01*
X2608Y2453D02*
X2678Y2453D01*
X2708Y2453D02*
X2778Y2453D01*
X2808Y2453D02*
X2878Y2453D01*
X2908Y2453D02*
X2978Y2453D01*
X3008Y2453D02*
X3078Y2453D01*
X309Y2452D02*
X377Y2452D01*
X409Y2452D02*
X477Y2452D01*
X509Y2452D02*
X577Y2452D01*
X609Y2452D02*
X677Y2452D01*
X709Y2452D02*
X777Y2452D01*
X809Y2452D02*
X877Y2452D01*
X909Y2452D02*
X977Y2452D01*
X1009Y2452D02*
X1077Y2452D01*
X1109Y2452D02*
X1177Y2452D01*
X2209Y2452D02*
X2277Y2452D01*
X2309Y2452D02*
X2377Y2452D01*
X2409Y2452D02*
X2477Y2452D01*
X2509Y2452D02*
X2577Y2452D01*
X2609Y2452D02*
X2677Y2452D01*
X2709Y2452D02*
X2777Y2452D01*
X2809Y2452D02*
X2877Y2452D01*
X2909Y2452D02*
X2977Y2452D01*
X3009Y2452D02*
X3077Y2452D01*
X310Y2451D02*
X377Y2451D01*
X410Y2451D02*
X477Y2451D01*
X510Y2451D02*
X577Y2451D01*
X610Y2451D02*
X677Y2451D01*
X710Y2451D02*
X777Y2451D01*
X810Y2451D02*
X877Y2451D01*
X910Y2451D02*
X977Y2451D01*
X1010Y2451D02*
X1077Y2451D01*
X1110Y2451D02*
X1177Y2451D01*
X2210Y2451D02*
X2276Y2451D01*
X2310Y2451D02*
X2376Y2451D01*
X2410Y2451D02*
X2476Y2451D01*
X2510Y2451D02*
X2576Y2451D01*
X2610Y2451D02*
X2676Y2451D01*
X2710Y2451D02*
X2776Y2451D01*
X2810Y2451D02*
X2876Y2451D01*
X2910Y2451D02*
X2976Y2451D01*
X3010Y2451D02*
X3076Y2451D01*
X311Y2450D02*
X376Y2450D01*
X411Y2450D02*
X476Y2450D01*
X511Y2450D02*
X576Y2450D01*
X611Y2450D02*
X676Y2450D01*
X711Y2450D02*
X776Y2450D01*
X811Y2450D02*
X876Y2450D01*
X911Y2450D02*
X976Y2450D01*
X1010Y2450D02*
X1076Y2450D01*
X1110Y2450D02*
X1176Y2450D01*
X2210Y2450D02*
X2276Y2450D01*
X2310Y2450D02*
X2376Y2450D01*
X2410Y2450D02*
X2476Y2450D01*
X2510Y2450D02*
X2576Y2450D01*
X2610Y2450D02*
X2676Y2450D01*
X2710Y2450D02*
X2776Y2450D01*
X2810Y2450D02*
X2876Y2450D01*
X2910Y2450D02*
X2976Y2450D01*
X3010Y2450D02*
X3076Y2450D01*
X311Y2449D02*
X375Y2449D01*
X411Y2449D02*
X475Y2449D01*
X511Y2449D02*
X575Y2449D01*
X611Y2449D02*
X675Y2449D01*
X711Y2449D02*
X775Y2449D01*
X811Y2449D02*
X875Y2449D01*
X911Y2449D02*
X975Y2449D01*
X1011Y2449D02*
X1075Y2449D01*
X1111Y2449D02*
X1175Y2449D01*
X2211Y2449D02*
X2275Y2449D01*
X2311Y2449D02*
X2375Y2449D01*
X2411Y2449D02*
X2475Y2449D01*
X2511Y2449D02*
X2575Y2449D01*
X2611Y2449D02*
X2675Y2449D01*
X2711Y2449D02*
X2775Y2449D01*
X2811Y2449D02*
X2875Y2449D01*
X2911Y2449D02*
X2975Y2449D01*
X3011Y2449D02*
X3075Y2449D01*
X312Y2448D02*
X375Y2448D01*
X412Y2448D02*
X475Y2448D01*
X512Y2448D02*
X575Y2448D01*
X612Y2448D02*
X675Y2448D01*
X712Y2448D02*
X775Y2448D01*
X812Y2448D02*
X875Y2448D01*
X912Y2448D02*
X975Y2448D01*
X1012Y2448D02*
X1075Y2448D01*
X1112Y2448D02*
X1175Y2448D01*
X2212Y2448D02*
X2274Y2448D01*
X2312Y2448D02*
X2374Y2448D01*
X2412Y2448D02*
X2474Y2448D01*
X2512Y2448D02*
X2574Y2448D01*
X2612Y2448D02*
X2674Y2448D01*
X2712Y2448D02*
X2774Y2448D01*
X2812Y2448D02*
X2874Y2448D01*
X2912Y2448D02*
X2974Y2448D01*
X3012Y2448D02*
X3074Y2448D01*
X313Y2447D02*
X374Y2447D01*
X413Y2447D02*
X474Y2447D01*
X513Y2447D02*
X574Y2447D01*
X613Y2447D02*
X674Y2447D01*
X713Y2447D02*
X774Y2447D01*
X813Y2447D02*
X874Y2447D01*
X913Y2447D02*
X974Y2447D01*
X1013Y2447D02*
X1074Y2447D01*
X1113Y2447D02*
X1174Y2447D01*
X2213Y2447D02*
X2274Y2447D01*
X2312Y2447D02*
X2374Y2447D01*
X2412Y2447D02*
X2474Y2447D01*
X2512Y2447D02*
X2574Y2447D01*
X2612Y2447D02*
X2673Y2447D01*
X2712Y2447D02*
X2773Y2447D01*
X2812Y2447D02*
X2873Y2447D01*
X2912Y2447D02*
X2973Y2447D01*
X3012Y2447D02*
X3073Y2447D01*
X314Y2446D02*
X373Y2446D01*
X414Y2446D02*
X473Y2446D01*
X514Y2446D02*
X573Y2446D01*
X614Y2446D02*
X673Y2446D01*
X714Y2446D02*
X773Y2446D01*
X814Y2446D02*
X873Y2446D01*
X913Y2446D02*
X973Y2446D01*
X1013Y2446D02*
X1073Y2446D01*
X1113Y2446D02*
X1173Y2446D01*
X2213Y2446D02*
X2273Y2446D01*
X2313Y2446D02*
X2373Y2446D01*
X2413Y2446D02*
X2473Y2446D01*
X2513Y2446D02*
X2573Y2446D01*
X2613Y2446D02*
X2673Y2446D01*
X2713Y2446D02*
X2773Y2446D01*
X2813Y2446D02*
X2873Y2446D01*
X2913Y2446D02*
X2973Y2446D01*
X3013Y2446D02*
X3073Y2446D01*
X314Y2445D02*
X372Y2445D01*
X414Y2445D02*
X472Y2445D01*
X514Y2445D02*
X572Y2445D01*
X614Y2445D02*
X672Y2445D01*
X714Y2445D02*
X772Y2445D01*
X814Y2445D02*
X872Y2445D01*
X914Y2445D02*
X972Y2445D01*
X1014Y2445D02*
X1072Y2445D01*
X1114Y2445D02*
X1172Y2445D01*
X2214Y2445D02*
X2272Y2445D01*
X2314Y2445D02*
X2372Y2445D01*
X2414Y2445D02*
X2472Y2445D01*
X2514Y2445D02*
X2572Y2445D01*
X2614Y2445D02*
X2672Y2445D01*
X2714Y2445D02*
X2772Y2445D01*
X2814Y2445D02*
X2872Y2445D01*
X2914Y2445D02*
X2972Y2445D01*
X3014Y2445D02*
X3072Y2445D01*
X315Y2444D02*
X371Y2444D01*
X415Y2444D02*
X471Y2444D01*
X515Y2444D02*
X571Y2444D01*
X615Y2444D02*
X671Y2444D01*
X715Y2444D02*
X771Y2444D01*
X815Y2444D02*
X871Y2444D01*
X915Y2444D02*
X971Y2444D01*
X1015Y2444D02*
X1071Y2444D01*
X1115Y2444D02*
X1171Y2444D01*
X2215Y2444D02*
X2271Y2444D01*
X2315Y2444D02*
X2371Y2444D01*
X2415Y2444D02*
X2471Y2444D01*
X2515Y2444D02*
X2571Y2444D01*
X2615Y2444D02*
X2671Y2444D01*
X2715Y2444D02*
X2771Y2444D01*
X2815Y2444D02*
X2871Y2444D01*
X2915Y2444D02*
X2971Y2444D01*
X3015Y2444D02*
X3071Y2444D01*
X316Y2443D02*
X370Y2443D01*
X416Y2443D02*
X470Y2443D01*
X516Y2443D02*
X570Y2443D01*
X616Y2443D02*
X670Y2443D01*
X716Y2443D02*
X770Y2443D01*
X816Y2443D02*
X870Y2443D01*
X916Y2443D02*
X970Y2443D01*
X1016Y2443D02*
X1070Y2443D01*
X1116Y2443D02*
X1170Y2443D01*
X2216Y2443D02*
X2270Y2443D01*
X2316Y2443D02*
X2370Y2443D01*
X2416Y2443D02*
X2470Y2443D01*
X2516Y2443D02*
X2570Y2443D01*
X2616Y2443D02*
X2670Y2443D01*
X2716Y2443D02*
X2770Y2443D01*
X2816Y2443D02*
X2870Y2443D01*
X2916Y2443D02*
X2970Y2443D01*
X3016Y2443D02*
X3070Y2443D01*
X317Y2442D02*
X369Y2442D01*
X417Y2442D02*
X469Y2442D01*
X517Y2442D02*
X569Y2442D01*
X617Y2442D02*
X669Y2442D01*
X717Y2442D02*
X769Y2442D01*
X817Y2442D02*
X869Y2442D01*
X917Y2442D02*
X969Y2442D01*
X1017Y2442D02*
X1069Y2442D01*
X1117Y2442D02*
X1169Y2442D01*
X2217Y2442D02*
X2269Y2442D01*
X2317Y2442D02*
X2369Y2442D01*
X2417Y2442D02*
X2469Y2442D01*
X2517Y2442D02*
X2569Y2442D01*
X2617Y2442D02*
X2669Y2442D01*
X2717Y2442D02*
X2769Y2442D01*
X2817Y2442D02*
X2869Y2442D01*
X2917Y2442D02*
X2969Y2442D01*
X3017Y2442D02*
X3069Y2442D01*
X319Y2441D02*
X368Y2441D01*
X418Y2441D02*
X468Y2441D01*
X518Y2441D02*
X568Y2441D01*
X618Y2441D02*
X668Y2441D01*
X718Y2441D02*
X768Y2441D01*
X818Y2441D02*
X868Y2441D01*
X918Y2441D02*
X968Y2441D01*
X1018Y2441D02*
X1068Y2441D01*
X1118Y2441D02*
X1168Y2441D01*
X2218Y2441D02*
X2268Y2441D01*
X2318Y2441D02*
X2368Y2441D01*
X2418Y2441D02*
X2468Y2441D01*
X2518Y2441D02*
X2568Y2441D01*
X2618Y2441D02*
X2668Y2441D01*
X2718Y2441D02*
X2768Y2441D01*
X2818Y2441D02*
X2868Y2441D01*
X2918Y2441D02*
X2968Y2441D01*
X3018Y2441D02*
X3068Y2441D01*
X320Y2440D02*
X367Y2440D01*
X420Y2440D02*
X467Y2440D01*
X520Y2440D02*
X567Y2440D01*
X620Y2440D02*
X667Y2440D01*
X720Y2440D02*
X767Y2440D01*
X820Y2440D02*
X867Y2440D01*
X920Y2440D02*
X967Y2440D01*
X1020Y2440D02*
X1067Y2440D01*
X1120Y2440D02*
X1167Y2440D01*
X2219Y2440D02*
X2267Y2440D01*
X2319Y2440D02*
X2367Y2440D01*
X2419Y2440D02*
X2467Y2440D01*
X2519Y2440D02*
X2567Y2440D01*
X2619Y2440D02*
X2667Y2440D01*
X2719Y2440D02*
X2767Y2440D01*
X2819Y2440D02*
X2867Y2440D01*
X2919Y2440D02*
X2967Y2440D01*
X3019Y2440D02*
X3067Y2440D01*
X321Y2439D02*
X366Y2439D01*
X421Y2439D02*
X466Y2439D01*
X521Y2439D02*
X566Y2439D01*
X621Y2439D02*
X666Y2439D01*
X721Y2439D02*
X766Y2439D01*
X821Y2439D02*
X866Y2439D01*
X921Y2439D02*
X966Y2439D01*
X1021Y2439D02*
X1066Y2439D01*
X1121Y2439D02*
X1166Y2439D01*
X2221Y2439D02*
X2265Y2439D01*
X2321Y2439D02*
X2365Y2439D01*
X2421Y2439D02*
X2465Y2439D01*
X2521Y2439D02*
X2565Y2439D01*
X2621Y2439D02*
X2665Y2439D01*
X2721Y2439D02*
X2765Y2439D01*
X2821Y2439D02*
X2865Y2439D01*
X2921Y2439D02*
X2965Y2439D01*
X3020Y2439D02*
X3065Y2439D01*
X322Y2438D02*
X364Y2438D01*
X422Y2438D02*
X464Y2438D01*
X522Y2438D02*
X564Y2438D01*
X622Y2438D02*
X664Y2438D01*
X722Y2438D02*
X764Y2438D01*
X822Y2438D02*
X864Y2438D01*
X922Y2438D02*
X964Y2438D01*
X1022Y2438D02*
X1064Y2438D01*
X1122Y2438D02*
X1164Y2438D01*
X2222Y2438D02*
X2264Y2438D01*
X2322Y2438D02*
X2364Y2438D01*
X2422Y2438D02*
X2464Y2438D01*
X2522Y2438D02*
X2564Y2438D01*
X2622Y2438D02*
X2664Y2438D01*
X2722Y2438D02*
X2764Y2438D01*
X2822Y2438D02*
X2864Y2438D01*
X2922Y2438D02*
X2964Y2438D01*
X3022Y2438D02*
X3064Y2438D01*
X324Y2437D02*
X363Y2437D01*
X424Y2437D02*
X463Y2437D01*
X524Y2437D02*
X563Y2437D01*
X624Y2437D02*
X663Y2437D01*
X724Y2437D02*
X763Y2437D01*
X824Y2437D02*
X863Y2437D01*
X924Y2437D02*
X963Y2437D01*
X1024Y2437D02*
X1063Y2437D01*
X1124Y2437D02*
X1163Y2437D01*
X2223Y2437D02*
X2263Y2437D01*
X2323Y2437D02*
X2363Y2437D01*
X2423Y2437D02*
X2463Y2437D01*
X2523Y2437D02*
X2563Y2437D01*
X2623Y2437D02*
X2663Y2437D01*
X2723Y2437D02*
X2763Y2437D01*
X2823Y2437D02*
X2863Y2437D01*
X2923Y2437D02*
X2963Y2437D01*
X3023Y2437D02*
X3062Y2437D01*
X325Y2436D02*
X361Y2436D01*
X425Y2436D02*
X461Y2436D01*
X525Y2436D02*
X561Y2436D01*
X625Y2436D02*
X661Y2436D01*
X725Y2436D02*
X761Y2436D01*
X825Y2436D02*
X861Y2436D01*
X925Y2436D02*
X961Y2436D01*
X1025Y2436D02*
X1061Y2436D01*
X1125Y2436D02*
X1161Y2436D01*
X2225Y2436D02*
X2261Y2436D01*
X2325Y2436D02*
X2361Y2436D01*
X2425Y2436D02*
X2461Y2436D01*
X2525Y2436D02*
X2561Y2436D01*
X2625Y2436D02*
X2661Y2436D01*
X2725Y2436D02*
X2761Y2436D01*
X2825Y2436D02*
X2861Y2436D01*
X2925Y2436D02*
X2961Y2436D01*
X3025Y2436D02*
X3061Y2436D01*
X327Y2435D02*
X360Y2435D01*
X427Y2435D02*
X460Y2435D01*
X527Y2435D02*
X560Y2435D01*
X627Y2435D02*
X660Y2435D01*
X727Y2435D02*
X759Y2435D01*
X827Y2435D02*
X859Y2435D01*
X927Y2435D02*
X959Y2435D01*
X1027Y2435D02*
X1059Y2435D01*
X1127Y2435D02*
X1159Y2435D01*
X2227Y2435D02*
X2259Y2435D01*
X2327Y2435D02*
X2359Y2435D01*
X2427Y2435D02*
X2459Y2435D01*
X2527Y2435D02*
X2559Y2435D01*
X2627Y2435D02*
X2659Y2435D01*
X2727Y2435D02*
X2759Y2435D01*
X2827Y2435D02*
X2859Y2435D01*
X2927Y2435D02*
X2959Y2435D01*
X3027Y2435D02*
X3059Y2435D01*
X329Y2434D02*
X358Y2434D01*
X429Y2434D02*
X458Y2434D01*
X529Y2434D02*
X558Y2434D01*
X629Y2434D02*
X658Y2434D01*
X729Y2434D02*
X758Y2434D01*
X829Y2434D02*
X858Y2434D01*
X929Y2434D02*
X958Y2434D01*
X1029Y2434D02*
X1058Y2434D01*
X1129Y2434D02*
X1158Y2434D01*
X2229Y2434D02*
X2257Y2434D01*
X2329Y2434D02*
X2357Y2434D01*
X2429Y2434D02*
X2457Y2434D01*
X2529Y2434D02*
X2557Y2434D01*
X2629Y2434D02*
X2657Y2434D01*
X2729Y2434D02*
X2757Y2434D01*
X2829Y2434D02*
X2857Y2434D01*
X2929Y2434D02*
X2957Y2434D01*
X3029Y2434D02*
X3057Y2434D01*
X331Y2433D02*
X355Y2433D01*
X431Y2433D02*
X455Y2433D01*
X531Y2433D02*
X555Y2433D01*
X631Y2433D02*
X655Y2433D01*
X731Y2433D02*
X755Y2433D01*
X831Y2433D02*
X855Y2433D01*
X931Y2433D02*
X955Y2433D01*
X1031Y2433D02*
X1055Y2433D01*
X1131Y2433D02*
X1155Y2433D01*
X2231Y2433D02*
X2255Y2433D01*
X2331Y2433D02*
X2355Y2433D01*
X2431Y2433D02*
X2455Y2433D01*
X2531Y2433D02*
X2555Y2433D01*
X2631Y2433D02*
X2655Y2433D01*
X2731Y2433D02*
X2755Y2433D01*
X2831Y2433D02*
X2855Y2433D01*
X2931Y2433D02*
X2955Y2433D01*
X3031Y2433D02*
X3055Y2433D01*
X334Y2432D02*
X352Y2432D01*
X434Y2432D02*
X452Y2432D01*
X534Y2432D02*
X552Y2432D01*
X634Y2432D02*
X652Y2432D01*
X734Y2432D02*
X752Y2432D01*
X834Y2432D02*
X852Y2432D01*
X934Y2432D02*
X952Y2432D01*
X1034Y2432D02*
X1052Y2432D01*
X1134Y2432D02*
X1152Y2432D01*
X2234Y2432D02*
X2252Y2432D01*
X2334Y2432D02*
X2352Y2432D01*
X2434Y2432D02*
X2452Y2432D01*
X2534Y2432D02*
X2552Y2432D01*
X2634Y2432D02*
X2652Y2432D01*
X2734Y2432D02*
X2752Y2432D01*
X2834Y2432D02*
X2852Y2432D01*
X2934Y2432D02*
X2952Y2432D01*
X3034Y2432D02*
X3052Y2432D01*
X339Y2431D02*
X348Y2431D01*
X439Y2431D02*
X448Y2431D01*
X539Y2431D02*
X548Y2431D01*
X639Y2431D02*
X648Y2431D01*
X739Y2431D02*
X748Y2431D01*
X839Y2431D02*
X848Y2431D01*
X939Y2431D02*
X948Y2431D01*
X1039Y2431D02*
X1048Y2431D01*
X1138Y2431D02*
X1148Y2431D01*
X2238Y2431D02*
X2248Y2431D01*
X2338Y2431D02*
X2348Y2431D01*
X2438Y2431D02*
X2448Y2431D01*
X2538Y2431D02*
X2548Y2431D01*
X2638Y2431D02*
X2648Y2431D01*
X2738Y2431D02*
X2748Y2431D01*
X2838Y2431D02*
X2848Y2431D01*
X2938Y2431D02*
X2948Y2431D01*
X3038Y2431D02*
X3048Y2431D01*
X338Y2210D02*
X348Y2210D01*
X438Y2210D02*
X448Y2210D01*
X538Y2210D02*
X548Y2210D01*
X638Y2210D02*
X648Y2210D01*
X738Y2210D02*
X748Y2210D01*
X838Y2210D02*
X848Y2210D01*
X938Y2210D02*
X948Y2210D01*
X1038Y2210D02*
X1048Y2210D01*
X1138Y2210D02*
X1148Y2210D01*
X2238Y2210D02*
X2248Y2210D01*
X2338Y2210D02*
X2348Y2210D01*
X2438Y2210D02*
X2448Y2210D01*
X2538Y2210D02*
X2548Y2210D01*
X2638Y2210D02*
X2648Y2210D01*
X2738Y2210D02*
X2748Y2210D01*
X2838Y2210D02*
X2848Y2210D01*
X2938Y2210D02*
X2948Y2210D01*
X3038Y2210D02*
X3048Y2210D01*
X334Y2209D02*
X352Y2209D01*
X434Y2209D02*
X452Y2209D01*
X534Y2209D02*
X552Y2209D01*
X634Y2209D02*
X652Y2209D01*
X734Y2209D02*
X752Y2209D01*
X834Y2209D02*
X852Y2209D01*
X934Y2209D02*
X952Y2209D01*
X1034Y2209D02*
X1052Y2209D01*
X1134Y2209D02*
X1152Y2209D01*
X2234Y2209D02*
X2252Y2209D01*
X2334Y2209D02*
X2352Y2209D01*
X2434Y2209D02*
X2452Y2209D01*
X2534Y2209D02*
X2552Y2209D01*
X2634Y2209D02*
X2652Y2209D01*
X2734Y2209D02*
X2752Y2209D01*
X2834Y2209D02*
X2852Y2209D01*
X2934Y2209D02*
X2952Y2209D01*
X3034Y2209D02*
X3052Y2209D01*
X331Y2208D02*
X355Y2208D01*
X431Y2208D02*
X455Y2208D01*
X531Y2208D02*
X555Y2208D01*
X631Y2208D02*
X655Y2208D01*
X731Y2208D02*
X755Y2208D01*
X831Y2208D02*
X855Y2208D01*
X931Y2208D02*
X955Y2208D01*
X1031Y2208D02*
X1055Y2208D01*
X1131Y2208D02*
X1155Y2208D01*
X2231Y2208D02*
X2255Y2208D01*
X2331Y2208D02*
X2355Y2208D01*
X2431Y2208D02*
X2455Y2208D01*
X2531Y2208D02*
X2555Y2208D01*
X2631Y2208D02*
X2655Y2208D01*
X2731Y2208D02*
X2755Y2208D01*
X2831Y2208D02*
X2855Y2208D01*
X2931Y2208D02*
X2955Y2208D01*
X3031Y2208D02*
X3055Y2208D01*
X329Y2207D02*
X358Y2207D01*
X429Y2207D02*
X458Y2207D01*
X529Y2207D02*
X558Y2207D01*
X629Y2207D02*
X658Y2207D01*
X729Y2207D02*
X758Y2207D01*
X829Y2207D02*
X858Y2207D01*
X929Y2207D02*
X958Y2207D01*
X1029Y2207D02*
X1058Y2207D01*
X1129Y2207D02*
X1158Y2207D01*
X2229Y2207D02*
X2257Y2207D01*
X2329Y2207D02*
X2357Y2207D01*
X2429Y2207D02*
X2457Y2207D01*
X2529Y2207D02*
X2557Y2207D01*
X2629Y2207D02*
X2657Y2207D01*
X2729Y2207D02*
X2757Y2207D01*
X2829Y2207D02*
X2857Y2207D01*
X2929Y2207D02*
X2957Y2207D01*
X3029Y2207D02*
X3057Y2207D01*
X327Y2206D02*
X360Y2206D01*
X427Y2206D02*
X460Y2206D01*
X527Y2206D02*
X560Y2206D01*
X627Y2206D02*
X660Y2206D01*
X727Y2206D02*
X760Y2206D01*
X827Y2206D02*
X860Y2206D01*
X927Y2206D02*
X960Y2206D01*
X1027Y2206D02*
X1060Y2206D01*
X1127Y2206D02*
X1159Y2206D01*
X2227Y2206D02*
X2259Y2206D01*
X2327Y2206D02*
X2359Y2206D01*
X2427Y2206D02*
X2459Y2206D01*
X2527Y2206D02*
X2559Y2206D01*
X2627Y2206D02*
X2659Y2206D01*
X2727Y2206D02*
X2759Y2206D01*
X2827Y2206D02*
X2859Y2206D01*
X2927Y2206D02*
X2959Y2206D01*
X3027Y2206D02*
X3059Y2206D01*
X325Y2205D02*
X361Y2205D01*
X425Y2205D02*
X461Y2205D01*
X525Y2205D02*
X561Y2205D01*
X625Y2205D02*
X661Y2205D01*
X725Y2205D02*
X761Y2205D01*
X825Y2205D02*
X861Y2205D01*
X925Y2205D02*
X961Y2205D01*
X1025Y2205D02*
X1061Y2205D01*
X1125Y2205D02*
X1161Y2205D01*
X2225Y2205D02*
X2261Y2205D01*
X2325Y2205D02*
X2361Y2205D01*
X2425Y2205D02*
X2461Y2205D01*
X2525Y2205D02*
X2561Y2205D01*
X2625Y2205D02*
X2661Y2205D01*
X2725Y2205D02*
X2761Y2205D01*
X2825Y2205D02*
X2861Y2205D01*
X2925Y2205D02*
X2961Y2205D01*
X3025Y2205D02*
X3061Y2205D01*
X324Y2204D02*
X363Y2204D01*
X424Y2204D02*
X463Y2204D01*
X524Y2204D02*
X563Y2204D01*
X624Y2204D02*
X663Y2204D01*
X724Y2204D02*
X763Y2204D01*
X824Y2204D02*
X863Y2204D01*
X924Y2204D02*
X963Y2204D01*
X1024Y2204D02*
X1063Y2204D01*
X1124Y2204D02*
X1163Y2204D01*
X2223Y2204D02*
X2263Y2204D01*
X2323Y2204D02*
X2363Y2204D01*
X2423Y2204D02*
X2463Y2204D01*
X2523Y2204D02*
X2563Y2204D01*
X2623Y2204D02*
X2663Y2204D01*
X2723Y2204D02*
X2763Y2204D01*
X2823Y2204D02*
X2863Y2204D01*
X2923Y2204D02*
X2963Y2204D01*
X3023Y2204D02*
X3063Y2204D01*
X322Y2203D02*
X364Y2203D01*
X422Y2203D02*
X464Y2203D01*
X522Y2203D02*
X564Y2203D01*
X622Y2203D02*
X664Y2203D01*
X722Y2203D02*
X764Y2203D01*
X822Y2203D02*
X864Y2203D01*
X922Y2203D02*
X964Y2203D01*
X1022Y2203D02*
X1064Y2203D01*
X1122Y2203D02*
X1164Y2203D01*
X2222Y2203D02*
X2264Y2203D01*
X2322Y2203D02*
X2364Y2203D01*
X2422Y2203D02*
X2464Y2203D01*
X2522Y2203D02*
X2564Y2203D01*
X2622Y2203D02*
X2664Y2203D01*
X2722Y2203D02*
X2764Y2203D01*
X2822Y2203D02*
X2864Y2203D01*
X2922Y2203D02*
X2964Y2203D01*
X3022Y2203D02*
X3064Y2203D01*
X321Y2202D02*
X366Y2202D01*
X421Y2202D02*
X466Y2202D01*
X521Y2202D02*
X566Y2202D01*
X621Y2202D02*
X666Y2202D01*
X721Y2202D02*
X766Y2202D01*
X821Y2202D02*
X866Y2202D01*
X921Y2202D02*
X966Y2202D01*
X1021Y2202D02*
X1066Y2202D01*
X1121Y2202D02*
X1166Y2202D01*
X2221Y2202D02*
X2265Y2202D01*
X2321Y2202D02*
X2365Y2202D01*
X2421Y2202D02*
X2465Y2202D01*
X2521Y2202D02*
X2565Y2202D01*
X2621Y2202D02*
X2665Y2202D01*
X2721Y2202D02*
X2765Y2202D01*
X2820Y2202D02*
X2865Y2202D01*
X2920Y2202D02*
X2965Y2202D01*
X3020Y2202D02*
X3065Y2202D01*
X320Y2201D02*
X367Y2201D01*
X420Y2201D02*
X467Y2201D01*
X520Y2201D02*
X567Y2201D01*
X620Y2201D02*
X667Y2201D01*
X720Y2201D02*
X767Y2201D01*
X820Y2201D02*
X867Y2201D01*
X920Y2201D02*
X967Y2201D01*
X1020Y2201D02*
X1067Y2201D01*
X1119Y2201D02*
X1167Y2201D01*
X2219Y2201D02*
X2267Y2201D01*
X2319Y2201D02*
X2367Y2201D01*
X2419Y2201D02*
X2467Y2201D01*
X2519Y2201D02*
X2567Y2201D01*
X2619Y2201D02*
X2667Y2201D01*
X2719Y2201D02*
X2767Y2201D01*
X2819Y2201D02*
X2867Y2201D01*
X2919Y2201D02*
X2967Y2201D01*
X3019Y2201D02*
X3067Y2201D01*
X318Y2200D02*
X368Y2200D01*
X418Y2200D02*
X468Y2200D01*
X518Y2200D02*
X568Y2200D01*
X618Y2200D02*
X668Y2200D01*
X718Y2200D02*
X768Y2200D01*
X818Y2200D02*
X868Y2200D01*
X918Y2200D02*
X968Y2200D01*
X1018Y2200D02*
X1068Y2200D01*
X1118Y2200D02*
X1168Y2200D01*
X2218Y2200D02*
X2268Y2200D01*
X2318Y2200D02*
X2368Y2200D01*
X2418Y2200D02*
X2468Y2200D01*
X2518Y2200D02*
X2568Y2200D01*
X2618Y2200D02*
X2668Y2200D01*
X2718Y2200D02*
X2768Y2200D01*
X2818Y2200D02*
X2868Y2200D01*
X2918Y2200D02*
X2968Y2200D01*
X3018Y2200D02*
X3068Y2200D01*
X317Y2199D02*
X369Y2199D01*
X417Y2199D02*
X469Y2199D01*
X517Y2199D02*
X569Y2199D01*
X617Y2199D02*
X669Y2199D01*
X717Y2199D02*
X769Y2199D01*
X817Y2199D02*
X869Y2199D01*
X917Y2199D02*
X969Y2199D01*
X1017Y2199D02*
X1069Y2199D01*
X1117Y2199D02*
X1169Y2199D01*
X2217Y2199D02*
X2269Y2199D01*
X2317Y2199D02*
X2369Y2199D01*
X2417Y2199D02*
X2469Y2199D01*
X2517Y2199D02*
X2569Y2199D01*
X2617Y2199D02*
X2669Y2199D01*
X2717Y2199D02*
X2769Y2199D01*
X2817Y2199D02*
X2869Y2199D01*
X2917Y2199D02*
X2969Y2199D01*
X3017Y2199D02*
X3069Y2199D01*
X316Y2198D02*
X370Y2198D01*
X416Y2198D02*
X470Y2198D01*
X516Y2198D02*
X570Y2198D01*
X616Y2198D02*
X670Y2198D01*
X716Y2198D02*
X770Y2198D01*
X816Y2198D02*
X870Y2198D01*
X916Y2198D02*
X970Y2198D01*
X1016Y2198D02*
X1070Y2198D01*
X1116Y2198D02*
X1170Y2198D01*
X2216Y2198D02*
X2270Y2198D01*
X2316Y2198D02*
X2370Y2198D01*
X2416Y2198D02*
X2470Y2198D01*
X2516Y2198D02*
X2570Y2198D01*
X2616Y2198D02*
X2670Y2198D01*
X2716Y2198D02*
X2770Y2198D01*
X2816Y2198D02*
X2870Y2198D01*
X2916Y2198D02*
X2970Y2198D01*
X3016Y2198D02*
X3070Y2198D01*
X315Y2197D02*
X371Y2197D01*
X415Y2197D02*
X471Y2197D01*
X515Y2197D02*
X571Y2197D01*
X615Y2197D02*
X671Y2197D01*
X715Y2197D02*
X771Y2197D01*
X815Y2197D02*
X871Y2197D01*
X915Y2197D02*
X971Y2197D01*
X1015Y2197D02*
X1071Y2197D01*
X1115Y2197D02*
X1171Y2197D01*
X2215Y2197D02*
X2271Y2197D01*
X2315Y2197D02*
X2371Y2197D01*
X2415Y2197D02*
X2471Y2197D01*
X2515Y2197D02*
X2571Y2197D01*
X2615Y2197D02*
X2671Y2197D01*
X2715Y2197D02*
X2771Y2197D01*
X2815Y2197D02*
X2871Y2197D01*
X2915Y2197D02*
X2971Y2197D01*
X3015Y2197D02*
X3071Y2197D01*
X314Y2196D02*
X372Y2196D01*
X414Y2196D02*
X472Y2196D01*
X514Y2196D02*
X572Y2196D01*
X614Y2196D02*
X672Y2196D01*
X714Y2196D02*
X772Y2196D01*
X814Y2196D02*
X872Y2196D01*
X914Y2196D02*
X972Y2196D01*
X1014Y2196D02*
X1072Y2196D01*
X1114Y2196D02*
X1172Y2196D01*
X2214Y2196D02*
X2272Y2196D01*
X2314Y2196D02*
X2372Y2196D01*
X2414Y2196D02*
X2472Y2196D01*
X2514Y2196D02*
X2572Y2196D01*
X2614Y2196D02*
X2672Y2196D01*
X2714Y2196D02*
X2772Y2196D01*
X2814Y2196D02*
X2872Y2196D01*
X2914Y2196D02*
X2972Y2196D01*
X3014Y2196D02*
X3072Y2196D01*
X314Y2195D02*
X373Y2195D01*
X414Y2195D02*
X473Y2195D01*
X514Y2195D02*
X573Y2195D01*
X614Y2195D02*
X673Y2195D01*
X714Y2195D02*
X773Y2195D01*
X813Y2195D02*
X873Y2195D01*
X913Y2195D02*
X973Y2195D01*
X1013Y2195D02*
X1073Y2195D01*
X1113Y2195D02*
X1173Y2195D01*
X2213Y2195D02*
X2273Y2195D01*
X2313Y2195D02*
X2373Y2195D01*
X2413Y2195D02*
X2473Y2195D01*
X2513Y2195D02*
X2573Y2195D01*
X2613Y2195D02*
X2673Y2195D01*
X2713Y2195D02*
X2773Y2195D01*
X2813Y2195D02*
X2873Y2195D01*
X2913Y2195D02*
X2973Y2195D01*
X3013Y2195D02*
X3073Y2195D01*
X313Y2194D02*
X374Y2194D01*
X413Y2194D02*
X474Y2194D01*
X513Y2194D02*
X574Y2194D01*
X613Y2194D02*
X674Y2194D01*
X713Y2194D02*
X774Y2194D01*
X813Y2194D02*
X874Y2194D01*
X913Y2194D02*
X974Y2194D01*
X1013Y2194D02*
X1074Y2194D01*
X1113Y2194D02*
X1174Y2194D01*
X2212Y2194D02*
X2274Y2194D01*
X2312Y2194D02*
X2374Y2194D01*
X2412Y2194D02*
X2474Y2194D01*
X2512Y2194D02*
X2574Y2194D01*
X2612Y2194D02*
X2674Y2194D01*
X2712Y2194D02*
X2774Y2194D01*
X2812Y2194D02*
X2873Y2194D01*
X2912Y2194D02*
X2973Y2194D01*
X3012Y2194D02*
X3073Y2194D01*
X312Y2193D02*
X375Y2193D01*
X412Y2193D02*
X475Y2193D01*
X512Y2193D02*
X575Y2193D01*
X612Y2193D02*
X675Y2193D01*
X712Y2193D02*
X775Y2193D01*
X812Y2193D02*
X875Y2193D01*
X912Y2193D02*
X975Y2193D01*
X1012Y2193D02*
X1075Y2193D01*
X1112Y2193D02*
X1175Y2193D01*
X2212Y2193D02*
X2274Y2193D01*
X2312Y2193D02*
X2374Y2193D01*
X2412Y2193D02*
X2474Y2193D01*
X2512Y2193D02*
X2574Y2193D01*
X2612Y2193D02*
X2674Y2193D01*
X2712Y2193D02*
X2774Y2193D01*
X2812Y2193D02*
X2874Y2193D01*
X2912Y2193D02*
X2974Y2193D01*
X3012Y2193D02*
X3074Y2193D01*
X311Y2192D02*
X375Y2192D01*
X411Y2192D02*
X475Y2192D01*
X511Y2192D02*
X575Y2192D01*
X611Y2192D02*
X675Y2192D01*
X711Y2192D02*
X775Y2192D01*
X811Y2192D02*
X875Y2192D01*
X911Y2192D02*
X975Y2192D01*
X1011Y2192D02*
X1075Y2192D01*
X1111Y2192D02*
X1175Y2192D01*
X2211Y2192D02*
X2275Y2192D01*
X2311Y2192D02*
X2375Y2192D01*
X2411Y2192D02*
X2475Y2192D01*
X2511Y2192D02*
X2575Y2192D01*
X2611Y2192D02*
X2675Y2192D01*
X2711Y2192D02*
X2775Y2192D01*
X2811Y2192D02*
X2875Y2192D01*
X2911Y2192D02*
X2975Y2192D01*
X3011Y2192D02*
X3075Y2192D01*
X311Y2191D02*
X376Y2191D01*
X411Y2191D02*
X476Y2191D01*
X511Y2191D02*
X576Y2191D01*
X611Y2191D02*
X676Y2191D01*
X711Y2191D02*
X776Y2191D01*
X811Y2191D02*
X876Y2191D01*
X910Y2191D02*
X976Y2191D01*
X1010Y2191D02*
X1076Y2191D01*
X1110Y2191D02*
X1176Y2191D01*
X2210Y2191D02*
X2276Y2191D01*
X2310Y2191D02*
X2376Y2191D01*
X2410Y2191D02*
X2476Y2191D01*
X2510Y2191D02*
X2576Y2191D01*
X2610Y2191D02*
X2676Y2191D01*
X2710Y2191D02*
X2776Y2191D01*
X2810Y2191D02*
X2876Y2191D01*
X2910Y2191D02*
X2976Y2191D01*
X3010Y2191D02*
X3076Y2191D01*
X310Y2190D02*
X377Y2190D01*
X410Y2190D02*
X477Y2190D01*
X510Y2190D02*
X577Y2190D01*
X610Y2190D02*
X677Y2190D01*
X710Y2190D02*
X777Y2190D01*
X810Y2190D02*
X877Y2190D01*
X910Y2190D02*
X977Y2190D01*
X1010Y2190D02*
X1077Y2190D01*
X1110Y2190D02*
X1177Y2190D01*
X2210Y2190D02*
X2276Y2190D01*
X2310Y2190D02*
X2376Y2190D01*
X2410Y2190D02*
X2476Y2190D01*
X2510Y2190D02*
X2576Y2190D01*
X2610Y2190D02*
X2676Y2190D01*
X2710Y2190D02*
X2776Y2190D01*
X2810Y2190D02*
X2876Y2190D01*
X2910Y2190D02*
X2976Y2190D01*
X3010Y2190D02*
X3076Y2190D01*
X309Y2189D02*
X377Y2189D01*
X409Y2189D02*
X477Y2189D01*
X509Y2189D02*
X577Y2189D01*
X609Y2189D02*
X677Y2189D01*
X709Y2189D02*
X777Y2189D01*
X809Y2189D02*
X877Y2189D01*
X909Y2189D02*
X977Y2189D01*
X1009Y2189D02*
X1077Y2189D01*
X1109Y2189D02*
X1177Y2189D01*
X2209Y2189D02*
X2277Y2189D01*
X2309Y2189D02*
X2377Y2189D01*
X2409Y2189D02*
X2477Y2189D01*
X2509Y2189D02*
X2577Y2189D01*
X2609Y2189D02*
X2677Y2189D01*
X2709Y2189D02*
X2777Y2189D01*
X2809Y2189D02*
X2877Y2189D01*
X2909Y2189D02*
X2977Y2189D01*
X3009Y2189D02*
X3077Y2189D01*
X309Y2188D02*
X378Y2188D01*
X409Y2188D02*
X478Y2188D01*
X509Y2188D02*
X578Y2188D01*
X609Y2188D02*
X678Y2188D01*
X709Y2188D02*
X778Y2188D01*
X809Y2188D02*
X878Y2188D01*
X909Y2188D02*
X978Y2188D01*
X1009Y2188D02*
X1078Y2188D01*
X1109Y2188D02*
X1178Y2188D01*
X2208Y2188D02*
X2278Y2188D01*
X2308Y2188D02*
X2378Y2188D01*
X2408Y2188D02*
X2478Y2188D01*
X2508Y2188D02*
X2578Y2188D01*
X2608Y2188D02*
X2678Y2188D01*
X2708Y2188D02*
X2778Y2188D01*
X2808Y2188D02*
X2878Y2188D01*
X2908Y2188D02*
X2978Y2188D01*
X3008Y2188D02*
X3078Y2188D01*
X308Y2187D02*
X378Y2187D01*
X408Y2187D02*
X478Y2187D01*
X508Y2187D02*
X578Y2187D01*
X608Y2187D02*
X678Y2187D01*
X708Y2187D02*
X778Y2187D01*
X808Y2187D02*
X878Y2187D01*
X908Y2187D02*
X978Y2187D01*
X1008Y2187D02*
X1078Y2187D01*
X1108Y2187D02*
X1178Y2187D01*
X2208Y2187D02*
X2278Y2187D01*
X2308Y2187D02*
X2378Y2187D01*
X2408Y2187D02*
X2478Y2187D01*
X2508Y2187D02*
X2578Y2187D01*
X2608Y2187D02*
X2678Y2187D01*
X2708Y2187D02*
X2778Y2187D01*
X2808Y2187D02*
X2878Y2187D01*
X2908Y2187D02*
X2978Y2187D01*
X3008Y2187D02*
X3078Y2187D01*
X308Y2186D02*
X379Y2186D01*
X408Y2186D02*
X479Y2186D01*
X508Y2186D02*
X579Y2186D01*
X608Y2186D02*
X679Y2186D01*
X708Y2186D02*
X779Y2186D01*
X808Y2186D02*
X879Y2186D01*
X908Y2186D02*
X979Y2186D01*
X1008Y2186D02*
X1079Y2186D01*
X1108Y2186D02*
X1179Y2186D01*
X2207Y2186D02*
X2279Y2186D01*
X2307Y2186D02*
X2379Y2186D01*
X2407Y2186D02*
X2479Y2186D01*
X2507Y2186D02*
X2579Y2186D01*
X2607Y2186D02*
X2679Y2186D01*
X2707Y2186D02*
X2779Y2186D01*
X2807Y2186D02*
X2879Y2186D01*
X2907Y2186D02*
X2979Y2186D01*
X3007Y2186D02*
X3079Y2186D01*
X307Y2185D02*
X379Y2185D01*
X407Y2185D02*
X479Y2185D01*
X507Y2185D02*
X579Y2185D01*
X607Y2185D02*
X679Y2185D01*
X707Y2185D02*
X779Y2185D01*
X807Y2185D02*
X879Y2185D01*
X907Y2185D02*
X979Y2185D01*
X1007Y2185D02*
X1079Y2185D01*
X1107Y2185D02*
X1179Y2185D01*
X2207Y2185D02*
X2279Y2185D01*
X2307Y2185D02*
X2379Y2185D01*
X2407Y2185D02*
X2479Y2185D01*
X2507Y2185D02*
X2579Y2185D01*
X2607Y2185D02*
X2679Y2185D01*
X2707Y2185D02*
X2779Y2185D01*
X2807Y2185D02*
X2879Y2185D01*
X2907Y2185D02*
X2979Y2185D01*
X3007Y2185D02*
X3079Y2185D01*
X307Y2184D02*
X380Y2184D01*
X407Y2184D02*
X480Y2184D01*
X507Y2184D02*
X580Y2184D01*
X607Y2184D02*
X680Y2184D01*
X707Y2184D02*
X780Y2184D01*
X807Y2184D02*
X880Y2184D01*
X907Y2184D02*
X980Y2184D01*
X1007Y2184D02*
X1080Y2184D01*
X1107Y2184D02*
X1180Y2184D01*
X2206Y2184D02*
X2280Y2184D01*
X2306Y2184D02*
X2380Y2184D01*
X2406Y2184D02*
X2480Y2184D01*
X2506Y2184D02*
X2580Y2184D01*
X2606Y2184D02*
X2680Y2184D01*
X2706Y2184D02*
X2780Y2184D01*
X2806Y2184D02*
X2879Y2184D01*
X2906Y2184D02*
X2979Y2184D01*
X3006Y2184D02*
X3079Y2184D01*
X306Y2183D02*
X380Y2183D01*
X406Y2183D02*
X480Y2183D01*
X506Y2183D02*
X580Y2183D01*
X606Y2183D02*
X680Y2183D01*
X706Y2183D02*
X780Y2183D01*
X806Y2183D02*
X880Y2183D01*
X906Y2183D02*
X980Y2183D01*
X1006Y2183D02*
X1080Y2183D01*
X1106Y2183D02*
X1180Y2183D01*
X2206Y2183D02*
X2280Y2183D01*
X2306Y2183D02*
X2380Y2183D01*
X2406Y2183D02*
X2480Y2183D01*
X2506Y2183D02*
X2580Y2183D01*
X2606Y2183D02*
X2680Y2183D01*
X2706Y2183D02*
X2780Y2183D01*
X2806Y2183D02*
X2880Y2183D01*
X2906Y2183D02*
X2980Y2183D01*
X3006Y2183D02*
X3080Y2183D01*
X306Y2182D02*
X381Y2182D01*
X406Y2182D02*
X481Y2182D01*
X506Y2182D02*
X581Y2182D01*
X606Y2182D02*
X681Y2182D01*
X706Y2182D02*
X781Y2182D01*
X806Y2182D02*
X881Y2182D01*
X906Y2182D02*
X981Y2182D01*
X1006Y2182D02*
X1081Y2182D01*
X1106Y2182D02*
X1181Y2182D01*
X2206Y2182D02*
X2280Y2182D01*
X2306Y2182D02*
X2380Y2182D01*
X2406Y2182D02*
X2480Y2182D01*
X2506Y2182D02*
X2580Y2182D01*
X2606Y2182D02*
X2680Y2182D01*
X2706Y2182D02*
X2780Y2182D01*
X2806Y2182D02*
X2880Y2182D01*
X2906Y2182D02*
X2980Y2182D01*
X3006Y2182D02*
X3080Y2182D01*
X306Y2181D02*
X381Y2181D01*
X406Y2181D02*
X481Y2181D01*
X506Y2181D02*
X581Y2181D01*
X606Y2181D02*
X681Y2181D01*
X706Y2181D02*
X781Y2181D01*
X806Y2181D02*
X881Y2181D01*
X906Y2181D02*
X981Y2181D01*
X1006Y2181D02*
X1081Y2181D01*
X1105Y2181D02*
X1181Y2181D01*
X2205Y2181D02*
X2281Y2181D01*
X2305Y2181D02*
X2381Y2181D01*
X2405Y2181D02*
X2481Y2181D01*
X2505Y2181D02*
X2581Y2181D01*
X2605Y2181D02*
X2681Y2181D01*
X2705Y2181D02*
X2781Y2181D01*
X2805Y2181D02*
X2881Y2181D01*
X2905Y2181D02*
X2981Y2181D01*
X3005Y2181D02*
X3081Y2181D01*
X305Y2180D02*
X381Y2180D01*
X405Y2180D02*
X481Y2180D01*
X505Y2180D02*
X581Y2180D01*
X605Y2180D02*
X681Y2180D01*
X705Y2180D02*
X781Y2180D01*
X805Y2180D02*
X881Y2180D01*
X905Y2180D02*
X981Y2180D01*
X1005Y2180D02*
X1081Y2180D01*
X1105Y2180D02*
X1181Y2180D01*
X2205Y2180D02*
X2281Y2180D01*
X2305Y2180D02*
X2381Y2180D01*
X2405Y2180D02*
X2481Y2180D01*
X2505Y2180D02*
X2581Y2180D01*
X2605Y2180D02*
X2681Y2180D01*
X2705Y2180D02*
X2781Y2180D01*
X2805Y2180D02*
X2881Y2180D01*
X2905Y2180D02*
X2981Y2180D01*
X3005Y2180D02*
X3081Y2180D01*
X305Y2179D02*
X382Y2179D01*
X405Y2179D02*
X482Y2179D01*
X505Y2179D02*
X582Y2179D01*
X605Y2179D02*
X682Y2179D01*
X705Y2179D02*
X782Y2179D01*
X805Y2179D02*
X882Y2179D01*
X905Y2179D02*
X982Y2179D01*
X1005Y2179D02*
X1082Y2179D01*
X1105Y2179D02*
X1182Y2179D01*
X2205Y2179D02*
X2281Y2179D01*
X2305Y2179D02*
X2381Y2179D01*
X2405Y2179D02*
X2481Y2179D01*
X2505Y2179D02*
X2581Y2179D01*
X2605Y2179D02*
X2681Y2179D01*
X2705Y2179D02*
X2781Y2179D01*
X2805Y2179D02*
X2881Y2179D01*
X2905Y2179D02*
X2981Y2179D01*
X3005Y2179D02*
X3081Y2179D01*
X305Y2178D02*
X382Y2178D01*
X405Y2178D02*
X482Y2178D01*
X505Y2178D02*
X582Y2178D01*
X605Y2178D02*
X682Y2178D01*
X705Y2178D02*
X782Y2178D01*
X805Y2178D02*
X882Y2178D01*
X905Y2178D02*
X982Y2178D01*
X1005Y2178D02*
X1082Y2178D01*
X1105Y2178D02*
X1182Y2178D01*
X2204Y2178D02*
X2282Y2178D01*
X2304Y2178D02*
X2382Y2178D01*
X2404Y2178D02*
X2482Y2178D01*
X2504Y2178D02*
X2582Y2178D01*
X2604Y2178D02*
X2682Y2178D01*
X2704Y2178D02*
X2782Y2178D01*
X2804Y2178D02*
X2882Y2178D01*
X2904Y2178D02*
X2982Y2178D01*
X3004Y2178D02*
X3081Y2178D01*
X305Y2177D02*
X382Y2177D01*
X405Y2177D02*
X482Y2177D01*
X505Y2177D02*
X582Y2177D01*
X605Y2177D02*
X682Y2177D01*
X705Y2177D02*
X782Y2177D01*
X804Y2177D02*
X882Y2177D01*
X904Y2177D02*
X982Y2177D01*
X1004Y2177D02*
X1082Y2177D01*
X1104Y2177D02*
X1182Y2177D01*
X2204Y2177D02*
X2282Y2177D01*
X2304Y2177D02*
X2382Y2177D01*
X2404Y2177D02*
X2482Y2177D01*
X2504Y2177D02*
X2582Y2177D01*
X2604Y2177D02*
X2682Y2177D01*
X2704Y2177D02*
X2782Y2177D01*
X2804Y2177D02*
X2882Y2177D01*
X2904Y2177D02*
X2982Y2177D01*
X3004Y2177D02*
X3082Y2177D01*
X304Y2176D02*
X382Y2176D01*
X404Y2176D02*
X482Y2176D01*
X504Y2176D02*
X582Y2176D01*
X604Y2176D02*
X682Y2176D01*
X704Y2176D02*
X782Y2176D01*
X804Y2176D02*
X882Y2176D01*
X904Y2176D02*
X982Y2176D01*
X1004Y2176D02*
X1082Y2176D01*
X1104Y2176D02*
X1182Y2176D01*
X2204Y2176D02*
X2282Y2176D01*
X2304Y2176D02*
X2382Y2176D01*
X2404Y2176D02*
X2482Y2176D01*
X2504Y2176D02*
X2582Y2176D01*
X2604Y2176D02*
X2682Y2176D01*
X2704Y2176D02*
X2782Y2176D01*
X2804Y2176D02*
X2882Y2176D01*
X2904Y2176D02*
X2982Y2176D01*
X3004Y2176D02*
X3082Y2176D01*
X304Y2175D02*
X382Y2175D01*
X404Y2175D02*
X482Y2175D01*
X504Y2175D02*
X582Y2175D01*
X604Y2175D02*
X682Y2175D01*
X704Y2175D02*
X782Y2175D01*
X804Y2175D02*
X882Y2175D01*
X904Y2175D02*
X982Y2175D01*
X1004Y2175D02*
X1082Y2175D01*
X1104Y2175D02*
X1182Y2175D01*
X2204Y2175D02*
X2282Y2175D01*
X2304Y2175D02*
X2382Y2175D01*
X2404Y2175D02*
X2482Y2175D01*
X2504Y2175D02*
X2582Y2175D01*
X2604Y2175D02*
X2682Y2175D01*
X2704Y2175D02*
X2782Y2175D01*
X2804Y2175D02*
X2882Y2175D01*
X2904Y2175D02*
X2982Y2175D01*
X3004Y2175D02*
X3082Y2175D01*
X304Y2174D02*
X383Y2174D01*
X404Y2174D02*
X483Y2174D01*
X504Y2174D02*
X583Y2174D01*
X604Y2174D02*
X683Y2174D01*
X704Y2174D02*
X783Y2174D01*
X804Y2174D02*
X883Y2174D01*
X904Y2174D02*
X983Y2174D01*
X1004Y2174D02*
X1083Y2174D01*
X1104Y2174D02*
X1182Y2174D01*
X2204Y2174D02*
X2282Y2174D01*
X2304Y2174D02*
X2382Y2174D01*
X2404Y2174D02*
X2482Y2174D01*
X2504Y2174D02*
X2582Y2174D01*
X2604Y2174D02*
X2682Y2174D01*
X2704Y2174D02*
X2782Y2174D01*
X2804Y2174D02*
X2882Y2174D01*
X2904Y2174D02*
X2982Y2174D01*
X3004Y2174D02*
X3082Y2174D01*
X304Y2173D02*
X383Y2173D01*
X404Y2173D02*
X483Y2173D01*
X504Y2173D02*
X583Y2173D01*
X604Y2173D02*
X683Y2173D01*
X704Y2173D02*
X783Y2173D01*
X804Y2173D02*
X883Y2173D01*
X904Y2173D02*
X983Y2173D01*
X1004Y2173D02*
X1083Y2173D01*
X1104Y2173D02*
X1183Y2173D01*
X2204Y2173D02*
X2282Y2173D01*
X2304Y2173D02*
X2382Y2173D01*
X2404Y2173D02*
X2482Y2173D01*
X2504Y2173D02*
X2582Y2173D01*
X2604Y2173D02*
X2682Y2173D01*
X2704Y2173D02*
X2782Y2173D01*
X2804Y2173D02*
X2882Y2173D01*
X2904Y2173D02*
X2982Y2173D01*
X3004Y2173D02*
X3082Y2173D01*
X304Y2172D02*
X383Y2172D01*
X404Y2172D02*
X483Y2172D01*
X504Y2172D02*
X583Y2172D01*
X604Y2172D02*
X683Y2172D01*
X704Y2172D02*
X783Y2172D01*
X804Y2172D02*
X883Y2172D01*
X904Y2172D02*
X983Y2172D01*
X1004Y2172D02*
X1083Y2172D01*
X1104Y2172D02*
X1183Y2172D01*
X2204Y2172D02*
X2282Y2172D01*
X2304Y2172D02*
X2382Y2172D01*
X2404Y2172D02*
X2482Y2172D01*
X2504Y2172D02*
X2582Y2172D01*
X2604Y2172D02*
X2682Y2172D01*
X2704Y2172D02*
X2782Y2172D01*
X2804Y2172D02*
X2882Y2172D01*
X2904Y2172D02*
X2982Y2172D01*
X3003Y2172D02*
X3082Y2172D01*
X304Y2171D02*
X383Y2171D01*
X404Y2171D02*
X483Y2171D01*
X504Y2171D02*
X583Y2171D01*
X604Y2171D02*
X683Y2171D01*
X704Y2171D02*
X783Y2171D01*
X804Y2171D02*
X883Y2171D01*
X904Y2171D02*
X983Y2171D01*
X1004Y2171D02*
X1083Y2171D01*
X1104Y2171D02*
X1183Y2171D01*
X2204Y2171D02*
X2283Y2171D01*
X2304Y2171D02*
X2382Y2171D01*
X2404Y2171D02*
X2482Y2171D01*
X2504Y2171D02*
X2582Y2171D01*
X2603Y2171D02*
X2682Y2171D01*
X2703Y2171D02*
X2782Y2171D01*
X2803Y2171D02*
X2882Y2171D01*
X2903Y2171D02*
X2982Y2171D01*
X3003Y2171D02*
X3082Y2171D01*
X304Y2170D02*
X383Y2170D01*
X404Y2170D02*
X483Y2170D01*
X504Y2170D02*
X583Y2170D01*
X604Y2170D02*
X683Y2170D01*
X704Y2170D02*
X783Y2170D01*
X804Y2170D02*
X883Y2170D01*
X904Y2170D02*
X983Y2170D01*
X1004Y2170D02*
X1083Y2170D01*
X1104Y2170D02*
X1183Y2170D01*
X2204Y2170D02*
X2282Y2170D01*
X2304Y2170D02*
X2382Y2170D01*
X2404Y2170D02*
X2482Y2170D01*
X2504Y2170D02*
X2582Y2170D01*
X2603Y2170D02*
X2682Y2170D01*
X2703Y2170D02*
X2782Y2170D01*
X2803Y2170D02*
X2882Y2170D01*
X2903Y2170D02*
X2982Y2170D01*
X3003Y2170D02*
X3082Y2170D01*
X304Y2169D02*
X383Y2169D01*
X404Y2169D02*
X483Y2169D01*
X504Y2169D02*
X583Y2169D01*
X604Y2169D02*
X683Y2169D01*
X704Y2169D02*
X783Y2169D01*
X804Y2169D02*
X883Y2169D01*
X904Y2169D02*
X983Y2169D01*
X1004Y2169D02*
X1083Y2169D01*
X1104Y2169D02*
X1183Y2169D01*
X2204Y2169D02*
X2282Y2169D01*
X2304Y2169D02*
X2382Y2169D01*
X2404Y2169D02*
X2482Y2169D01*
X2504Y2169D02*
X2582Y2169D01*
X2604Y2169D02*
X2682Y2169D01*
X2704Y2169D02*
X2782Y2169D01*
X2804Y2169D02*
X2882Y2169D01*
X2904Y2169D02*
X2982Y2169D01*
X3003Y2169D02*
X3082Y2169D01*
X304Y2168D02*
X383Y2168D01*
X404Y2168D02*
X483Y2168D01*
X504Y2168D02*
X583Y2168D01*
X604Y2168D02*
X683Y2168D01*
X704Y2168D02*
X783Y2168D01*
X804Y2168D02*
X883Y2168D01*
X904Y2168D02*
X983Y2168D01*
X1004Y2168D02*
X1083Y2168D01*
X1104Y2168D02*
X1183Y2168D01*
X2204Y2168D02*
X2282Y2168D01*
X2304Y2168D02*
X2382Y2168D01*
X2404Y2168D02*
X2482Y2168D01*
X2504Y2168D02*
X2582Y2168D01*
X2604Y2168D02*
X2682Y2168D01*
X2704Y2168D02*
X2782Y2168D01*
X2804Y2168D02*
X2882Y2168D01*
X2904Y2168D02*
X2982Y2168D01*
X3004Y2168D02*
X3082Y2168D01*
X304Y2167D02*
X383Y2167D01*
X404Y2167D02*
X483Y2167D01*
X504Y2167D02*
X583Y2167D01*
X604Y2167D02*
X683Y2167D01*
X704Y2167D02*
X783Y2167D01*
X804Y2167D02*
X883Y2167D01*
X904Y2167D02*
X983Y2167D01*
X1004Y2167D02*
X1083Y2167D01*
X1104Y2167D02*
X1182Y2167D01*
X2204Y2167D02*
X2282Y2167D01*
X2304Y2167D02*
X2382Y2167D01*
X2404Y2167D02*
X2482Y2167D01*
X2504Y2167D02*
X2582Y2167D01*
X2604Y2167D02*
X2682Y2167D01*
X2704Y2167D02*
X2782Y2167D01*
X2804Y2167D02*
X2882Y2167D01*
X2904Y2167D02*
X2982Y2167D01*
X3004Y2167D02*
X3082Y2167D01*
X304Y2166D02*
X382Y2166D01*
X404Y2166D02*
X482Y2166D01*
X504Y2166D02*
X582Y2166D01*
X604Y2166D02*
X682Y2166D01*
X704Y2166D02*
X782Y2166D01*
X804Y2166D02*
X882Y2166D01*
X904Y2166D02*
X982Y2166D01*
X1004Y2166D02*
X1082Y2166D01*
X1104Y2166D02*
X1182Y2166D01*
X2204Y2166D02*
X2282Y2166D01*
X2304Y2166D02*
X2382Y2166D01*
X2404Y2166D02*
X2482Y2166D01*
X2504Y2166D02*
X2582Y2166D01*
X2604Y2166D02*
X2682Y2166D01*
X2704Y2166D02*
X2782Y2166D01*
X2804Y2166D02*
X2882Y2166D01*
X2904Y2166D02*
X2982Y2166D01*
X3004Y2166D02*
X3082Y2166D01*
X304Y2165D02*
X382Y2165D01*
X404Y2165D02*
X482Y2165D01*
X504Y2165D02*
X582Y2165D01*
X604Y2165D02*
X682Y2165D01*
X704Y2165D02*
X782Y2165D01*
X804Y2165D02*
X882Y2165D01*
X904Y2165D02*
X982Y2165D01*
X1004Y2165D02*
X1082Y2165D01*
X1104Y2165D02*
X1182Y2165D01*
X2204Y2165D02*
X2282Y2165D01*
X2304Y2165D02*
X2382Y2165D01*
X2404Y2165D02*
X2482Y2165D01*
X2504Y2165D02*
X2582Y2165D01*
X2604Y2165D02*
X2682Y2165D01*
X2704Y2165D02*
X2782Y2165D01*
X2804Y2165D02*
X2882Y2165D01*
X2904Y2165D02*
X2982Y2165D01*
X3004Y2165D02*
X3082Y2165D01*
X305Y2164D02*
X382Y2164D01*
X405Y2164D02*
X482Y2164D01*
X505Y2164D02*
X582Y2164D01*
X605Y2164D02*
X682Y2164D01*
X705Y2164D02*
X782Y2164D01*
X804Y2164D02*
X882Y2164D01*
X904Y2164D02*
X982Y2164D01*
X1004Y2164D02*
X1082Y2164D01*
X1104Y2164D02*
X1182Y2164D01*
X2204Y2164D02*
X2282Y2164D01*
X2304Y2164D02*
X2382Y2164D01*
X2404Y2164D02*
X2482Y2164D01*
X2504Y2164D02*
X2582Y2164D01*
X2604Y2164D02*
X2682Y2164D01*
X2704Y2164D02*
X2782Y2164D01*
X2804Y2164D02*
X2882Y2164D01*
X2904Y2164D02*
X2982Y2164D01*
X3004Y2164D02*
X3082Y2164D01*
X305Y2163D02*
X382Y2163D01*
X405Y2163D02*
X482Y2163D01*
X505Y2163D02*
X582Y2163D01*
X605Y2163D02*
X682Y2163D01*
X705Y2163D02*
X782Y2163D01*
X805Y2163D02*
X882Y2163D01*
X905Y2163D02*
X982Y2163D01*
X1005Y2163D02*
X1082Y2163D01*
X1105Y2163D02*
X1182Y2163D01*
X2204Y2163D02*
X2282Y2163D01*
X2304Y2163D02*
X2382Y2163D01*
X2404Y2163D02*
X2482Y2163D01*
X2504Y2163D02*
X2582Y2163D01*
X2604Y2163D02*
X2682Y2163D01*
X2704Y2163D02*
X2782Y2163D01*
X2804Y2163D02*
X2882Y2163D01*
X2904Y2163D02*
X2981Y2163D01*
X3004Y2163D02*
X3081Y2163D01*
X305Y2162D02*
X382Y2162D01*
X405Y2162D02*
X482Y2162D01*
X505Y2162D02*
X582Y2162D01*
X605Y2162D02*
X682Y2162D01*
X705Y2162D02*
X782Y2162D01*
X805Y2162D02*
X882Y2162D01*
X905Y2162D02*
X982Y2162D01*
X1005Y2162D02*
X1082Y2162D01*
X1105Y2162D02*
X1182Y2162D01*
X2205Y2162D02*
X2281Y2162D01*
X2305Y2162D02*
X2381Y2162D01*
X2405Y2162D02*
X2481Y2162D01*
X2505Y2162D02*
X2581Y2162D01*
X2605Y2162D02*
X2681Y2162D01*
X2705Y2162D02*
X2781Y2162D01*
X2805Y2162D02*
X2881Y2162D01*
X2905Y2162D02*
X2981Y2162D01*
X3005Y2162D02*
X3081Y2162D01*
X305Y2161D02*
X381Y2161D01*
X405Y2161D02*
X481Y2161D01*
X505Y2161D02*
X581Y2161D01*
X605Y2161D02*
X681Y2161D01*
X705Y2161D02*
X781Y2161D01*
X805Y2161D02*
X881Y2161D01*
X905Y2161D02*
X981Y2161D01*
X1005Y2161D02*
X1081Y2161D01*
X1105Y2161D02*
X1181Y2161D01*
X2205Y2161D02*
X2281Y2161D01*
X2305Y2161D02*
X2381Y2161D01*
X2405Y2161D02*
X2481Y2161D01*
X2505Y2161D02*
X2581Y2161D01*
X2605Y2161D02*
X2681Y2161D01*
X2705Y2161D02*
X2781Y2161D01*
X2805Y2161D02*
X2881Y2161D01*
X2905Y2161D02*
X2981Y2161D01*
X3005Y2161D02*
X3081Y2161D01*
X306Y2160D02*
X381Y2160D01*
X406Y2160D02*
X481Y2160D01*
X506Y2160D02*
X581Y2160D01*
X606Y2160D02*
X681Y2160D01*
X706Y2160D02*
X781Y2160D01*
X806Y2160D02*
X881Y2160D01*
X906Y2160D02*
X981Y2160D01*
X1006Y2160D02*
X1081Y2160D01*
X1106Y2160D02*
X1181Y2160D01*
X2205Y2160D02*
X2281Y2160D01*
X2305Y2160D02*
X2381Y2160D01*
X2405Y2160D02*
X2481Y2160D01*
X2505Y2160D02*
X2581Y2160D01*
X2605Y2160D02*
X2681Y2160D01*
X2705Y2160D02*
X2781Y2160D01*
X2805Y2160D02*
X2881Y2160D01*
X2905Y2160D02*
X2981Y2160D01*
X3005Y2160D02*
X3081Y2160D01*
X306Y2159D02*
X381Y2159D01*
X406Y2159D02*
X481Y2159D01*
X506Y2159D02*
X581Y2159D01*
X606Y2159D02*
X681Y2159D01*
X706Y2159D02*
X781Y2159D01*
X806Y2159D02*
X881Y2159D01*
X906Y2159D02*
X981Y2159D01*
X1006Y2159D02*
X1081Y2159D01*
X1106Y2159D02*
X1181Y2159D01*
X2206Y2159D02*
X2280Y2159D01*
X2306Y2159D02*
X2380Y2159D01*
X2406Y2159D02*
X2480Y2159D01*
X2506Y2159D02*
X2580Y2159D01*
X2606Y2159D02*
X2680Y2159D01*
X2706Y2159D02*
X2780Y2159D01*
X2806Y2159D02*
X2880Y2159D01*
X2906Y2159D02*
X2980Y2159D01*
X3006Y2159D02*
X3080Y2159D01*
X306Y2158D02*
X380Y2158D01*
X406Y2158D02*
X480Y2158D01*
X506Y2158D02*
X580Y2158D01*
X606Y2158D02*
X680Y2158D01*
X706Y2158D02*
X780Y2158D01*
X806Y2158D02*
X880Y2158D01*
X906Y2158D02*
X980Y2158D01*
X1006Y2158D02*
X1080Y2158D01*
X1106Y2158D02*
X1180Y2158D01*
X2206Y2158D02*
X2280Y2158D01*
X2306Y2158D02*
X2380Y2158D01*
X2406Y2158D02*
X2480Y2158D01*
X2506Y2158D02*
X2580Y2158D01*
X2606Y2158D02*
X2680Y2158D01*
X2706Y2158D02*
X2780Y2158D01*
X2806Y2158D02*
X2880Y2158D01*
X2906Y2158D02*
X2980Y2158D01*
X3006Y2158D02*
X3080Y2158D01*
X307Y2157D02*
X380Y2157D01*
X407Y2157D02*
X480Y2157D01*
X507Y2157D02*
X580Y2157D01*
X607Y2157D02*
X680Y2157D01*
X707Y2157D02*
X780Y2157D01*
X807Y2157D02*
X880Y2157D01*
X907Y2157D02*
X980Y2157D01*
X1007Y2157D02*
X1080Y2157D01*
X1107Y2157D02*
X1180Y2157D01*
X2206Y2157D02*
X2280Y2157D01*
X2306Y2157D02*
X2380Y2157D01*
X2406Y2157D02*
X2480Y2157D01*
X2506Y2157D02*
X2580Y2157D01*
X2606Y2157D02*
X2680Y2157D01*
X2706Y2157D02*
X2779Y2157D01*
X2806Y2157D02*
X2879Y2157D01*
X2906Y2157D02*
X2979Y2157D01*
X3006Y2157D02*
X3079Y2157D01*
X307Y2156D02*
X379Y2156D01*
X407Y2156D02*
X479Y2156D01*
X507Y2156D02*
X579Y2156D01*
X607Y2156D02*
X679Y2156D01*
X707Y2156D02*
X779Y2156D01*
X807Y2156D02*
X879Y2156D01*
X907Y2156D02*
X979Y2156D01*
X1007Y2156D02*
X1079Y2156D01*
X1107Y2156D02*
X1179Y2156D01*
X2207Y2156D02*
X2279Y2156D01*
X2307Y2156D02*
X2379Y2156D01*
X2407Y2156D02*
X2479Y2156D01*
X2507Y2156D02*
X2579Y2156D01*
X2607Y2156D02*
X2679Y2156D01*
X2707Y2156D02*
X2779Y2156D01*
X2807Y2156D02*
X2879Y2156D01*
X2907Y2156D02*
X2979Y2156D01*
X3007Y2156D02*
X3079Y2156D01*
X308Y2155D02*
X379Y2155D01*
X408Y2155D02*
X479Y2155D01*
X508Y2155D02*
X579Y2155D01*
X608Y2155D02*
X679Y2155D01*
X708Y2155D02*
X779Y2155D01*
X808Y2155D02*
X879Y2155D01*
X908Y2155D02*
X979Y2155D01*
X1008Y2155D02*
X1079Y2155D01*
X1108Y2155D02*
X1179Y2155D01*
X2207Y2155D02*
X2279Y2155D01*
X2307Y2155D02*
X2379Y2155D01*
X2407Y2155D02*
X2479Y2155D01*
X2507Y2155D02*
X2579Y2155D01*
X2607Y2155D02*
X2679Y2155D01*
X2707Y2155D02*
X2779Y2155D01*
X2807Y2155D02*
X2879Y2155D01*
X2907Y2155D02*
X2979Y2155D01*
X3007Y2155D02*
X3079Y2155D01*
X308Y2154D02*
X378Y2154D01*
X408Y2154D02*
X478Y2154D01*
X508Y2154D02*
X578Y2154D01*
X608Y2154D02*
X678Y2154D01*
X708Y2154D02*
X778Y2154D01*
X808Y2154D02*
X878Y2154D01*
X908Y2154D02*
X978Y2154D01*
X1008Y2154D02*
X1078Y2154D01*
X1108Y2154D02*
X1178Y2154D01*
X2208Y2154D02*
X2278Y2154D01*
X2308Y2154D02*
X2378Y2154D01*
X2408Y2154D02*
X2478Y2154D01*
X2508Y2154D02*
X2578Y2154D01*
X2608Y2154D02*
X2678Y2154D01*
X2708Y2154D02*
X2778Y2154D01*
X2808Y2154D02*
X2878Y2154D01*
X2908Y2154D02*
X2978Y2154D01*
X3008Y2154D02*
X3078Y2154D01*
X309Y2153D02*
X378Y2153D01*
X409Y2153D02*
X478Y2153D01*
X509Y2153D02*
X578Y2153D01*
X609Y2153D02*
X678Y2153D01*
X709Y2153D02*
X778Y2153D01*
X809Y2153D02*
X878Y2153D01*
X909Y2153D02*
X978Y2153D01*
X1009Y2153D02*
X1078Y2153D01*
X1109Y2153D02*
X1178Y2153D01*
X2208Y2153D02*
X2278Y2153D01*
X2308Y2153D02*
X2378Y2153D01*
X2408Y2153D02*
X2478Y2153D01*
X2508Y2153D02*
X2578Y2153D01*
X2608Y2153D02*
X2678Y2153D01*
X2708Y2153D02*
X2778Y2153D01*
X2808Y2153D02*
X2878Y2153D01*
X2908Y2153D02*
X2977Y2153D01*
X3008Y2153D02*
X3077Y2153D01*
X309Y2152D02*
X377Y2152D01*
X409Y2152D02*
X477Y2152D01*
X509Y2152D02*
X577Y2152D01*
X609Y2152D02*
X677Y2152D01*
X709Y2152D02*
X777Y2152D01*
X809Y2152D02*
X877Y2152D01*
X909Y2152D02*
X977Y2152D01*
X1009Y2152D02*
X1077Y2152D01*
X1109Y2152D02*
X1177Y2152D01*
X2209Y2152D02*
X2277Y2152D01*
X2309Y2152D02*
X2377Y2152D01*
X2409Y2152D02*
X2477Y2152D01*
X2509Y2152D02*
X2577Y2152D01*
X2609Y2152D02*
X2677Y2152D01*
X2709Y2152D02*
X2777Y2152D01*
X2809Y2152D02*
X2877Y2152D01*
X2909Y2152D02*
X2977Y2152D01*
X3009Y2152D02*
X3077Y2152D01*
X310Y2151D02*
X377Y2151D01*
X410Y2151D02*
X477Y2151D01*
X510Y2151D02*
X577Y2151D01*
X610Y2151D02*
X677Y2151D01*
X710Y2151D02*
X777Y2151D01*
X810Y2151D02*
X877Y2151D01*
X910Y2151D02*
X977Y2151D01*
X1010Y2151D02*
X1077Y2151D01*
X1110Y2151D02*
X1177Y2151D01*
X2210Y2151D02*
X2276Y2151D01*
X2310Y2151D02*
X2376Y2151D01*
X2410Y2151D02*
X2476Y2151D01*
X2510Y2151D02*
X2576Y2151D01*
X2610Y2151D02*
X2676Y2151D01*
X2710Y2151D02*
X2776Y2151D01*
X2810Y2151D02*
X2876Y2151D01*
X2910Y2151D02*
X2976Y2151D01*
X3010Y2151D02*
X3076Y2151D01*
X311Y2150D02*
X376Y2150D01*
X411Y2150D02*
X476Y2150D01*
X511Y2150D02*
X576Y2150D01*
X611Y2150D02*
X676Y2150D01*
X711Y2150D02*
X776Y2150D01*
X811Y2150D02*
X876Y2150D01*
X911Y2150D02*
X976Y2150D01*
X1011Y2150D02*
X1076Y2150D01*
X1110Y2150D02*
X1176Y2150D01*
X2210Y2150D02*
X2276Y2150D01*
X2310Y2150D02*
X2376Y2150D01*
X2410Y2150D02*
X2476Y2150D01*
X2510Y2150D02*
X2576Y2150D01*
X2610Y2150D02*
X2676Y2150D01*
X2710Y2150D02*
X2776Y2150D01*
X2810Y2150D02*
X2876Y2150D01*
X2910Y2150D02*
X2976Y2150D01*
X3010Y2150D02*
X3076Y2150D01*
X311Y2149D02*
X375Y2149D01*
X411Y2149D02*
X475Y2149D01*
X511Y2149D02*
X575Y2149D01*
X611Y2149D02*
X675Y2149D01*
X711Y2149D02*
X775Y2149D01*
X811Y2149D02*
X875Y2149D01*
X911Y2149D02*
X975Y2149D01*
X1011Y2149D02*
X1075Y2149D01*
X1111Y2149D02*
X1175Y2149D01*
X2211Y2149D02*
X2275Y2149D01*
X2311Y2149D02*
X2375Y2149D01*
X2411Y2149D02*
X2475Y2149D01*
X2511Y2149D02*
X2575Y2149D01*
X2611Y2149D02*
X2675Y2149D01*
X2711Y2149D02*
X2775Y2149D01*
X2811Y2149D02*
X2875Y2149D01*
X2911Y2149D02*
X2975Y2149D01*
X3011Y2149D02*
X3075Y2149D01*
X312Y2148D02*
X375Y2148D01*
X412Y2148D02*
X475Y2148D01*
X512Y2148D02*
X575Y2148D01*
X612Y2148D02*
X675Y2148D01*
X712Y2148D02*
X775Y2148D01*
X812Y2148D02*
X875Y2148D01*
X912Y2148D02*
X975Y2148D01*
X1012Y2148D02*
X1075Y2148D01*
X1112Y2148D02*
X1174Y2148D01*
X2212Y2148D02*
X2274Y2148D01*
X2312Y2148D02*
X2374Y2148D01*
X2412Y2148D02*
X2474Y2148D01*
X2512Y2148D02*
X2574Y2148D01*
X2612Y2148D02*
X2674Y2148D01*
X2712Y2148D02*
X2774Y2148D01*
X2812Y2148D02*
X2874Y2148D01*
X2912Y2148D02*
X2974Y2148D01*
X3012Y2148D02*
X3074Y2148D01*
X313Y2147D02*
X374Y2147D01*
X413Y2147D02*
X474Y2147D01*
X513Y2147D02*
X574Y2147D01*
X613Y2147D02*
X674Y2147D01*
X713Y2147D02*
X774Y2147D01*
X813Y2147D02*
X874Y2147D01*
X913Y2147D02*
X974Y2147D01*
X1013Y2147D02*
X1074Y2147D01*
X1113Y2147D02*
X1174Y2147D01*
X2213Y2147D02*
X2274Y2147D01*
X2313Y2147D02*
X2374Y2147D01*
X2412Y2147D02*
X2474Y2147D01*
X2512Y2147D02*
X2573Y2147D01*
X2612Y2147D02*
X2673Y2147D01*
X2712Y2147D02*
X2773Y2147D01*
X2812Y2147D02*
X2873Y2147D01*
X2912Y2147D02*
X2973Y2147D01*
X3012Y2147D02*
X3073Y2147D01*
X314Y2146D02*
X373Y2146D01*
X414Y2146D02*
X473Y2146D01*
X514Y2146D02*
X573Y2146D01*
X614Y2146D02*
X673Y2146D01*
X714Y2146D02*
X773Y2146D01*
X814Y2146D02*
X873Y2146D01*
X914Y2146D02*
X973Y2146D01*
X1014Y2146D02*
X1073Y2146D01*
X1113Y2146D02*
X1173Y2146D01*
X2213Y2146D02*
X2273Y2146D01*
X2313Y2146D02*
X2373Y2146D01*
X2413Y2146D02*
X2473Y2146D01*
X2513Y2146D02*
X2573Y2146D01*
X2613Y2146D02*
X2673Y2146D01*
X2713Y2146D02*
X2773Y2146D01*
X2813Y2146D02*
X2873Y2146D01*
X2913Y2146D02*
X2973Y2146D01*
X3013Y2146D02*
X3073Y2146D01*
X315Y2145D02*
X372Y2145D01*
X415Y2145D02*
X472Y2145D01*
X514Y2145D02*
X572Y2145D01*
X614Y2145D02*
X672Y2145D01*
X714Y2145D02*
X772Y2145D01*
X814Y2145D02*
X872Y2145D01*
X914Y2145D02*
X972Y2145D01*
X1014Y2145D02*
X1072Y2145D01*
X1114Y2145D02*
X1172Y2145D01*
X2214Y2145D02*
X2272Y2145D01*
X2314Y2145D02*
X2372Y2145D01*
X2414Y2145D02*
X2472Y2145D01*
X2514Y2145D02*
X2572Y2145D01*
X2614Y2145D02*
X2672Y2145D01*
X2714Y2145D02*
X2772Y2145D01*
X2814Y2145D02*
X2872Y2145D01*
X2914Y2145D02*
X2972Y2145D01*
X3014Y2145D02*
X3072Y2145D01*
X315Y2144D02*
X371Y2144D01*
X415Y2144D02*
X471Y2144D01*
X515Y2144D02*
X571Y2144D01*
X615Y2144D02*
X671Y2144D01*
X715Y2144D02*
X771Y2144D01*
X815Y2144D02*
X871Y2144D01*
X915Y2144D02*
X971Y2144D01*
X1015Y2144D02*
X1071Y2144D01*
X1115Y2144D02*
X1171Y2144D01*
X2215Y2144D02*
X2271Y2144D01*
X2315Y2144D02*
X2371Y2144D01*
X2415Y2144D02*
X2471Y2144D01*
X2515Y2144D02*
X2571Y2144D01*
X2615Y2144D02*
X2671Y2144D01*
X2715Y2144D02*
X2771Y2144D01*
X2815Y2144D02*
X2871Y2144D01*
X2915Y2144D02*
X2971Y2144D01*
X3015Y2144D02*
X3071Y2144D01*
X316Y2143D02*
X370Y2143D01*
X416Y2143D02*
X470Y2143D01*
X516Y2143D02*
X570Y2143D01*
X616Y2143D02*
X670Y2143D01*
X716Y2143D02*
X770Y2143D01*
X816Y2143D02*
X870Y2143D01*
X916Y2143D02*
X970Y2143D01*
X1016Y2143D02*
X1070Y2143D01*
X1116Y2143D02*
X1170Y2143D01*
X2216Y2143D02*
X2270Y2143D01*
X2316Y2143D02*
X2370Y2143D01*
X2416Y2143D02*
X2470Y2143D01*
X2516Y2143D02*
X2570Y2143D01*
X2616Y2143D02*
X2670Y2143D01*
X2716Y2143D02*
X2770Y2143D01*
X2816Y2143D02*
X2870Y2143D01*
X2916Y2143D02*
X2970Y2143D01*
X3016Y2143D02*
X3070Y2143D01*
X317Y2142D02*
X369Y2142D01*
X417Y2142D02*
X469Y2142D01*
X517Y2142D02*
X569Y2142D01*
X617Y2142D02*
X669Y2142D01*
X717Y2142D02*
X769Y2142D01*
X817Y2142D02*
X869Y2142D01*
X917Y2142D02*
X969Y2142D01*
X1017Y2142D02*
X1069Y2142D01*
X1117Y2142D02*
X1169Y2142D01*
X2217Y2142D02*
X2269Y2142D01*
X2317Y2142D02*
X2369Y2142D01*
X2417Y2142D02*
X2469Y2142D01*
X2517Y2142D02*
X2569Y2142D01*
X2617Y2142D02*
X2669Y2142D01*
X2717Y2142D02*
X2769Y2142D01*
X2817Y2142D02*
X2869Y2142D01*
X2917Y2142D02*
X2969Y2142D01*
X3017Y2142D02*
X3069Y2142D01*
X319Y2141D02*
X368Y2141D01*
X419Y2141D02*
X468Y2141D01*
X519Y2141D02*
X568Y2141D01*
X618Y2141D02*
X668Y2141D01*
X718Y2141D02*
X768Y2141D01*
X818Y2141D02*
X868Y2141D01*
X918Y2141D02*
X968Y2141D01*
X1018Y2141D02*
X1068Y2141D01*
X1118Y2141D02*
X1168Y2141D01*
X2218Y2141D02*
X2268Y2141D01*
X2318Y2141D02*
X2368Y2141D01*
X2418Y2141D02*
X2468Y2141D01*
X2518Y2141D02*
X2568Y2141D01*
X2618Y2141D02*
X2668Y2141D01*
X2718Y2141D02*
X2768Y2141D01*
X2818Y2141D02*
X2868Y2141D01*
X2918Y2141D02*
X2968Y2141D01*
X3018Y2141D02*
X3068Y2141D01*
X320Y2140D02*
X367Y2140D01*
X420Y2140D02*
X467Y2140D01*
X520Y2140D02*
X567Y2140D01*
X620Y2140D02*
X667Y2140D01*
X720Y2140D02*
X767Y2140D01*
X820Y2140D02*
X867Y2140D01*
X920Y2140D02*
X967Y2140D01*
X1020Y2140D02*
X1067Y2140D01*
X1120Y2140D02*
X1167Y2140D01*
X2219Y2140D02*
X2267Y2140D01*
X2319Y2140D02*
X2367Y2140D01*
X2419Y2140D02*
X2467Y2140D01*
X2519Y2140D02*
X2567Y2140D01*
X2619Y2140D02*
X2667Y2140D01*
X2719Y2140D02*
X2767Y2140D01*
X2819Y2140D02*
X2867Y2140D01*
X2919Y2140D02*
X2967Y2140D01*
X3019Y2140D02*
X3067Y2140D01*
X321Y2139D02*
X366Y2139D01*
X421Y2139D02*
X466Y2139D01*
X521Y2139D02*
X566Y2139D01*
X621Y2139D02*
X666Y2139D01*
X721Y2139D02*
X766Y2139D01*
X821Y2139D02*
X866Y2139D01*
X921Y2139D02*
X966Y2139D01*
X1021Y2139D02*
X1066Y2139D01*
X1121Y2139D02*
X1166Y2139D01*
X2221Y2139D02*
X2265Y2139D01*
X2321Y2139D02*
X2365Y2139D01*
X2421Y2139D02*
X2465Y2139D01*
X2521Y2139D02*
X2565Y2139D01*
X2621Y2139D02*
X2665Y2139D01*
X2721Y2139D02*
X2765Y2139D01*
X2821Y2139D02*
X2865Y2139D01*
X2921Y2139D02*
X2965Y2139D01*
X3021Y2139D02*
X3065Y2139D01*
X322Y2138D02*
X364Y2138D01*
X422Y2138D02*
X464Y2138D01*
X522Y2138D02*
X564Y2138D01*
X622Y2138D02*
X664Y2138D01*
X722Y2138D02*
X764Y2138D01*
X822Y2138D02*
X864Y2138D01*
X922Y2138D02*
X964Y2138D01*
X1022Y2138D02*
X1064Y2138D01*
X1122Y2138D02*
X1164Y2138D01*
X2222Y2138D02*
X2264Y2138D01*
X2322Y2138D02*
X2364Y2138D01*
X2422Y2138D02*
X2464Y2138D01*
X2522Y2138D02*
X2564Y2138D01*
X2622Y2138D02*
X2664Y2138D01*
X2722Y2138D02*
X2764Y2138D01*
X2822Y2138D02*
X2864Y2138D01*
X2922Y2138D02*
X2964Y2138D01*
X3022Y2138D02*
X3064Y2138D01*
X324Y2137D02*
X363Y2137D01*
X424Y2137D02*
X463Y2137D01*
X524Y2137D02*
X563Y2137D01*
X624Y2137D02*
X663Y2137D01*
X724Y2137D02*
X763Y2137D01*
X824Y2137D02*
X863Y2137D01*
X924Y2137D02*
X963Y2137D01*
X1024Y2137D02*
X1063Y2137D01*
X1124Y2137D02*
X1163Y2137D01*
X2223Y2137D02*
X2263Y2137D01*
X2323Y2137D02*
X2363Y2137D01*
X2423Y2137D02*
X2463Y2137D01*
X2523Y2137D02*
X2563Y2137D01*
X2623Y2137D02*
X2663Y2137D01*
X2723Y2137D02*
X2762Y2137D01*
X2823Y2137D02*
X2862Y2137D01*
X2923Y2137D02*
X2962Y2137D01*
X3023Y2137D02*
X3062Y2137D01*
X325Y2136D02*
X361Y2136D01*
X425Y2136D02*
X461Y2136D01*
X525Y2136D02*
X561Y2136D01*
X625Y2136D02*
X661Y2136D01*
X725Y2136D02*
X761Y2136D01*
X825Y2136D02*
X861Y2136D01*
X925Y2136D02*
X961Y2136D01*
X1025Y2136D02*
X1061Y2136D01*
X1125Y2136D02*
X1161Y2136D01*
X2225Y2136D02*
X2261Y2136D01*
X2325Y2136D02*
X2361Y2136D01*
X2425Y2136D02*
X2461Y2136D01*
X2525Y2136D02*
X2561Y2136D01*
X2625Y2136D02*
X2661Y2136D01*
X2725Y2136D02*
X2761Y2136D01*
X2825Y2136D02*
X2861Y2136D01*
X2925Y2136D02*
X2961Y2136D01*
X3025Y2136D02*
X3061Y2136D01*
X327Y2135D02*
X359Y2135D01*
X427Y2135D02*
X459Y2135D01*
X527Y2135D02*
X559Y2135D01*
X627Y2135D02*
X659Y2135D01*
X727Y2135D02*
X759Y2135D01*
X827Y2135D02*
X859Y2135D01*
X927Y2135D02*
X959Y2135D01*
X1027Y2135D02*
X1059Y2135D01*
X1127Y2135D02*
X1159Y2135D01*
X2227Y2135D02*
X2259Y2135D01*
X2327Y2135D02*
X2359Y2135D01*
X2427Y2135D02*
X2459Y2135D01*
X2527Y2135D02*
X2559Y2135D01*
X2627Y2135D02*
X2659Y2135D01*
X2727Y2135D02*
X2759Y2135D01*
X2827Y2135D02*
X2859Y2135D01*
X2927Y2135D02*
X2959Y2135D01*
X3027Y2135D02*
X3059Y2135D01*
X329Y2134D02*
X358Y2134D01*
X429Y2134D02*
X458Y2134D01*
X529Y2134D02*
X558Y2134D01*
X629Y2134D02*
X658Y2134D01*
X729Y2134D02*
X758Y2134D01*
X829Y2134D02*
X857Y2134D01*
X929Y2134D02*
X957Y2134D01*
X1029Y2134D02*
X1057Y2134D01*
X1129Y2134D02*
X1157Y2134D01*
X2229Y2134D02*
X2257Y2134D01*
X2329Y2134D02*
X2357Y2134D01*
X2429Y2134D02*
X2457Y2134D01*
X2529Y2134D02*
X2557Y2134D01*
X2629Y2134D02*
X2657Y2134D01*
X2729Y2134D02*
X2757Y2134D01*
X2829Y2134D02*
X2857Y2134D01*
X2929Y2134D02*
X2957Y2134D01*
X3029Y2134D02*
X3057Y2134D01*
X332Y2133D02*
X355Y2133D01*
X432Y2133D02*
X455Y2133D01*
X531Y2133D02*
X555Y2133D01*
X631Y2133D02*
X655Y2133D01*
X731Y2133D02*
X755Y2133D01*
X831Y2133D02*
X855Y2133D01*
X931Y2133D02*
X955Y2133D01*
X1031Y2133D02*
X1055Y2133D01*
X1131Y2133D02*
X1155Y2133D01*
X2231Y2133D02*
X2255Y2133D01*
X2331Y2133D02*
X2355Y2133D01*
X2431Y2133D02*
X2455Y2133D01*
X2531Y2133D02*
X2555Y2133D01*
X2631Y2133D02*
X2655Y2133D01*
X2731Y2133D02*
X2755Y2133D01*
X2831Y2133D02*
X2855Y2133D01*
X2931Y2133D02*
X2955Y2133D01*
X3031Y2133D02*
X3055Y2133D01*
X334Y2132D02*
X352Y2132D01*
X434Y2132D02*
X452Y2132D01*
X534Y2132D02*
X552Y2132D01*
X634Y2132D02*
X652Y2132D01*
X734Y2132D02*
X752Y2132D01*
X834Y2132D02*
X852Y2132D01*
X934Y2132D02*
X952Y2132D01*
X1034Y2132D02*
X1052Y2132D01*
X1134Y2132D02*
X1152Y2132D01*
X2234Y2132D02*
X2252Y2132D01*
X2334Y2132D02*
X2352Y2132D01*
X2434Y2132D02*
X2452Y2132D01*
X2534Y2132D02*
X2552Y2132D01*
X2634Y2132D02*
X2652Y2132D01*
X2734Y2132D02*
X2752Y2132D01*
X2834Y2132D02*
X2852Y2132D01*
X2934Y2132D02*
X2952Y2132D01*
X3034Y2132D02*
X3052Y2132D01*
X339Y2131D02*
X348Y2131D01*
X439Y2131D02*
X448Y2131D01*
X539Y2131D02*
X548Y2131D01*
X639Y2131D02*
X648Y2131D01*
X739Y2131D02*
X748Y2131D01*
X839Y2131D02*
X848Y2131D01*
X939Y2131D02*
X948Y2131D01*
X1039Y2131D02*
X1048Y2131D01*
X1139Y2131D02*
X1148Y2131D01*
X2238Y2131D02*
X2248Y2131D01*
X2338Y2131D02*
X2348Y2131D01*
X2438Y2131D02*
X2448Y2131D01*
X2538Y2131D02*
X2548Y2131D01*
X2638Y2131D02*
X2648Y2131D01*
X2738Y2131D02*
X2748Y2131D01*
X2838Y2131D02*
X2847Y2131D01*
X2938Y2131D02*
X2947Y2131D01*
X3038Y2131D02*
X3047Y2131D01*
X338Y1210D02*
X349Y1210D01*
X438Y1210D02*
X449Y1210D01*
X538Y1210D02*
X549Y1210D01*
X638Y1210D02*
X649Y1210D01*
X738Y1210D02*
X749Y1210D01*
X838Y1210D02*
X849Y1210D01*
X938Y1210D02*
X949Y1210D01*
X1038Y1210D02*
X1049Y1210D01*
X1138Y1210D02*
X1149Y1210D01*
X2337Y1210D02*
X2349Y1210D01*
X2437Y1210D02*
X2449Y1210D01*
X2537Y1210D02*
X2549Y1210D01*
X2637Y1210D02*
X2648Y1210D01*
X2737Y1210D02*
X2748Y1210D01*
X2837Y1210D02*
X2848Y1210D01*
X2937Y1210D02*
X2948Y1210D01*
X3037Y1210D02*
X3048Y1210D01*
X3137Y1210D02*
X3148Y1210D01*
X334Y1209D02*
X353Y1209D01*
X434Y1209D02*
X453Y1209D01*
X534Y1209D02*
X553Y1209D01*
X634Y1209D02*
X653Y1209D01*
X734Y1209D02*
X753Y1209D01*
X834Y1209D02*
X853Y1209D01*
X934Y1209D02*
X953Y1209D01*
X1034Y1209D02*
X1053Y1209D01*
X1134Y1209D02*
X1153Y1209D01*
X2334Y1209D02*
X2352Y1209D01*
X2434Y1209D02*
X2452Y1209D01*
X2534Y1209D02*
X2552Y1209D01*
X2633Y1209D02*
X2652Y1209D01*
X2733Y1209D02*
X2752Y1209D01*
X2833Y1209D02*
X2852Y1209D01*
X2933Y1209D02*
X2952Y1209D01*
X3033Y1209D02*
X3052Y1209D01*
X3133Y1209D02*
X3152Y1209D01*
X331Y1208D02*
X356Y1208D01*
X431Y1208D02*
X456Y1208D01*
X531Y1208D02*
X556Y1208D01*
X631Y1208D02*
X656Y1208D01*
X731Y1208D02*
X756Y1208D01*
X831Y1208D02*
X856Y1208D01*
X931Y1208D02*
X955Y1208D01*
X1031Y1208D02*
X1055Y1208D01*
X1131Y1208D02*
X1155Y1208D01*
X2331Y1208D02*
X2355Y1208D01*
X2431Y1208D02*
X2455Y1208D01*
X2531Y1208D02*
X2555Y1208D01*
X2631Y1208D02*
X2655Y1208D01*
X2731Y1208D02*
X2755Y1208D01*
X2831Y1208D02*
X2855Y1208D01*
X2931Y1208D02*
X2955Y1208D01*
X3031Y1208D02*
X3055Y1208D01*
X3131Y1208D02*
X3155Y1208D01*
X329Y1207D02*
X358Y1207D01*
X429Y1207D02*
X458Y1207D01*
X529Y1207D02*
X558Y1207D01*
X629Y1207D02*
X658Y1207D01*
X729Y1207D02*
X758Y1207D01*
X829Y1207D02*
X858Y1207D01*
X929Y1207D02*
X958Y1207D01*
X1029Y1207D02*
X1058Y1207D01*
X1129Y1207D02*
X1158Y1207D01*
X2328Y1207D02*
X2358Y1207D01*
X2428Y1207D02*
X2458Y1207D01*
X2528Y1207D02*
X2558Y1207D01*
X2628Y1207D02*
X2658Y1207D01*
X2728Y1207D02*
X2758Y1207D01*
X2828Y1207D02*
X2858Y1207D01*
X2928Y1207D02*
X2958Y1207D01*
X3028Y1207D02*
X3057Y1207D01*
X3128Y1207D02*
X3157Y1207D01*
X327Y1206D02*
X360Y1206D01*
X427Y1206D02*
X460Y1206D01*
X527Y1206D02*
X560Y1206D01*
X627Y1206D02*
X660Y1206D01*
X727Y1206D02*
X760Y1206D01*
X827Y1206D02*
X860Y1206D01*
X927Y1206D02*
X960Y1206D01*
X1027Y1206D02*
X1060Y1206D01*
X1127Y1206D02*
X1160Y1206D01*
X2327Y1206D02*
X2360Y1206D01*
X2427Y1206D02*
X2459Y1206D01*
X2526Y1206D02*
X2559Y1206D01*
X2626Y1206D02*
X2659Y1206D01*
X2726Y1206D02*
X2759Y1206D01*
X2826Y1206D02*
X2859Y1206D01*
X2926Y1206D02*
X2959Y1206D01*
X3026Y1206D02*
X3059Y1206D01*
X3126Y1206D02*
X3159Y1206D01*
X325Y1205D02*
X362Y1205D01*
X425Y1205D02*
X462Y1205D01*
X525Y1205D02*
X562Y1205D01*
X625Y1205D02*
X662Y1205D01*
X725Y1205D02*
X762Y1205D01*
X825Y1205D02*
X862Y1205D01*
X925Y1205D02*
X962Y1205D01*
X1025Y1205D02*
X1061Y1205D01*
X1125Y1205D02*
X1161Y1205D01*
X2325Y1205D02*
X2361Y1205D01*
X2425Y1205D02*
X2461Y1205D01*
X2525Y1205D02*
X2561Y1205D01*
X2625Y1205D02*
X2661Y1205D01*
X2725Y1205D02*
X2761Y1205D01*
X2825Y1205D02*
X2861Y1205D01*
X2925Y1205D02*
X2961Y1205D01*
X3025Y1205D02*
X3061Y1205D01*
X3125Y1205D02*
X3161Y1205D01*
X324Y1204D02*
X363Y1204D01*
X424Y1204D02*
X463Y1204D01*
X523Y1204D02*
X563Y1204D01*
X623Y1204D02*
X663Y1204D01*
X723Y1204D02*
X763Y1204D01*
X823Y1204D02*
X863Y1204D01*
X923Y1204D02*
X963Y1204D01*
X1023Y1204D02*
X1063Y1204D01*
X1123Y1204D02*
X1163Y1204D01*
X2323Y1204D02*
X2363Y1204D01*
X2423Y1204D02*
X2463Y1204D01*
X2523Y1204D02*
X2563Y1204D01*
X2623Y1204D02*
X2663Y1204D01*
X2723Y1204D02*
X2763Y1204D01*
X2823Y1204D02*
X2863Y1204D01*
X2923Y1204D02*
X2963Y1204D01*
X3023Y1204D02*
X3063Y1204D01*
X3123Y1204D02*
X3163Y1204D01*
X322Y1203D02*
X365Y1203D01*
X422Y1203D02*
X465Y1203D01*
X522Y1203D02*
X565Y1203D01*
X622Y1203D02*
X665Y1203D01*
X722Y1203D02*
X765Y1203D01*
X822Y1203D02*
X865Y1203D01*
X922Y1203D02*
X965Y1203D01*
X1022Y1203D02*
X1065Y1203D01*
X1122Y1203D02*
X1165Y1203D01*
X2322Y1203D02*
X2364Y1203D01*
X2422Y1203D02*
X2464Y1203D01*
X2522Y1203D02*
X2564Y1203D01*
X2622Y1203D02*
X2664Y1203D01*
X2722Y1203D02*
X2764Y1203D01*
X2822Y1203D02*
X2864Y1203D01*
X2922Y1203D02*
X2964Y1203D01*
X3022Y1203D02*
X3064Y1203D01*
X3122Y1203D02*
X3164Y1203D01*
X321Y1202D02*
X366Y1202D01*
X421Y1202D02*
X466Y1202D01*
X521Y1202D02*
X566Y1202D01*
X621Y1202D02*
X666Y1202D01*
X721Y1202D02*
X766Y1202D01*
X821Y1202D02*
X866Y1202D01*
X921Y1202D02*
X966Y1202D01*
X1021Y1202D02*
X1066Y1202D01*
X1121Y1202D02*
X1166Y1202D01*
X2320Y1202D02*
X2366Y1202D01*
X2420Y1202D02*
X2466Y1202D01*
X2520Y1202D02*
X2566Y1202D01*
X2620Y1202D02*
X2666Y1202D01*
X2720Y1202D02*
X2766Y1202D01*
X2820Y1202D02*
X2866Y1202D01*
X2920Y1202D02*
X2966Y1202D01*
X3020Y1202D02*
X3065Y1202D01*
X3120Y1202D02*
X3165Y1202D01*
X319Y1201D02*
X367Y1201D01*
X419Y1201D02*
X467Y1201D01*
X519Y1201D02*
X567Y1201D01*
X619Y1201D02*
X667Y1201D01*
X719Y1201D02*
X767Y1201D01*
X819Y1201D02*
X867Y1201D01*
X919Y1201D02*
X967Y1201D01*
X1019Y1201D02*
X1067Y1201D01*
X1119Y1201D02*
X1167Y1201D01*
X2319Y1201D02*
X2367Y1201D01*
X2419Y1201D02*
X2467Y1201D01*
X2519Y1201D02*
X2567Y1201D01*
X2619Y1201D02*
X2667Y1201D01*
X2719Y1201D02*
X2767Y1201D01*
X2819Y1201D02*
X2867Y1201D01*
X2919Y1201D02*
X2967Y1201D01*
X3019Y1201D02*
X3067Y1201D01*
X3119Y1201D02*
X3167Y1201D01*
X318Y1200D02*
X368Y1200D01*
X418Y1200D02*
X468Y1200D01*
X518Y1200D02*
X568Y1200D01*
X618Y1200D02*
X668Y1200D01*
X718Y1200D02*
X768Y1200D01*
X818Y1200D02*
X868Y1200D01*
X918Y1200D02*
X968Y1200D01*
X1018Y1200D02*
X1068Y1200D01*
X1118Y1200D02*
X1168Y1200D01*
X2318Y1200D02*
X2368Y1200D01*
X2418Y1200D02*
X2468Y1200D01*
X2518Y1200D02*
X2568Y1200D01*
X2618Y1200D02*
X2668Y1200D01*
X2718Y1200D02*
X2768Y1200D01*
X2818Y1200D02*
X2868Y1200D01*
X2918Y1200D02*
X2968Y1200D01*
X3018Y1200D02*
X3068Y1200D01*
X3118Y1200D02*
X3168Y1200D01*
X317Y1199D02*
X369Y1199D01*
X417Y1199D02*
X469Y1199D01*
X517Y1199D02*
X569Y1199D01*
X617Y1199D02*
X669Y1199D01*
X717Y1199D02*
X769Y1199D01*
X817Y1199D02*
X869Y1199D01*
X917Y1199D02*
X969Y1199D01*
X1017Y1199D02*
X1069Y1199D01*
X1117Y1199D02*
X1169Y1199D01*
X2317Y1199D02*
X2369Y1199D01*
X2417Y1199D02*
X2469Y1199D01*
X2517Y1199D02*
X2569Y1199D01*
X2617Y1199D02*
X2669Y1199D01*
X2717Y1199D02*
X2769Y1199D01*
X2817Y1199D02*
X2869Y1199D01*
X2917Y1199D02*
X2969Y1199D01*
X3017Y1199D02*
X3069Y1199D01*
X3117Y1199D02*
X3169Y1199D01*
X316Y1198D02*
X370Y1198D01*
X416Y1198D02*
X470Y1198D01*
X516Y1198D02*
X570Y1198D01*
X616Y1198D02*
X670Y1198D01*
X716Y1198D02*
X770Y1198D01*
X816Y1198D02*
X870Y1198D01*
X916Y1198D02*
X970Y1198D01*
X1016Y1198D02*
X1070Y1198D01*
X1116Y1198D02*
X1170Y1198D01*
X2316Y1198D02*
X2370Y1198D01*
X2416Y1198D02*
X2470Y1198D01*
X2516Y1198D02*
X2570Y1198D01*
X2616Y1198D02*
X2670Y1198D01*
X2716Y1198D02*
X2770Y1198D01*
X2816Y1198D02*
X2870Y1198D01*
X2916Y1198D02*
X2970Y1198D01*
X3016Y1198D02*
X3070Y1198D01*
X3116Y1198D02*
X3170Y1198D01*
X315Y1197D02*
X371Y1197D01*
X415Y1197D02*
X471Y1197D01*
X515Y1197D02*
X571Y1197D01*
X615Y1197D02*
X671Y1197D01*
X715Y1197D02*
X771Y1197D01*
X815Y1197D02*
X871Y1197D01*
X915Y1197D02*
X971Y1197D01*
X1015Y1197D02*
X1071Y1197D01*
X1115Y1197D02*
X1171Y1197D01*
X2315Y1197D02*
X2371Y1197D01*
X2415Y1197D02*
X2471Y1197D01*
X2515Y1197D02*
X2571Y1197D01*
X2615Y1197D02*
X2671Y1197D01*
X2715Y1197D02*
X2771Y1197D01*
X2815Y1197D02*
X2871Y1197D01*
X2915Y1197D02*
X2971Y1197D01*
X3015Y1197D02*
X3071Y1197D01*
X3115Y1197D02*
X3171Y1197D01*
X314Y1196D02*
X372Y1196D01*
X414Y1196D02*
X472Y1196D01*
X514Y1196D02*
X572Y1196D01*
X614Y1196D02*
X672Y1196D01*
X714Y1196D02*
X772Y1196D01*
X814Y1196D02*
X872Y1196D01*
X914Y1196D02*
X972Y1196D01*
X1014Y1196D02*
X1072Y1196D01*
X1114Y1196D02*
X1172Y1196D01*
X2314Y1196D02*
X2372Y1196D01*
X2414Y1196D02*
X2472Y1196D01*
X2514Y1196D02*
X2572Y1196D01*
X2614Y1196D02*
X2672Y1196D01*
X2714Y1196D02*
X2772Y1196D01*
X2814Y1196D02*
X2872Y1196D01*
X2914Y1196D02*
X2972Y1196D01*
X3014Y1196D02*
X3072Y1196D01*
X3114Y1196D02*
X3172Y1196D01*
X313Y1195D02*
X373Y1195D01*
X413Y1195D02*
X473Y1195D01*
X513Y1195D02*
X573Y1195D01*
X613Y1195D02*
X673Y1195D01*
X713Y1195D02*
X773Y1195D01*
X813Y1195D02*
X873Y1195D01*
X913Y1195D02*
X973Y1195D01*
X1013Y1195D02*
X1073Y1195D01*
X1113Y1195D02*
X1173Y1195D01*
X2313Y1195D02*
X2373Y1195D01*
X2413Y1195D02*
X2473Y1195D01*
X2513Y1195D02*
X2573Y1195D01*
X2613Y1195D02*
X2673Y1195D01*
X2713Y1195D02*
X2773Y1195D01*
X2813Y1195D02*
X2873Y1195D01*
X2913Y1195D02*
X2973Y1195D01*
X3013Y1195D02*
X3073Y1195D01*
X3113Y1195D02*
X3173Y1195D01*
X313Y1194D02*
X374Y1194D01*
X413Y1194D02*
X474Y1194D01*
X513Y1194D02*
X574Y1194D01*
X613Y1194D02*
X674Y1194D01*
X713Y1194D02*
X774Y1194D01*
X813Y1194D02*
X874Y1194D01*
X913Y1194D02*
X974Y1194D01*
X1013Y1194D02*
X1074Y1194D01*
X1113Y1194D02*
X1174Y1194D01*
X2312Y1194D02*
X2374Y1194D01*
X2412Y1194D02*
X2474Y1194D01*
X2512Y1194D02*
X2574Y1194D01*
X2612Y1194D02*
X2674Y1194D01*
X2712Y1194D02*
X2774Y1194D01*
X2812Y1194D02*
X2874Y1194D01*
X2912Y1194D02*
X2974Y1194D01*
X3012Y1194D02*
X3074Y1194D01*
X3112Y1194D02*
X3174Y1194D01*
X312Y1193D02*
X375Y1193D01*
X412Y1193D02*
X475Y1193D01*
X512Y1193D02*
X575Y1193D01*
X612Y1193D02*
X675Y1193D01*
X712Y1193D02*
X775Y1193D01*
X812Y1193D02*
X875Y1193D01*
X912Y1193D02*
X975Y1193D01*
X1012Y1193D02*
X1075Y1193D01*
X1112Y1193D02*
X1175Y1193D01*
X2312Y1193D02*
X2374Y1193D01*
X2412Y1193D02*
X2474Y1193D01*
X2512Y1193D02*
X2574Y1193D01*
X2612Y1193D02*
X2674Y1193D01*
X2712Y1193D02*
X2774Y1193D01*
X2812Y1193D02*
X2874Y1193D01*
X2911Y1193D02*
X2974Y1193D01*
X3011Y1193D02*
X3074Y1193D01*
X3111Y1193D02*
X3174Y1193D01*
X311Y1192D02*
X376Y1192D01*
X411Y1192D02*
X476Y1192D01*
X511Y1192D02*
X575Y1192D01*
X611Y1192D02*
X675Y1192D01*
X711Y1192D02*
X775Y1192D01*
X811Y1192D02*
X875Y1192D01*
X911Y1192D02*
X975Y1192D01*
X1011Y1192D02*
X1075Y1192D01*
X1111Y1192D02*
X1175Y1192D01*
X2311Y1192D02*
X2375Y1192D01*
X2411Y1192D02*
X2475Y1192D01*
X2511Y1192D02*
X2575Y1192D01*
X2611Y1192D02*
X2675Y1192D01*
X2711Y1192D02*
X2775Y1192D01*
X2811Y1192D02*
X2875Y1192D01*
X2911Y1192D02*
X2975Y1192D01*
X3011Y1192D02*
X3075Y1192D01*
X3111Y1192D02*
X3175Y1192D01*
X311Y1191D02*
X376Y1191D01*
X411Y1191D02*
X476Y1191D01*
X510Y1191D02*
X576Y1191D01*
X610Y1191D02*
X676Y1191D01*
X710Y1191D02*
X776Y1191D01*
X810Y1191D02*
X876Y1191D01*
X910Y1191D02*
X976Y1191D01*
X1010Y1191D02*
X1076Y1191D01*
X1110Y1191D02*
X1176Y1191D01*
X2310Y1191D02*
X2376Y1191D01*
X2410Y1191D02*
X2476Y1191D01*
X2510Y1191D02*
X2576Y1191D01*
X2610Y1191D02*
X2676Y1191D01*
X2710Y1191D02*
X2776Y1191D01*
X2810Y1191D02*
X2876Y1191D01*
X2910Y1191D02*
X2976Y1191D01*
X3010Y1191D02*
X3076Y1191D01*
X3110Y1191D02*
X3176Y1191D01*
X310Y1190D02*
X377Y1190D01*
X410Y1190D02*
X477Y1190D01*
X510Y1190D02*
X577Y1190D01*
X610Y1190D02*
X677Y1190D01*
X710Y1190D02*
X777Y1190D01*
X810Y1190D02*
X877Y1190D01*
X910Y1190D02*
X977Y1190D01*
X1010Y1190D02*
X1077Y1190D01*
X1110Y1190D02*
X1177Y1190D01*
X2310Y1190D02*
X2376Y1190D01*
X2410Y1190D02*
X2476Y1190D01*
X2510Y1190D02*
X2576Y1190D01*
X2609Y1190D02*
X2676Y1190D01*
X2709Y1190D02*
X2776Y1190D01*
X2809Y1190D02*
X2876Y1190D01*
X2909Y1190D02*
X2976Y1190D01*
X3009Y1190D02*
X3076Y1190D01*
X3109Y1190D02*
X3176Y1190D01*
X309Y1189D02*
X377Y1189D01*
X409Y1189D02*
X477Y1189D01*
X509Y1189D02*
X577Y1189D01*
X609Y1189D02*
X677Y1189D01*
X709Y1189D02*
X777Y1189D01*
X809Y1189D02*
X877Y1189D01*
X909Y1189D02*
X977Y1189D01*
X1009Y1189D02*
X1077Y1189D01*
X1109Y1189D02*
X1177Y1189D01*
X2309Y1189D02*
X2377Y1189D01*
X2409Y1189D02*
X2477Y1189D01*
X2509Y1189D02*
X2577Y1189D01*
X2609Y1189D02*
X2677Y1189D01*
X2709Y1189D02*
X2777Y1189D01*
X2809Y1189D02*
X2877Y1189D01*
X2909Y1189D02*
X2977Y1189D01*
X3009Y1189D02*
X3077Y1189D01*
X3109Y1189D02*
X3177Y1189D01*
X309Y1188D02*
X378Y1188D01*
X409Y1188D02*
X478Y1188D01*
X509Y1188D02*
X578Y1188D01*
X609Y1188D02*
X678Y1188D01*
X709Y1188D02*
X778Y1188D01*
X809Y1188D02*
X878Y1188D01*
X909Y1188D02*
X978Y1188D01*
X1009Y1188D02*
X1078Y1188D01*
X1109Y1188D02*
X1178Y1188D01*
X2308Y1188D02*
X2378Y1188D01*
X2408Y1188D02*
X2478Y1188D01*
X2508Y1188D02*
X2578Y1188D01*
X2608Y1188D02*
X2678Y1188D01*
X2708Y1188D02*
X2778Y1188D01*
X2808Y1188D02*
X2878Y1188D01*
X2908Y1188D02*
X2978Y1188D01*
X3008Y1188D02*
X3078Y1188D01*
X3108Y1188D02*
X3178Y1188D01*
X308Y1187D02*
X379Y1187D01*
X408Y1187D02*
X479Y1187D01*
X508Y1187D02*
X578Y1187D01*
X608Y1187D02*
X678Y1187D01*
X708Y1187D02*
X778Y1187D01*
X808Y1187D02*
X878Y1187D01*
X908Y1187D02*
X978Y1187D01*
X1008Y1187D02*
X1078Y1187D01*
X1108Y1187D02*
X1178Y1187D01*
X2308Y1187D02*
X2378Y1187D01*
X2408Y1187D02*
X2478Y1187D01*
X2508Y1187D02*
X2578Y1187D01*
X2608Y1187D02*
X2678Y1187D01*
X2708Y1187D02*
X2778Y1187D01*
X2808Y1187D02*
X2878Y1187D01*
X2908Y1187D02*
X2978Y1187D01*
X3008Y1187D02*
X3078Y1187D01*
X3108Y1187D02*
X3178Y1187D01*
X308Y1186D02*
X379Y1186D01*
X408Y1186D02*
X479Y1186D01*
X508Y1186D02*
X579Y1186D01*
X608Y1186D02*
X679Y1186D01*
X708Y1186D02*
X779Y1186D01*
X808Y1186D02*
X879Y1186D01*
X908Y1186D02*
X979Y1186D01*
X1008Y1186D02*
X1079Y1186D01*
X1108Y1186D02*
X1179Y1186D01*
X2307Y1186D02*
X2379Y1186D01*
X2407Y1186D02*
X2479Y1186D01*
X2507Y1186D02*
X2579Y1186D01*
X2607Y1186D02*
X2679Y1186D01*
X2707Y1186D02*
X2779Y1186D01*
X2807Y1186D02*
X2879Y1186D01*
X2907Y1186D02*
X2979Y1186D01*
X3007Y1186D02*
X3079Y1186D01*
X3107Y1186D02*
X3179Y1186D01*
X307Y1185D02*
X380Y1185D01*
X407Y1185D02*
X480Y1185D01*
X507Y1185D02*
X580Y1185D01*
X607Y1185D02*
X679Y1185D01*
X707Y1185D02*
X779Y1185D01*
X807Y1185D02*
X879Y1185D01*
X907Y1185D02*
X979Y1185D01*
X1007Y1185D02*
X1079Y1185D01*
X1107Y1185D02*
X1179Y1185D01*
X2307Y1185D02*
X2379Y1185D01*
X2407Y1185D02*
X2479Y1185D01*
X2507Y1185D02*
X2579Y1185D01*
X2607Y1185D02*
X2679Y1185D01*
X2707Y1185D02*
X2779Y1185D01*
X2807Y1185D02*
X2879Y1185D01*
X2907Y1185D02*
X2979Y1185D01*
X3007Y1185D02*
X3079Y1185D01*
X3107Y1185D02*
X3179Y1185D01*
X307Y1184D02*
X380Y1184D01*
X407Y1184D02*
X480Y1184D01*
X507Y1184D02*
X580Y1184D01*
X607Y1184D02*
X680Y1184D01*
X707Y1184D02*
X780Y1184D01*
X807Y1184D02*
X880Y1184D01*
X907Y1184D02*
X980Y1184D01*
X1007Y1184D02*
X1080Y1184D01*
X1107Y1184D02*
X1180Y1184D01*
X2306Y1184D02*
X2380Y1184D01*
X2406Y1184D02*
X2480Y1184D01*
X2506Y1184D02*
X2580Y1184D01*
X2606Y1184D02*
X2680Y1184D01*
X2706Y1184D02*
X2780Y1184D01*
X2806Y1184D02*
X2880Y1184D01*
X2906Y1184D02*
X2980Y1184D01*
X3006Y1184D02*
X3080Y1184D01*
X3106Y1184D02*
X3179Y1184D01*
X306Y1183D02*
X380Y1183D01*
X406Y1183D02*
X480Y1183D01*
X506Y1183D02*
X580Y1183D01*
X606Y1183D02*
X680Y1183D01*
X706Y1183D02*
X780Y1183D01*
X806Y1183D02*
X880Y1183D01*
X906Y1183D02*
X980Y1183D01*
X1006Y1183D02*
X1080Y1183D01*
X1106Y1183D02*
X1180Y1183D01*
X2306Y1183D02*
X2380Y1183D01*
X2406Y1183D02*
X2480Y1183D01*
X2506Y1183D02*
X2580Y1183D01*
X2606Y1183D02*
X2680Y1183D01*
X2706Y1183D02*
X2780Y1183D01*
X2806Y1183D02*
X2880Y1183D01*
X2906Y1183D02*
X2980Y1183D01*
X3006Y1183D02*
X3080Y1183D01*
X3106Y1183D02*
X3180Y1183D01*
X306Y1182D02*
X381Y1182D01*
X406Y1182D02*
X481Y1182D01*
X506Y1182D02*
X581Y1182D01*
X606Y1182D02*
X681Y1182D01*
X706Y1182D02*
X781Y1182D01*
X806Y1182D02*
X881Y1182D01*
X906Y1182D02*
X981Y1182D01*
X1006Y1182D02*
X1081Y1182D01*
X1106Y1182D02*
X1181Y1182D01*
X2306Y1182D02*
X2380Y1182D01*
X2406Y1182D02*
X2480Y1182D01*
X2506Y1182D02*
X2580Y1182D01*
X2606Y1182D02*
X2680Y1182D01*
X2706Y1182D02*
X2780Y1182D01*
X2806Y1182D02*
X2880Y1182D01*
X2906Y1182D02*
X2980Y1182D01*
X3005Y1182D02*
X3080Y1182D01*
X3105Y1182D02*
X3180Y1182D01*
X306Y1181D02*
X381Y1181D01*
X406Y1181D02*
X481Y1181D01*
X506Y1181D02*
X581Y1181D01*
X606Y1181D02*
X681Y1181D01*
X706Y1181D02*
X781Y1181D01*
X806Y1181D02*
X881Y1181D01*
X906Y1181D02*
X981Y1181D01*
X1005Y1181D02*
X1081Y1181D01*
X1105Y1181D02*
X1181Y1181D01*
X2305Y1181D02*
X2381Y1181D01*
X2405Y1181D02*
X2481Y1181D01*
X2505Y1181D02*
X2581Y1181D01*
X2605Y1181D02*
X2681Y1181D01*
X2705Y1181D02*
X2781Y1181D01*
X2805Y1181D02*
X2881Y1181D01*
X2905Y1181D02*
X2981Y1181D01*
X3005Y1181D02*
X3081Y1181D01*
X3105Y1181D02*
X3181Y1181D01*
X305Y1180D02*
X381Y1180D01*
X405Y1180D02*
X481Y1180D01*
X505Y1180D02*
X581Y1180D01*
X605Y1180D02*
X681Y1180D01*
X705Y1180D02*
X781Y1180D01*
X805Y1180D02*
X881Y1180D01*
X905Y1180D02*
X981Y1180D01*
X1005Y1180D02*
X1081Y1180D01*
X1105Y1180D02*
X1181Y1180D01*
X2305Y1180D02*
X2381Y1180D01*
X2405Y1180D02*
X2481Y1180D01*
X2505Y1180D02*
X2581Y1180D01*
X2605Y1180D02*
X2681Y1180D01*
X2705Y1180D02*
X2781Y1180D01*
X2805Y1180D02*
X2881Y1180D01*
X2905Y1180D02*
X2981Y1180D01*
X3005Y1180D02*
X3081Y1180D01*
X3105Y1180D02*
X3181Y1180D01*
X305Y1179D02*
X382Y1179D01*
X405Y1179D02*
X482Y1179D01*
X505Y1179D02*
X582Y1179D01*
X605Y1179D02*
X682Y1179D01*
X705Y1179D02*
X782Y1179D01*
X805Y1179D02*
X882Y1179D01*
X905Y1179D02*
X982Y1179D01*
X1005Y1179D02*
X1082Y1179D01*
X1105Y1179D02*
X1182Y1179D01*
X2305Y1179D02*
X2381Y1179D01*
X2405Y1179D02*
X2481Y1179D01*
X2505Y1179D02*
X2581Y1179D01*
X2605Y1179D02*
X2681Y1179D01*
X2705Y1179D02*
X2781Y1179D01*
X2805Y1179D02*
X2881Y1179D01*
X2905Y1179D02*
X2981Y1179D01*
X3005Y1179D02*
X3081Y1179D01*
X3105Y1179D02*
X3181Y1179D01*
X305Y1178D02*
X382Y1178D01*
X405Y1178D02*
X482Y1178D01*
X505Y1178D02*
X582Y1178D01*
X605Y1178D02*
X682Y1178D01*
X705Y1178D02*
X782Y1178D01*
X805Y1178D02*
X882Y1178D01*
X905Y1178D02*
X982Y1178D01*
X1005Y1178D02*
X1082Y1178D01*
X1105Y1178D02*
X1182Y1178D01*
X2304Y1178D02*
X2382Y1178D01*
X2404Y1178D02*
X2482Y1178D01*
X2504Y1178D02*
X2582Y1178D01*
X2604Y1178D02*
X2682Y1178D01*
X2704Y1178D02*
X2782Y1178D01*
X2804Y1178D02*
X2882Y1178D01*
X2904Y1178D02*
X2982Y1178D01*
X3004Y1178D02*
X3082Y1178D01*
X3104Y1178D02*
X3181Y1178D01*
X305Y1177D02*
X382Y1177D01*
X405Y1177D02*
X482Y1177D01*
X505Y1177D02*
X582Y1177D01*
X604Y1177D02*
X682Y1177D01*
X704Y1177D02*
X782Y1177D01*
X804Y1177D02*
X882Y1177D01*
X904Y1177D02*
X982Y1177D01*
X1004Y1177D02*
X1082Y1177D01*
X1104Y1177D02*
X1182Y1177D01*
X2304Y1177D02*
X2382Y1177D01*
X2404Y1177D02*
X2482Y1177D01*
X2504Y1177D02*
X2582Y1177D01*
X2604Y1177D02*
X2682Y1177D01*
X2704Y1177D02*
X2782Y1177D01*
X2804Y1177D02*
X2882Y1177D01*
X2904Y1177D02*
X2982Y1177D01*
X3004Y1177D02*
X3082Y1177D01*
X3104Y1177D02*
X3182Y1177D01*
X304Y1176D02*
X382Y1176D01*
X404Y1176D02*
X482Y1176D01*
X504Y1176D02*
X582Y1176D01*
X604Y1176D02*
X682Y1176D01*
X704Y1176D02*
X782Y1176D01*
X804Y1176D02*
X882Y1176D01*
X904Y1176D02*
X982Y1176D01*
X1004Y1176D02*
X1082Y1176D01*
X1104Y1176D02*
X1182Y1176D01*
X2304Y1176D02*
X2382Y1176D01*
X2404Y1176D02*
X2482Y1176D01*
X2504Y1176D02*
X2582Y1176D01*
X2604Y1176D02*
X2682Y1176D01*
X2704Y1176D02*
X2782Y1176D01*
X2804Y1176D02*
X2882Y1176D01*
X2904Y1176D02*
X2982Y1176D01*
X3004Y1176D02*
X3082Y1176D01*
X3104Y1176D02*
X3182Y1176D01*
X304Y1175D02*
X382Y1175D01*
X404Y1175D02*
X482Y1175D01*
X504Y1175D02*
X582Y1175D01*
X604Y1175D02*
X682Y1175D01*
X704Y1175D02*
X782Y1175D01*
X804Y1175D02*
X882Y1175D01*
X904Y1175D02*
X982Y1175D01*
X1004Y1175D02*
X1082Y1175D01*
X1104Y1175D02*
X1182Y1175D01*
X2304Y1175D02*
X2382Y1175D01*
X2404Y1175D02*
X2482Y1175D01*
X2504Y1175D02*
X2582Y1175D01*
X2604Y1175D02*
X2682Y1175D01*
X2704Y1175D02*
X2782Y1175D01*
X2804Y1175D02*
X2882Y1175D01*
X2904Y1175D02*
X2982Y1175D01*
X3004Y1175D02*
X3082Y1175D01*
X3104Y1175D02*
X3182Y1175D01*
X304Y1174D02*
X383Y1174D01*
X404Y1174D02*
X483Y1174D01*
X504Y1174D02*
X583Y1174D01*
X604Y1174D02*
X683Y1174D01*
X704Y1174D02*
X783Y1174D01*
X804Y1174D02*
X883Y1174D01*
X904Y1174D02*
X983Y1174D01*
X1004Y1174D02*
X1083Y1174D01*
X1104Y1174D02*
X1183Y1174D01*
X2304Y1174D02*
X2382Y1174D01*
X2404Y1174D02*
X2482Y1174D01*
X2504Y1174D02*
X2582Y1174D01*
X2604Y1174D02*
X2682Y1174D01*
X2704Y1174D02*
X2782Y1174D01*
X2804Y1174D02*
X2882Y1174D01*
X2904Y1174D02*
X2982Y1174D01*
X3004Y1174D02*
X3082Y1174D01*
X3104Y1174D02*
X3182Y1174D01*
X304Y1173D02*
X383Y1173D01*
X404Y1173D02*
X483Y1173D01*
X504Y1173D02*
X583Y1173D01*
X604Y1173D02*
X683Y1173D01*
X704Y1173D02*
X783Y1173D01*
X804Y1173D02*
X883Y1173D01*
X904Y1173D02*
X983Y1173D01*
X1004Y1173D02*
X1083Y1173D01*
X1104Y1173D02*
X1183Y1173D01*
X2304Y1173D02*
X2382Y1173D01*
X2404Y1173D02*
X2482Y1173D01*
X2504Y1173D02*
X2582Y1173D01*
X2604Y1173D02*
X2682Y1173D01*
X2704Y1173D02*
X2782Y1173D01*
X2804Y1173D02*
X2882Y1173D01*
X2904Y1173D02*
X2982Y1173D01*
X3004Y1173D02*
X3082Y1173D01*
X3104Y1173D02*
X3182Y1173D01*
X304Y1172D02*
X383Y1172D01*
X404Y1172D02*
X483Y1172D01*
X504Y1172D02*
X583Y1172D01*
X604Y1172D02*
X683Y1172D01*
X704Y1172D02*
X783Y1172D01*
X804Y1172D02*
X883Y1172D01*
X904Y1172D02*
X983Y1172D01*
X1004Y1172D02*
X1083Y1172D01*
X1104Y1172D02*
X1183Y1172D01*
X2304Y1172D02*
X2382Y1172D01*
X2404Y1172D02*
X2482Y1172D01*
X2504Y1172D02*
X2582Y1172D01*
X2604Y1172D02*
X2682Y1172D01*
X2704Y1172D02*
X2782Y1172D01*
X2804Y1172D02*
X2882Y1172D01*
X2904Y1172D02*
X2982Y1172D01*
X3003Y1172D02*
X3082Y1172D01*
X3103Y1172D02*
X3182Y1172D01*
X304Y1171D02*
X383Y1171D01*
X404Y1171D02*
X483Y1171D01*
X504Y1171D02*
X583Y1171D01*
X604Y1171D02*
X683Y1171D01*
X704Y1171D02*
X783Y1171D01*
X804Y1171D02*
X883Y1171D01*
X904Y1171D02*
X983Y1171D01*
X1004Y1171D02*
X1083Y1171D01*
X1104Y1171D02*
X1183Y1171D01*
X2304Y1171D02*
X2382Y1171D01*
X2404Y1171D02*
X2482Y1171D01*
X2504Y1171D02*
X2582Y1171D01*
X2603Y1171D02*
X2682Y1171D01*
X2703Y1171D02*
X2782Y1171D01*
X2803Y1171D02*
X2882Y1171D01*
X2903Y1171D02*
X2982Y1171D01*
X3003Y1171D02*
X3082Y1171D01*
X3103Y1171D02*
X3182Y1171D01*
X304Y1170D02*
X383Y1170D01*
X404Y1170D02*
X483Y1170D01*
X504Y1170D02*
X583Y1170D01*
X604Y1170D02*
X683Y1170D01*
X704Y1170D02*
X783Y1170D01*
X804Y1170D02*
X883Y1170D01*
X904Y1170D02*
X983Y1170D01*
X1004Y1170D02*
X1083Y1170D01*
X1104Y1170D02*
X1183Y1170D01*
X2304Y1170D02*
X2382Y1170D01*
X2404Y1170D02*
X2482Y1170D01*
X2504Y1170D02*
X2582Y1170D01*
X2604Y1170D02*
X2682Y1170D01*
X2703Y1170D02*
X2782Y1170D01*
X2803Y1170D02*
X2882Y1170D01*
X2903Y1170D02*
X2982Y1170D01*
X3003Y1170D02*
X3082Y1170D01*
X3103Y1170D02*
X3182Y1170D01*
X304Y1169D02*
X383Y1169D01*
X404Y1169D02*
X483Y1169D01*
X504Y1169D02*
X583Y1169D01*
X604Y1169D02*
X683Y1169D01*
X704Y1169D02*
X783Y1169D01*
X804Y1169D02*
X883Y1169D01*
X904Y1169D02*
X983Y1169D01*
X1004Y1169D02*
X1083Y1169D01*
X1104Y1169D02*
X1183Y1169D01*
X2304Y1169D02*
X2382Y1169D01*
X2404Y1169D02*
X2482Y1169D01*
X2504Y1169D02*
X2582Y1169D01*
X2604Y1169D02*
X2682Y1169D01*
X2704Y1169D02*
X2782Y1169D01*
X2804Y1169D02*
X2882Y1169D01*
X2904Y1169D02*
X2982Y1169D01*
X3004Y1169D02*
X3082Y1169D01*
X3103Y1169D02*
X3182Y1169D01*
X304Y1168D02*
X383Y1168D01*
X404Y1168D02*
X483Y1168D01*
X504Y1168D02*
X583Y1168D01*
X604Y1168D02*
X683Y1168D01*
X704Y1168D02*
X783Y1168D01*
X804Y1168D02*
X883Y1168D01*
X904Y1168D02*
X983Y1168D01*
X1004Y1168D02*
X1083Y1168D01*
X1104Y1168D02*
X1183Y1168D01*
X2304Y1168D02*
X2382Y1168D01*
X2404Y1168D02*
X2482Y1168D01*
X2504Y1168D02*
X2582Y1168D01*
X2604Y1168D02*
X2682Y1168D01*
X2704Y1168D02*
X2782Y1168D01*
X2804Y1168D02*
X2882Y1168D01*
X2904Y1168D02*
X2982Y1168D01*
X3004Y1168D02*
X3082Y1168D01*
X3104Y1168D02*
X3182Y1168D01*
X304Y1167D02*
X383Y1167D01*
X404Y1167D02*
X483Y1167D01*
X504Y1167D02*
X583Y1167D01*
X604Y1167D02*
X683Y1167D01*
X704Y1167D02*
X783Y1167D01*
X804Y1167D02*
X883Y1167D01*
X904Y1167D02*
X983Y1167D01*
X1004Y1167D02*
X1083Y1167D01*
X1104Y1167D02*
X1182Y1167D01*
X2304Y1167D02*
X2382Y1167D01*
X2404Y1167D02*
X2482Y1167D01*
X2504Y1167D02*
X2582Y1167D01*
X2604Y1167D02*
X2682Y1167D01*
X2704Y1167D02*
X2782Y1167D01*
X2804Y1167D02*
X2882Y1167D01*
X2904Y1167D02*
X2982Y1167D01*
X3004Y1167D02*
X3082Y1167D01*
X3104Y1167D02*
X3182Y1167D01*
X304Y1166D02*
X382Y1166D01*
X404Y1166D02*
X482Y1166D01*
X504Y1166D02*
X582Y1166D01*
X604Y1166D02*
X682Y1166D01*
X704Y1166D02*
X782Y1166D01*
X804Y1166D02*
X882Y1166D01*
X904Y1166D02*
X982Y1166D01*
X1004Y1166D02*
X1082Y1166D01*
X1104Y1166D02*
X1182Y1166D01*
X2304Y1166D02*
X2382Y1166D01*
X2404Y1166D02*
X2482Y1166D01*
X2504Y1166D02*
X2582Y1166D01*
X2604Y1166D02*
X2682Y1166D01*
X2704Y1166D02*
X2782Y1166D01*
X2804Y1166D02*
X2882Y1166D01*
X2904Y1166D02*
X2982Y1166D01*
X3004Y1166D02*
X3082Y1166D01*
X3104Y1166D02*
X3182Y1166D01*
X304Y1165D02*
X382Y1165D01*
X404Y1165D02*
X482Y1165D01*
X504Y1165D02*
X582Y1165D01*
X604Y1165D02*
X682Y1165D01*
X704Y1165D02*
X782Y1165D01*
X804Y1165D02*
X882Y1165D01*
X904Y1165D02*
X982Y1165D01*
X1004Y1165D02*
X1082Y1165D01*
X1104Y1165D02*
X1182Y1165D01*
X2304Y1165D02*
X2382Y1165D01*
X2404Y1165D02*
X2482Y1165D01*
X2504Y1165D02*
X2582Y1165D01*
X2604Y1165D02*
X2682Y1165D01*
X2704Y1165D02*
X2782Y1165D01*
X2804Y1165D02*
X2882Y1165D01*
X2904Y1165D02*
X2982Y1165D01*
X3004Y1165D02*
X3082Y1165D01*
X3104Y1165D02*
X3182Y1165D01*
X305Y1164D02*
X382Y1164D01*
X405Y1164D02*
X482Y1164D01*
X505Y1164D02*
X582Y1164D01*
X605Y1164D02*
X682Y1164D01*
X705Y1164D02*
X782Y1164D01*
X805Y1164D02*
X882Y1164D01*
X905Y1164D02*
X982Y1164D01*
X1004Y1164D02*
X1082Y1164D01*
X1104Y1164D02*
X1182Y1164D01*
X2304Y1164D02*
X2382Y1164D01*
X2404Y1164D02*
X2482Y1164D01*
X2504Y1164D02*
X2582Y1164D01*
X2604Y1164D02*
X2682Y1164D01*
X2704Y1164D02*
X2782Y1164D01*
X2804Y1164D02*
X2882Y1164D01*
X2904Y1164D02*
X2982Y1164D01*
X3004Y1164D02*
X3082Y1164D01*
X3104Y1164D02*
X3182Y1164D01*
X305Y1163D02*
X382Y1163D01*
X405Y1163D02*
X482Y1163D01*
X505Y1163D02*
X582Y1163D01*
X605Y1163D02*
X682Y1163D01*
X705Y1163D02*
X782Y1163D01*
X805Y1163D02*
X882Y1163D01*
X905Y1163D02*
X982Y1163D01*
X1005Y1163D02*
X1082Y1163D01*
X1105Y1163D02*
X1182Y1163D01*
X2304Y1163D02*
X2382Y1163D01*
X2404Y1163D02*
X2482Y1163D01*
X2504Y1163D02*
X2582Y1163D01*
X2604Y1163D02*
X2682Y1163D01*
X2704Y1163D02*
X2781Y1163D01*
X2804Y1163D02*
X2881Y1163D01*
X2904Y1163D02*
X2981Y1163D01*
X3004Y1163D02*
X3081Y1163D01*
X3104Y1163D02*
X3181Y1163D01*
X305Y1162D02*
X382Y1162D01*
X405Y1162D02*
X482Y1162D01*
X505Y1162D02*
X582Y1162D01*
X605Y1162D02*
X682Y1162D01*
X705Y1162D02*
X782Y1162D01*
X805Y1162D02*
X882Y1162D01*
X905Y1162D02*
X981Y1162D01*
X1005Y1162D02*
X1081Y1162D01*
X1105Y1162D02*
X1181Y1162D01*
X2305Y1162D02*
X2381Y1162D01*
X2405Y1162D02*
X2481Y1162D01*
X2505Y1162D02*
X2581Y1162D01*
X2605Y1162D02*
X2681Y1162D01*
X2705Y1162D02*
X2781Y1162D01*
X2805Y1162D02*
X2881Y1162D01*
X2905Y1162D02*
X2981Y1162D01*
X3005Y1162D02*
X3081Y1162D01*
X3105Y1162D02*
X3181Y1162D01*
X305Y1161D02*
X381Y1161D01*
X405Y1161D02*
X481Y1161D01*
X505Y1161D02*
X581Y1161D01*
X605Y1161D02*
X681Y1161D01*
X705Y1161D02*
X781Y1161D01*
X805Y1161D02*
X881Y1161D01*
X905Y1161D02*
X981Y1161D01*
X1005Y1161D02*
X1081Y1161D01*
X1105Y1161D02*
X1181Y1161D01*
X2305Y1161D02*
X2381Y1161D01*
X2405Y1161D02*
X2481Y1161D01*
X2505Y1161D02*
X2581Y1161D01*
X2605Y1161D02*
X2681Y1161D01*
X2705Y1161D02*
X2781Y1161D01*
X2805Y1161D02*
X2881Y1161D01*
X2905Y1161D02*
X2981Y1161D01*
X3005Y1161D02*
X3081Y1161D01*
X3105Y1161D02*
X3181Y1161D01*
X306Y1160D02*
X381Y1160D01*
X406Y1160D02*
X481Y1160D01*
X506Y1160D02*
X581Y1160D01*
X606Y1160D02*
X681Y1160D01*
X706Y1160D02*
X781Y1160D01*
X806Y1160D02*
X881Y1160D01*
X906Y1160D02*
X981Y1160D01*
X1006Y1160D02*
X1081Y1160D01*
X1106Y1160D02*
X1181Y1160D01*
X2305Y1160D02*
X2381Y1160D01*
X2405Y1160D02*
X2481Y1160D01*
X2505Y1160D02*
X2581Y1160D01*
X2605Y1160D02*
X2681Y1160D01*
X2705Y1160D02*
X2781Y1160D01*
X2805Y1160D02*
X2881Y1160D01*
X2905Y1160D02*
X2981Y1160D01*
X3005Y1160D02*
X3081Y1160D01*
X3105Y1160D02*
X3181Y1160D01*
X306Y1159D02*
X381Y1159D01*
X406Y1159D02*
X481Y1159D01*
X506Y1159D02*
X581Y1159D01*
X606Y1159D02*
X681Y1159D01*
X706Y1159D02*
X781Y1159D01*
X806Y1159D02*
X881Y1159D01*
X906Y1159D02*
X981Y1159D01*
X1006Y1159D02*
X1081Y1159D01*
X1106Y1159D02*
X1181Y1159D01*
X2306Y1159D02*
X2380Y1159D01*
X2406Y1159D02*
X2480Y1159D01*
X2506Y1159D02*
X2580Y1159D01*
X2606Y1159D02*
X2680Y1159D01*
X2706Y1159D02*
X2780Y1159D01*
X2806Y1159D02*
X2880Y1159D01*
X2906Y1159D02*
X2980Y1159D01*
X3006Y1159D02*
X3080Y1159D01*
X3106Y1159D02*
X3180Y1159D01*
X306Y1158D02*
X380Y1158D01*
X406Y1158D02*
X480Y1158D01*
X506Y1158D02*
X580Y1158D01*
X606Y1158D02*
X680Y1158D01*
X706Y1158D02*
X780Y1158D01*
X806Y1158D02*
X880Y1158D01*
X906Y1158D02*
X980Y1158D01*
X1006Y1158D02*
X1080Y1158D01*
X1106Y1158D02*
X1180Y1158D01*
X2306Y1158D02*
X2380Y1158D01*
X2406Y1158D02*
X2480Y1158D01*
X2506Y1158D02*
X2580Y1158D01*
X2606Y1158D02*
X2680Y1158D01*
X2706Y1158D02*
X2780Y1158D01*
X2806Y1158D02*
X2880Y1158D01*
X2906Y1158D02*
X2980Y1158D01*
X3006Y1158D02*
X3080Y1158D01*
X3106Y1158D02*
X3180Y1158D01*
X307Y1157D02*
X380Y1157D01*
X407Y1157D02*
X480Y1157D01*
X507Y1157D02*
X580Y1157D01*
X607Y1157D02*
X680Y1157D01*
X707Y1157D02*
X780Y1157D01*
X807Y1157D02*
X880Y1157D01*
X907Y1157D02*
X980Y1157D01*
X1007Y1157D02*
X1080Y1157D01*
X1107Y1157D02*
X1180Y1157D01*
X2307Y1157D02*
X2380Y1157D01*
X2407Y1157D02*
X2479Y1157D01*
X2506Y1157D02*
X2579Y1157D01*
X2606Y1157D02*
X2679Y1157D01*
X2706Y1157D02*
X2779Y1157D01*
X2806Y1157D02*
X2879Y1157D01*
X2906Y1157D02*
X2979Y1157D01*
X3006Y1157D02*
X3079Y1157D01*
X3106Y1157D02*
X3179Y1157D01*
X307Y1156D02*
X379Y1156D01*
X407Y1156D02*
X479Y1156D01*
X507Y1156D02*
X579Y1156D01*
X607Y1156D02*
X679Y1156D01*
X707Y1156D02*
X779Y1156D01*
X807Y1156D02*
X879Y1156D01*
X907Y1156D02*
X979Y1156D01*
X1007Y1156D02*
X1079Y1156D01*
X1107Y1156D02*
X1179Y1156D01*
X2307Y1156D02*
X2379Y1156D01*
X2407Y1156D02*
X2479Y1156D01*
X2507Y1156D02*
X2579Y1156D01*
X2607Y1156D02*
X2679Y1156D01*
X2707Y1156D02*
X2779Y1156D01*
X2807Y1156D02*
X2879Y1156D01*
X2907Y1156D02*
X2979Y1156D01*
X3007Y1156D02*
X3079Y1156D01*
X3107Y1156D02*
X3179Y1156D01*
X308Y1155D02*
X379Y1155D01*
X408Y1155D02*
X479Y1155D01*
X508Y1155D02*
X579Y1155D01*
X608Y1155D02*
X679Y1155D01*
X708Y1155D02*
X779Y1155D01*
X808Y1155D02*
X879Y1155D01*
X908Y1155D02*
X979Y1155D01*
X1008Y1155D02*
X1079Y1155D01*
X1108Y1155D02*
X1179Y1155D01*
X2307Y1155D02*
X2379Y1155D01*
X2407Y1155D02*
X2479Y1155D01*
X2507Y1155D02*
X2579Y1155D01*
X2607Y1155D02*
X2679Y1155D01*
X2707Y1155D02*
X2779Y1155D01*
X2807Y1155D02*
X2879Y1155D01*
X2907Y1155D02*
X2978Y1155D01*
X3007Y1155D02*
X3078Y1155D01*
X3107Y1155D02*
X3178Y1155D01*
X308Y1154D02*
X378Y1154D01*
X408Y1154D02*
X478Y1154D01*
X508Y1154D02*
X578Y1154D01*
X608Y1154D02*
X678Y1154D01*
X708Y1154D02*
X778Y1154D01*
X808Y1154D02*
X878Y1154D01*
X908Y1154D02*
X978Y1154D01*
X1008Y1154D02*
X1078Y1154D01*
X1108Y1154D02*
X1178Y1154D01*
X2308Y1154D02*
X2378Y1154D01*
X2408Y1154D02*
X2478Y1154D01*
X2508Y1154D02*
X2578Y1154D01*
X2608Y1154D02*
X2678Y1154D01*
X2708Y1154D02*
X2778Y1154D01*
X2808Y1154D02*
X2878Y1154D01*
X2908Y1154D02*
X2978Y1154D01*
X3008Y1154D02*
X3078Y1154D01*
X3108Y1154D02*
X3178Y1154D01*
X309Y1153D02*
X378Y1153D01*
X409Y1153D02*
X478Y1153D01*
X509Y1153D02*
X578Y1153D01*
X609Y1153D02*
X678Y1153D01*
X709Y1153D02*
X778Y1153D01*
X809Y1153D02*
X878Y1153D01*
X909Y1153D02*
X978Y1153D01*
X1009Y1153D02*
X1078Y1153D01*
X1109Y1153D02*
X1178Y1153D01*
X2308Y1153D02*
X2378Y1153D01*
X2408Y1153D02*
X2478Y1153D01*
X2508Y1153D02*
X2577Y1153D01*
X2608Y1153D02*
X2677Y1153D01*
X2708Y1153D02*
X2777Y1153D01*
X2808Y1153D02*
X2877Y1153D01*
X2908Y1153D02*
X2977Y1153D01*
X3008Y1153D02*
X3077Y1153D01*
X3108Y1153D02*
X3177Y1153D01*
X309Y1152D02*
X377Y1152D01*
X409Y1152D02*
X477Y1152D01*
X509Y1152D02*
X577Y1152D01*
X609Y1152D02*
X677Y1152D01*
X709Y1152D02*
X777Y1152D01*
X809Y1152D02*
X877Y1152D01*
X909Y1152D02*
X977Y1152D01*
X1009Y1152D02*
X1077Y1152D01*
X1109Y1152D02*
X1177Y1152D01*
X2309Y1152D02*
X2377Y1152D01*
X2409Y1152D02*
X2477Y1152D01*
X2509Y1152D02*
X2577Y1152D01*
X2609Y1152D02*
X2677Y1152D01*
X2709Y1152D02*
X2777Y1152D01*
X2809Y1152D02*
X2877Y1152D01*
X2909Y1152D02*
X2977Y1152D01*
X3009Y1152D02*
X3077Y1152D01*
X3109Y1152D02*
X3177Y1152D01*
X310Y1151D02*
X377Y1151D01*
X410Y1151D02*
X477Y1151D01*
X510Y1151D02*
X577Y1151D01*
X610Y1151D02*
X677Y1151D01*
X710Y1151D02*
X777Y1151D01*
X810Y1151D02*
X877Y1151D01*
X910Y1151D02*
X977Y1151D01*
X1010Y1151D02*
X1077Y1151D01*
X1110Y1151D02*
X1177Y1151D01*
X2310Y1151D02*
X2376Y1151D01*
X2410Y1151D02*
X2476Y1151D01*
X2510Y1151D02*
X2576Y1151D01*
X2610Y1151D02*
X2676Y1151D01*
X2710Y1151D02*
X2776Y1151D01*
X2810Y1151D02*
X2876Y1151D01*
X2910Y1151D02*
X2976Y1151D01*
X3010Y1151D02*
X3076Y1151D01*
X3110Y1151D02*
X3176Y1151D01*
X311Y1150D02*
X376Y1150D01*
X411Y1150D02*
X476Y1150D01*
X511Y1150D02*
X576Y1150D01*
X611Y1150D02*
X676Y1150D01*
X711Y1150D02*
X776Y1150D01*
X811Y1150D02*
X876Y1150D01*
X911Y1150D02*
X976Y1150D01*
X1011Y1150D02*
X1076Y1150D01*
X1111Y1150D02*
X1176Y1150D01*
X2310Y1150D02*
X2376Y1150D01*
X2410Y1150D02*
X2476Y1150D01*
X2510Y1150D02*
X2576Y1150D01*
X2610Y1150D02*
X2676Y1150D01*
X2710Y1150D02*
X2776Y1150D01*
X2810Y1150D02*
X2876Y1150D01*
X2910Y1150D02*
X2976Y1150D01*
X3010Y1150D02*
X3076Y1150D01*
X3110Y1150D02*
X3176Y1150D01*
X311Y1149D02*
X375Y1149D01*
X411Y1149D02*
X475Y1149D01*
X511Y1149D02*
X575Y1149D01*
X611Y1149D02*
X675Y1149D01*
X711Y1149D02*
X775Y1149D01*
X811Y1149D02*
X875Y1149D01*
X911Y1149D02*
X975Y1149D01*
X1011Y1149D02*
X1075Y1149D01*
X1111Y1149D02*
X1175Y1149D01*
X2311Y1149D02*
X2375Y1149D01*
X2411Y1149D02*
X2475Y1149D01*
X2511Y1149D02*
X2575Y1149D01*
X2611Y1149D02*
X2675Y1149D01*
X2711Y1149D02*
X2775Y1149D01*
X2811Y1149D02*
X2875Y1149D01*
X2911Y1149D02*
X2975Y1149D01*
X3011Y1149D02*
X3075Y1149D01*
X3111Y1149D02*
X3175Y1149D01*
X312Y1148D02*
X375Y1148D01*
X412Y1148D02*
X475Y1148D01*
X512Y1148D02*
X575Y1148D01*
X612Y1148D02*
X674Y1148D01*
X712Y1148D02*
X774Y1148D01*
X812Y1148D02*
X874Y1148D01*
X912Y1148D02*
X974Y1148D01*
X1012Y1148D02*
X1074Y1148D01*
X1112Y1148D02*
X1174Y1148D01*
X2312Y1148D02*
X2374Y1148D01*
X2412Y1148D02*
X2474Y1148D01*
X2512Y1148D02*
X2574Y1148D01*
X2612Y1148D02*
X2674Y1148D01*
X2712Y1148D02*
X2774Y1148D01*
X2812Y1148D02*
X2874Y1148D01*
X2912Y1148D02*
X2974Y1148D01*
X3012Y1148D02*
X3074Y1148D01*
X3112Y1148D02*
X3174Y1148D01*
X313Y1147D02*
X374Y1147D01*
X413Y1147D02*
X474Y1147D01*
X513Y1147D02*
X574Y1147D01*
X613Y1147D02*
X674Y1147D01*
X713Y1147D02*
X774Y1147D01*
X813Y1147D02*
X874Y1147D01*
X913Y1147D02*
X974Y1147D01*
X1013Y1147D02*
X1074Y1147D01*
X1113Y1147D02*
X1174Y1147D01*
X2313Y1147D02*
X2373Y1147D01*
X2413Y1147D02*
X2473Y1147D01*
X2513Y1147D02*
X2573Y1147D01*
X2613Y1147D02*
X2673Y1147D01*
X2713Y1147D02*
X2773Y1147D01*
X2813Y1147D02*
X2873Y1147D01*
X2912Y1147D02*
X2973Y1147D01*
X3012Y1147D02*
X3073Y1147D01*
X3112Y1147D02*
X3173Y1147D01*
X314Y1146D02*
X373Y1146D01*
X414Y1146D02*
X473Y1146D01*
X514Y1146D02*
X573Y1146D01*
X614Y1146D02*
X673Y1146D01*
X714Y1146D02*
X773Y1146D01*
X814Y1146D02*
X873Y1146D01*
X914Y1146D02*
X973Y1146D01*
X1014Y1146D02*
X1073Y1146D01*
X1114Y1146D02*
X1173Y1146D01*
X2313Y1146D02*
X2373Y1146D01*
X2413Y1146D02*
X2473Y1146D01*
X2513Y1146D02*
X2573Y1146D01*
X2613Y1146D02*
X2673Y1146D01*
X2713Y1146D02*
X2773Y1146D01*
X2813Y1146D02*
X2873Y1146D01*
X2913Y1146D02*
X2973Y1146D01*
X3013Y1146D02*
X3073Y1146D01*
X3113Y1146D02*
X3173Y1146D01*
X315Y1145D02*
X372Y1145D01*
X415Y1145D02*
X472Y1145D01*
X515Y1145D02*
X572Y1145D01*
X615Y1145D02*
X672Y1145D01*
X715Y1145D02*
X772Y1145D01*
X815Y1145D02*
X872Y1145D01*
X915Y1145D02*
X972Y1145D01*
X1015Y1145D02*
X1072Y1145D01*
X1114Y1145D02*
X1172Y1145D01*
X2314Y1145D02*
X2372Y1145D01*
X2414Y1145D02*
X2472Y1145D01*
X2514Y1145D02*
X2572Y1145D01*
X2614Y1145D02*
X2672Y1145D01*
X2714Y1145D02*
X2772Y1145D01*
X2814Y1145D02*
X2872Y1145D01*
X2914Y1145D02*
X2972Y1145D01*
X3014Y1145D02*
X3072Y1145D01*
X3114Y1145D02*
X3172Y1145D01*
X316Y1144D02*
X371Y1144D01*
X416Y1144D02*
X471Y1144D01*
X516Y1144D02*
X571Y1144D01*
X616Y1144D02*
X671Y1144D01*
X715Y1144D02*
X771Y1144D01*
X815Y1144D02*
X871Y1144D01*
X915Y1144D02*
X971Y1144D01*
X1015Y1144D02*
X1071Y1144D01*
X1115Y1144D02*
X1171Y1144D01*
X2315Y1144D02*
X2371Y1144D01*
X2415Y1144D02*
X2471Y1144D01*
X2515Y1144D02*
X2571Y1144D01*
X2615Y1144D02*
X2671Y1144D01*
X2715Y1144D02*
X2771Y1144D01*
X2815Y1144D02*
X2871Y1144D01*
X2915Y1144D02*
X2971Y1144D01*
X3015Y1144D02*
X3071Y1144D01*
X3115Y1144D02*
X3171Y1144D01*
X317Y1143D02*
X370Y1143D01*
X416Y1143D02*
X470Y1143D01*
X516Y1143D02*
X570Y1143D01*
X616Y1143D02*
X670Y1143D01*
X716Y1143D02*
X770Y1143D01*
X816Y1143D02*
X870Y1143D01*
X916Y1143D02*
X970Y1143D01*
X1016Y1143D02*
X1070Y1143D01*
X1116Y1143D02*
X1170Y1143D01*
X2316Y1143D02*
X2370Y1143D01*
X2416Y1143D02*
X2470Y1143D01*
X2516Y1143D02*
X2570Y1143D01*
X2616Y1143D02*
X2670Y1143D01*
X2716Y1143D02*
X2770Y1143D01*
X2816Y1143D02*
X2870Y1143D01*
X2916Y1143D02*
X2970Y1143D01*
X3016Y1143D02*
X3070Y1143D01*
X3116Y1143D02*
X3170Y1143D01*
X318Y1142D02*
X369Y1142D01*
X418Y1142D02*
X469Y1142D01*
X518Y1142D02*
X569Y1142D01*
X618Y1142D02*
X669Y1142D01*
X718Y1142D02*
X769Y1142D01*
X818Y1142D02*
X869Y1142D01*
X917Y1142D02*
X969Y1142D01*
X1017Y1142D02*
X1069Y1142D01*
X1117Y1142D02*
X1169Y1142D01*
X2317Y1142D02*
X2369Y1142D01*
X2417Y1142D02*
X2469Y1142D01*
X2517Y1142D02*
X2569Y1142D01*
X2617Y1142D02*
X2669Y1142D01*
X2717Y1142D02*
X2769Y1142D01*
X2817Y1142D02*
X2869Y1142D01*
X2917Y1142D02*
X2969Y1142D01*
X3017Y1142D02*
X3069Y1142D01*
X3117Y1142D02*
X3169Y1142D01*
X319Y1141D02*
X368Y1141D01*
X419Y1141D02*
X468Y1141D01*
X519Y1141D02*
X568Y1141D01*
X619Y1141D02*
X668Y1141D01*
X719Y1141D02*
X768Y1141D01*
X819Y1141D02*
X868Y1141D01*
X919Y1141D02*
X968Y1141D01*
X1019Y1141D02*
X1068Y1141D01*
X1119Y1141D02*
X1168Y1141D01*
X2318Y1141D02*
X2368Y1141D01*
X2418Y1141D02*
X2468Y1141D01*
X2518Y1141D02*
X2568Y1141D01*
X2618Y1141D02*
X2668Y1141D01*
X2718Y1141D02*
X2768Y1141D01*
X2818Y1141D02*
X2868Y1141D01*
X2918Y1141D02*
X2968Y1141D01*
X3018Y1141D02*
X3068Y1141D01*
X3118Y1141D02*
X3168Y1141D01*
X320Y1140D02*
X367Y1140D01*
X420Y1140D02*
X467Y1140D01*
X520Y1140D02*
X567Y1140D01*
X620Y1140D02*
X667Y1140D01*
X720Y1140D02*
X767Y1140D01*
X820Y1140D02*
X867Y1140D01*
X920Y1140D02*
X967Y1140D01*
X1020Y1140D02*
X1067Y1140D01*
X1120Y1140D02*
X1167Y1140D01*
X2320Y1140D02*
X2367Y1140D01*
X2420Y1140D02*
X2466Y1140D01*
X2519Y1140D02*
X2566Y1140D01*
X2619Y1140D02*
X2666Y1140D01*
X2719Y1140D02*
X2766Y1140D01*
X2819Y1140D02*
X2866Y1140D01*
X2919Y1140D02*
X2966Y1140D01*
X3019Y1140D02*
X3066Y1140D01*
X3119Y1140D02*
X3166Y1140D01*
X321Y1139D02*
X366Y1139D01*
X421Y1139D02*
X466Y1139D01*
X521Y1139D02*
X566Y1139D01*
X621Y1139D02*
X666Y1139D01*
X721Y1139D02*
X765Y1139D01*
X821Y1139D02*
X865Y1139D01*
X921Y1139D02*
X965Y1139D01*
X1021Y1139D02*
X1065Y1139D01*
X1121Y1139D02*
X1165Y1139D01*
X2321Y1139D02*
X2365Y1139D01*
X2421Y1139D02*
X2465Y1139D01*
X2521Y1139D02*
X2565Y1139D01*
X2621Y1139D02*
X2665Y1139D01*
X2721Y1139D02*
X2765Y1139D01*
X2821Y1139D02*
X2865Y1139D01*
X2921Y1139D02*
X2965Y1139D01*
X3021Y1139D02*
X3065Y1139D01*
X3121Y1139D02*
X3165Y1139D01*
X322Y1138D02*
X364Y1138D01*
X422Y1138D02*
X464Y1138D01*
X522Y1138D02*
X564Y1138D01*
X622Y1138D02*
X664Y1138D01*
X722Y1138D02*
X764Y1138D01*
X822Y1138D02*
X864Y1138D01*
X922Y1138D02*
X964Y1138D01*
X1022Y1138D02*
X1064Y1138D01*
X1122Y1138D02*
X1164Y1138D01*
X2322Y1138D02*
X2364Y1138D01*
X2422Y1138D02*
X2464Y1138D01*
X2522Y1138D02*
X2564Y1138D01*
X2622Y1138D02*
X2664Y1138D01*
X2722Y1138D02*
X2764Y1138D01*
X2822Y1138D02*
X2864Y1138D01*
X2922Y1138D02*
X2964Y1138D01*
X3022Y1138D02*
X3064Y1138D01*
X3122Y1138D02*
X3164Y1138D01*
X324Y1137D02*
X363Y1137D01*
X424Y1137D02*
X463Y1137D01*
X524Y1137D02*
X563Y1137D01*
X624Y1137D02*
X663Y1137D01*
X724Y1137D02*
X763Y1137D01*
X824Y1137D02*
X863Y1137D01*
X924Y1137D02*
X963Y1137D01*
X1024Y1137D02*
X1063Y1137D01*
X1124Y1137D02*
X1163Y1137D01*
X2324Y1137D02*
X2362Y1137D01*
X2424Y1137D02*
X2462Y1137D01*
X2524Y1137D02*
X2562Y1137D01*
X2624Y1137D02*
X2662Y1137D01*
X2724Y1137D02*
X2762Y1137D01*
X2824Y1137D02*
X2862Y1137D01*
X2924Y1137D02*
X2962Y1137D01*
X3024Y1137D02*
X3062Y1137D01*
X3124Y1137D02*
X3162Y1137D01*
X326Y1136D02*
X361Y1136D01*
X426Y1136D02*
X461Y1136D01*
X526Y1136D02*
X561Y1136D01*
X625Y1136D02*
X661Y1136D01*
X725Y1136D02*
X761Y1136D01*
X825Y1136D02*
X861Y1136D01*
X925Y1136D02*
X961Y1136D01*
X1025Y1136D02*
X1061Y1136D01*
X1125Y1136D02*
X1161Y1136D01*
X2325Y1136D02*
X2361Y1136D01*
X2425Y1136D02*
X2461Y1136D01*
X2525Y1136D02*
X2561Y1136D01*
X2625Y1136D02*
X2661Y1136D01*
X2725Y1136D02*
X2761Y1136D01*
X2825Y1136D02*
X2861Y1136D01*
X2925Y1136D02*
X2961Y1136D01*
X3025Y1136D02*
X3061Y1136D01*
X3125Y1136D02*
X3161Y1136D01*
X327Y1135D02*
X359Y1135D01*
X427Y1135D02*
X459Y1135D01*
X527Y1135D02*
X559Y1135D01*
X627Y1135D02*
X659Y1135D01*
X727Y1135D02*
X759Y1135D01*
X827Y1135D02*
X859Y1135D01*
X927Y1135D02*
X959Y1135D01*
X1027Y1135D02*
X1059Y1135D01*
X1127Y1135D02*
X1159Y1135D01*
X2327Y1135D02*
X2359Y1135D01*
X2427Y1135D02*
X2459Y1135D01*
X2527Y1135D02*
X2559Y1135D01*
X2627Y1135D02*
X2659Y1135D01*
X2727Y1135D02*
X2759Y1135D01*
X2827Y1135D02*
X2859Y1135D01*
X2927Y1135D02*
X2959Y1135D01*
X3027Y1135D02*
X3059Y1135D01*
X3127Y1135D02*
X3159Y1135D01*
X329Y1134D02*
X357Y1134D01*
X429Y1134D02*
X457Y1134D01*
X529Y1134D02*
X557Y1134D01*
X629Y1134D02*
X657Y1134D01*
X729Y1134D02*
X757Y1134D01*
X829Y1134D02*
X857Y1134D01*
X929Y1134D02*
X957Y1134D01*
X1029Y1134D02*
X1057Y1134D01*
X1129Y1134D02*
X1157Y1134D01*
X2329Y1134D02*
X2357Y1134D01*
X2429Y1134D02*
X2457Y1134D01*
X2529Y1134D02*
X2557Y1134D01*
X2629Y1134D02*
X2657Y1134D01*
X2729Y1134D02*
X2757Y1134D01*
X2829Y1134D02*
X2857Y1134D01*
X2929Y1134D02*
X2957Y1134D01*
X3029Y1134D02*
X3057Y1134D01*
X3129Y1134D02*
X3157Y1134D01*
X332Y1133D02*
X355Y1133D01*
X432Y1133D02*
X455Y1133D01*
X532Y1133D02*
X555Y1133D01*
X632Y1133D02*
X655Y1133D01*
X732Y1133D02*
X755Y1133D01*
X832Y1133D02*
X855Y1133D01*
X932Y1133D02*
X955Y1133D01*
X1032Y1133D02*
X1055Y1133D01*
X1132Y1133D02*
X1155Y1133D01*
X2331Y1133D02*
X2355Y1133D01*
X2431Y1133D02*
X2455Y1133D01*
X2531Y1133D02*
X2555Y1133D01*
X2631Y1133D02*
X2655Y1133D01*
X2731Y1133D02*
X2754Y1133D01*
X2831Y1133D02*
X2854Y1133D01*
X2931Y1133D02*
X2954Y1133D01*
X3031Y1133D02*
X3054Y1133D01*
X3131Y1133D02*
X3154Y1133D01*
X335Y1132D02*
X352Y1132D01*
X435Y1132D02*
X452Y1132D01*
X535Y1132D02*
X552Y1132D01*
X635Y1132D02*
X652Y1132D01*
X735Y1132D02*
X752Y1132D01*
X835Y1132D02*
X852Y1132D01*
X935Y1132D02*
X952Y1132D01*
X1035Y1132D02*
X1052Y1132D01*
X1135Y1132D02*
X1152Y1132D01*
X2335Y1132D02*
X2352Y1132D01*
X2434Y1132D02*
X2452Y1132D01*
X2534Y1132D02*
X2551Y1132D01*
X2634Y1132D02*
X2651Y1132D01*
X2734Y1132D02*
X2751Y1132D01*
X2834Y1132D02*
X2851Y1132D01*
X2934Y1132D02*
X2951Y1132D01*
X3034Y1132D02*
X3051Y1132D01*
X3134Y1132D02*
X3151Y1132D01*
X339Y1131D02*
X347Y1131D01*
X439Y1131D02*
X447Y1131D01*
X539Y1131D02*
X547Y1131D01*
X639Y1131D02*
X647Y1131D01*
X739Y1131D02*
X747Y1131D01*
X839Y1131D02*
X847Y1131D01*
X939Y1131D02*
X947Y1131D01*
X1039Y1131D02*
X1047Y1131D01*
X1139Y1131D02*
X1147Y1131D01*
X2339Y1131D02*
X2347Y1131D01*
X2439Y1131D02*
X2447Y1131D01*
X2539Y1131D02*
X2547Y1131D01*
X2639Y1131D02*
X2647Y1131D01*
X2739Y1131D02*
X2747Y1131D01*
X2839Y1131D02*
X2847Y1131D01*
X2939Y1131D02*
X2947Y1131D01*
X3039Y1131D02*
X3047Y1131D01*
X3139Y1131D02*
X3147Y1131D01*
X338Y910D02*
X349Y910D01*
X438Y910D02*
X449Y910D01*
X538Y910D02*
X549Y910D01*
X638Y910D02*
X649Y910D01*
X738Y910D02*
X749Y910D01*
X838Y910D02*
X849Y910D01*
X938Y910D02*
X949Y910D01*
X1038Y910D02*
X1049Y910D01*
X1138Y910D02*
X1149Y910D01*
X2337Y910D02*
X2349Y910D01*
X2437Y910D02*
X2449Y910D01*
X2537Y910D02*
X2549Y910D01*
X2637Y910D02*
X2649Y910D01*
X2737Y910D02*
X2749Y910D01*
X2837Y910D02*
X2849Y910D01*
X2937Y910D02*
X2949Y910D01*
X3037Y910D02*
X3049Y910D01*
X3137Y910D02*
X3149Y910D01*
X334Y909D02*
X353Y909D01*
X434Y909D02*
X453Y909D01*
X534Y909D02*
X553Y909D01*
X634Y909D02*
X653Y909D01*
X734Y909D02*
X753Y909D01*
X834Y909D02*
X853Y909D01*
X934Y909D02*
X953Y909D01*
X1034Y909D02*
X1053Y909D01*
X1134Y909D02*
X1153Y909D01*
X2333Y909D02*
X2353Y909D01*
X2433Y909D02*
X2453Y909D01*
X2533Y909D02*
X2553Y909D01*
X2633Y909D02*
X2653Y909D01*
X2733Y909D02*
X2753Y909D01*
X2833Y909D02*
X2853Y909D01*
X2933Y909D02*
X2953Y909D01*
X3033Y909D02*
X3052Y909D01*
X3133Y909D02*
X3152Y909D01*
X331Y908D02*
X356Y908D01*
X431Y908D02*
X456Y908D01*
X531Y908D02*
X556Y908D01*
X631Y908D02*
X656Y908D01*
X731Y908D02*
X756Y908D01*
X831Y908D02*
X856Y908D01*
X931Y908D02*
X956Y908D01*
X1031Y908D02*
X1056Y908D01*
X1131Y908D02*
X1156Y908D01*
X2331Y908D02*
X2355Y908D01*
X2431Y908D02*
X2455Y908D01*
X2531Y908D02*
X2555Y908D01*
X2631Y908D02*
X2655Y908D01*
X2731Y908D02*
X2755Y908D01*
X2831Y908D02*
X2855Y908D01*
X2931Y908D02*
X2955Y908D01*
X3031Y908D02*
X3055Y908D01*
X3131Y908D02*
X3155Y908D01*
X329Y907D02*
X358Y907D01*
X429Y907D02*
X458Y907D01*
X529Y907D02*
X558Y907D01*
X629Y907D02*
X658Y907D01*
X729Y907D02*
X758Y907D01*
X829Y907D02*
X858Y907D01*
X929Y907D02*
X958Y907D01*
X1029Y907D02*
X1058Y907D01*
X1129Y907D02*
X1158Y907D01*
X2328Y907D02*
X2358Y907D01*
X2428Y907D02*
X2458Y907D01*
X2528Y907D02*
X2558Y907D01*
X2628Y907D02*
X2658Y907D01*
X2728Y907D02*
X2758Y907D01*
X2828Y907D02*
X2858Y907D01*
X2928Y907D02*
X2958Y907D01*
X3028Y907D02*
X3058Y907D01*
X3128Y907D02*
X3158Y907D01*
X327Y906D02*
X360Y906D01*
X427Y906D02*
X460Y906D01*
X527Y906D02*
X560Y906D01*
X627Y906D02*
X660Y906D01*
X727Y906D02*
X760Y906D01*
X827Y906D02*
X860Y906D01*
X927Y906D02*
X960Y906D01*
X1027Y906D02*
X1060Y906D01*
X1127Y906D02*
X1160Y906D01*
X2326Y906D02*
X2360Y906D01*
X2426Y906D02*
X2460Y906D01*
X2526Y906D02*
X2560Y906D01*
X2626Y906D02*
X2660Y906D01*
X2726Y906D02*
X2759Y906D01*
X2826Y906D02*
X2859Y906D01*
X2926Y906D02*
X2959Y906D01*
X3026Y906D02*
X3059Y906D01*
X3126Y906D02*
X3159Y906D01*
X325Y905D02*
X362Y905D01*
X425Y905D02*
X462Y905D01*
X525Y905D02*
X562Y905D01*
X625Y905D02*
X662Y905D01*
X725Y905D02*
X762Y905D01*
X825Y905D02*
X862Y905D01*
X925Y905D02*
X962Y905D01*
X1025Y905D02*
X1062Y905D01*
X1125Y905D02*
X1162Y905D01*
X2325Y905D02*
X2361Y905D01*
X2425Y905D02*
X2461Y905D01*
X2525Y905D02*
X2561Y905D01*
X2625Y905D02*
X2661Y905D01*
X2725Y905D02*
X2761Y905D01*
X2825Y905D02*
X2861Y905D01*
X2925Y905D02*
X2961Y905D01*
X3025Y905D02*
X3061Y905D01*
X3125Y905D02*
X3161Y905D01*
X323Y904D02*
X363Y904D01*
X423Y904D02*
X463Y904D01*
X523Y904D02*
X563Y904D01*
X623Y904D02*
X663Y904D01*
X723Y904D02*
X763Y904D01*
X823Y904D02*
X863Y904D01*
X923Y904D02*
X963Y904D01*
X1023Y904D02*
X1063Y904D01*
X1123Y904D02*
X1163Y904D01*
X2323Y904D02*
X2363Y904D01*
X2423Y904D02*
X2463Y904D01*
X2523Y904D02*
X2563Y904D01*
X2623Y904D02*
X2663Y904D01*
X2723Y904D02*
X2763Y904D01*
X2823Y904D02*
X2863Y904D01*
X2923Y904D02*
X2963Y904D01*
X3023Y904D02*
X3063Y904D01*
X3123Y904D02*
X3163Y904D01*
X322Y903D02*
X365Y903D01*
X422Y903D02*
X465Y903D01*
X522Y903D02*
X565Y903D01*
X622Y903D02*
X665Y903D01*
X722Y903D02*
X765Y903D01*
X822Y903D02*
X865Y903D01*
X922Y903D02*
X965Y903D01*
X1022Y903D02*
X1065Y903D01*
X1122Y903D02*
X1165Y903D01*
X2322Y903D02*
X2364Y903D01*
X2422Y903D02*
X2464Y903D01*
X2522Y903D02*
X2564Y903D01*
X2622Y903D02*
X2664Y903D01*
X2722Y903D02*
X2764Y903D01*
X2822Y903D02*
X2864Y903D01*
X2922Y903D02*
X2964Y903D01*
X3022Y903D02*
X3064Y903D01*
X3122Y903D02*
X3164Y903D01*
X321Y902D02*
X366Y902D01*
X421Y902D02*
X466Y902D01*
X521Y902D02*
X566Y902D01*
X621Y902D02*
X666Y902D01*
X721Y902D02*
X766Y902D01*
X821Y902D02*
X866Y902D01*
X921Y902D02*
X966Y902D01*
X1021Y902D02*
X1066Y902D01*
X1121Y902D02*
X1166Y902D01*
X2320Y902D02*
X2366Y902D01*
X2420Y902D02*
X2466Y902D01*
X2520Y902D02*
X2566Y902D01*
X2620Y902D02*
X2666Y902D01*
X2720Y902D02*
X2766Y902D01*
X2820Y902D02*
X2866Y902D01*
X2920Y902D02*
X2966Y902D01*
X3020Y902D02*
X3066Y902D01*
X3120Y902D02*
X3166Y902D01*
X319Y901D02*
X367Y901D01*
X419Y901D02*
X467Y901D01*
X519Y901D02*
X567Y901D01*
X619Y901D02*
X667Y901D01*
X719Y901D02*
X767Y901D01*
X819Y901D02*
X867Y901D01*
X919Y901D02*
X967Y901D01*
X1019Y901D02*
X1067Y901D01*
X1119Y901D02*
X1167Y901D01*
X2319Y901D02*
X2367Y901D01*
X2419Y901D02*
X2467Y901D01*
X2519Y901D02*
X2567Y901D01*
X2619Y901D02*
X2667Y901D01*
X2719Y901D02*
X2767Y901D01*
X2819Y901D02*
X2867Y901D01*
X2919Y901D02*
X2967Y901D01*
X3019Y901D02*
X3067Y901D01*
X3119Y901D02*
X3167Y901D01*
X318Y900D02*
X368Y900D01*
X418Y900D02*
X468Y900D01*
X518Y900D02*
X568Y900D01*
X618Y900D02*
X668Y900D01*
X718Y900D02*
X768Y900D01*
X818Y900D02*
X868Y900D01*
X918Y900D02*
X968Y900D01*
X1018Y900D02*
X1068Y900D01*
X1118Y900D02*
X1168Y900D01*
X2318Y900D02*
X2368Y900D01*
X2418Y900D02*
X2468Y900D01*
X2518Y900D02*
X2568Y900D01*
X2618Y900D02*
X2668Y900D01*
X2718Y900D02*
X2768Y900D01*
X2818Y900D02*
X2868Y900D01*
X2918Y900D02*
X2968Y900D01*
X3018Y900D02*
X3068Y900D01*
X3118Y900D02*
X3168Y900D01*
X317Y899D02*
X369Y899D01*
X417Y899D02*
X469Y899D01*
X517Y899D02*
X569Y899D01*
X617Y899D02*
X669Y899D01*
X717Y899D02*
X769Y899D01*
X817Y899D02*
X869Y899D01*
X917Y899D02*
X969Y899D01*
X1017Y899D02*
X1069Y899D01*
X1117Y899D02*
X1169Y899D01*
X2317Y899D02*
X2369Y899D01*
X2417Y899D02*
X2469Y899D01*
X2517Y899D02*
X2569Y899D01*
X2617Y899D02*
X2669Y899D01*
X2717Y899D02*
X2769Y899D01*
X2817Y899D02*
X2869Y899D01*
X2917Y899D02*
X2969Y899D01*
X3017Y899D02*
X3069Y899D01*
X3117Y899D02*
X3169Y899D01*
X316Y898D02*
X370Y898D01*
X416Y898D02*
X470Y898D01*
X516Y898D02*
X570Y898D01*
X616Y898D02*
X670Y898D01*
X716Y898D02*
X770Y898D01*
X816Y898D02*
X870Y898D01*
X916Y898D02*
X970Y898D01*
X1016Y898D02*
X1070Y898D01*
X1116Y898D02*
X1170Y898D01*
X2316Y898D02*
X2370Y898D01*
X2416Y898D02*
X2470Y898D01*
X2516Y898D02*
X2570Y898D01*
X2616Y898D02*
X2670Y898D01*
X2716Y898D02*
X2770Y898D01*
X2816Y898D02*
X2870Y898D01*
X2916Y898D02*
X2970Y898D01*
X3016Y898D02*
X3070Y898D01*
X3116Y898D02*
X3170Y898D01*
X315Y897D02*
X371Y897D01*
X415Y897D02*
X471Y897D01*
X515Y897D02*
X571Y897D01*
X615Y897D02*
X671Y897D01*
X715Y897D02*
X771Y897D01*
X815Y897D02*
X871Y897D01*
X915Y897D02*
X971Y897D01*
X1015Y897D02*
X1071Y897D01*
X1115Y897D02*
X1171Y897D01*
X2315Y897D02*
X2371Y897D01*
X2415Y897D02*
X2471Y897D01*
X2515Y897D02*
X2571Y897D01*
X2615Y897D02*
X2671Y897D01*
X2715Y897D02*
X2771Y897D01*
X2815Y897D02*
X2871Y897D01*
X2915Y897D02*
X2971Y897D01*
X3015Y897D02*
X3071Y897D01*
X3115Y897D02*
X3171Y897D01*
X314Y896D02*
X372Y896D01*
X414Y896D02*
X472Y896D01*
X514Y896D02*
X572Y896D01*
X614Y896D02*
X672Y896D01*
X714Y896D02*
X772Y896D01*
X814Y896D02*
X872Y896D01*
X914Y896D02*
X972Y896D01*
X1014Y896D02*
X1072Y896D01*
X1114Y896D02*
X1172Y896D01*
X2314Y896D02*
X2372Y896D01*
X2414Y896D02*
X2472Y896D01*
X2514Y896D02*
X2572Y896D01*
X2614Y896D02*
X2672Y896D01*
X2714Y896D02*
X2772Y896D01*
X2814Y896D02*
X2872Y896D01*
X2914Y896D02*
X2972Y896D01*
X3014Y896D02*
X3072Y896D01*
X3114Y896D02*
X3172Y896D01*
X313Y895D02*
X373Y895D01*
X413Y895D02*
X473Y895D01*
X513Y895D02*
X573Y895D01*
X613Y895D02*
X673Y895D01*
X713Y895D02*
X773Y895D01*
X813Y895D02*
X873Y895D01*
X913Y895D02*
X973Y895D01*
X1013Y895D02*
X1073Y895D01*
X1113Y895D02*
X1173Y895D01*
X2313Y895D02*
X2373Y895D01*
X2413Y895D02*
X2473Y895D01*
X2513Y895D02*
X2573Y895D01*
X2613Y895D02*
X2673Y895D01*
X2713Y895D02*
X2773Y895D01*
X2813Y895D02*
X2873Y895D01*
X2913Y895D02*
X2973Y895D01*
X3013Y895D02*
X3073Y895D01*
X3113Y895D02*
X3173Y895D01*
X313Y894D02*
X374Y894D01*
X413Y894D02*
X474Y894D01*
X513Y894D02*
X574Y894D01*
X613Y894D02*
X674Y894D01*
X713Y894D02*
X774Y894D01*
X813Y894D02*
X874Y894D01*
X913Y894D02*
X974Y894D01*
X1013Y894D02*
X1074Y894D01*
X1113Y894D02*
X1174Y894D01*
X2312Y894D02*
X2374Y894D01*
X2412Y894D02*
X2474Y894D01*
X2512Y894D02*
X2574Y894D01*
X2612Y894D02*
X2674Y894D01*
X2712Y894D02*
X2774Y894D01*
X2812Y894D02*
X2874Y894D01*
X2912Y894D02*
X2974Y894D01*
X3012Y894D02*
X3074Y894D01*
X3112Y894D02*
X3174Y894D01*
X312Y893D02*
X375Y893D01*
X412Y893D02*
X475Y893D01*
X512Y893D02*
X575Y893D01*
X612Y893D02*
X675Y893D01*
X712Y893D02*
X775Y893D01*
X812Y893D02*
X875Y893D01*
X912Y893D02*
X975Y893D01*
X1012Y893D02*
X1075Y893D01*
X1112Y893D02*
X1175Y893D01*
X2312Y893D02*
X2374Y893D01*
X2412Y893D02*
X2474Y893D01*
X2512Y893D02*
X2574Y893D01*
X2612Y893D02*
X2674Y893D01*
X2712Y893D02*
X2774Y893D01*
X2811Y893D02*
X2874Y893D01*
X2911Y893D02*
X2974Y893D01*
X3011Y893D02*
X3074Y893D01*
X3111Y893D02*
X3174Y893D01*
X311Y892D02*
X376Y892D01*
X411Y892D02*
X476Y892D01*
X511Y892D02*
X576Y892D01*
X611Y892D02*
X675Y892D01*
X711Y892D02*
X775Y892D01*
X811Y892D02*
X875Y892D01*
X911Y892D02*
X975Y892D01*
X1011Y892D02*
X1075Y892D01*
X1111Y892D02*
X1175Y892D01*
X2311Y892D02*
X2375Y892D01*
X2411Y892D02*
X2475Y892D01*
X2511Y892D02*
X2575Y892D01*
X2611Y892D02*
X2675Y892D01*
X2711Y892D02*
X2775Y892D01*
X2811Y892D02*
X2875Y892D01*
X2911Y892D02*
X2975Y892D01*
X3011Y892D02*
X3075Y892D01*
X3111Y892D02*
X3175Y892D01*
X311Y891D02*
X376Y891D01*
X410Y891D02*
X476Y891D01*
X510Y891D02*
X576Y891D01*
X610Y891D02*
X676Y891D01*
X710Y891D02*
X776Y891D01*
X810Y891D02*
X876Y891D01*
X910Y891D02*
X976Y891D01*
X1010Y891D02*
X1076Y891D01*
X1110Y891D02*
X1176Y891D01*
X2310Y891D02*
X2376Y891D01*
X2410Y891D02*
X2476Y891D01*
X2510Y891D02*
X2576Y891D01*
X2610Y891D02*
X2676Y891D01*
X2710Y891D02*
X2776Y891D01*
X2810Y891D02*
X2876Y891D01*
X2910Y891D02*
X2976Y891D01*
X3010Y891D02*
X3076Y891D01*
X3110Y891D02*
X3176Y891D01*
X310Y890D02*
X377Y890D01*
X410Y890D02*
X477Y890D01*
X510Y890D02*
X577Y890D01*
X610Y890D02*
X677Y890D01*
X710Y890D02*
X777Y890D01*
X810Y890D02*
X877Y890D01*
X910Y890D02*
X977Y890D01*
X1010Y890D02*
X1077Y890D01*
X1110Y890D02*
X1177Y890D01*
X2310Y890D02*
X2377Y890D01*
X2410Y890D02*
X2476Y890D01*
X2509Y890D02*
X2576Y890D01*
X2609Y890D02*
X2676Y890D01*
X2709Y890D02*
X2776Y890D01*
X2809Y890D02*
X2876Y890D01*
X2909Y890D02*
X2976Y890D01*
X3009Y890D02*
X3076Y890D01*
X3109Y890D02*
X3176Y890D01*
X309Y889D02*
X377Y889D01*
X409Y889D02*
X477Y889D01*
X509Y889D02*
X577Y889D01*
X609Y889D02*
X677Y889D01*
X709Y889D02*
X777Y889D01*
X809Y889D02*
X877Y889D01*
X909Y889D02*
X977Y889D01*
X1009Y889D02*
X1077Y889D01*
X1109Y889D02*
X1177Y889D01*
X2309Y889D02*
X2377Y889D01*
X2409Y889D02*
X2477Y889D01*
X2509Y889D02*
X2577Y889D01*
X2609Y889D02*
X2677Y889D01*
X2709Y889D02*
X2777Y889D01*
X2809Y889D02*
X2877Y889D01*
X2909Y889D02*
X2977Y889D01*
X3009Y889D02*
X3077Y889D01*
X3109Y889D02*
X3177Y889D01*
X309Y888D02*
X378Y888D01*
X409Y888D02*
X478Y888D01*
X509Y888D02*
X578Y888D01*
X609Y888D02*
X678Y888D01*
X709Y888D02*
X778Y888D01*
X809Y888D02*
X878Y888D01*
X909Y888D02*
X978Y888D01*
X1009Y888D02*
X1078Y888D01*
X1109Y888D02*
X1178Y888D01*
X2308Y888D02*
X2378Y888D01*
X2408Y888D02*
X2478Y888D01*
X2508Y888D02*
X2578Y888D01*
X2608Y888D02*
X2678Y888D01*
X2708Y888D02*
X2778Y888D01*
X2808Y888D02*
X2878Y888D01*
X2908Y888D02*
X2978Y888D01*
X3008Y888D02*
X3078Y888D01*
X3108Y888D02*
X3178Y888D01*
X308Y887D02*
X379Y887D01*
X408Y887D02*
X479Y887D01*
X508Y887D02*
X579Y887D01*
X608Y887D02*
X679Y887D01*
X708Y887D02*
X778Y887D01*
X808Y887D02*
X878Y887D01*
X908Y887D02*
X978Y887D01*
X1008Y887D02*
X1078Y887D01*
X1108Y887D02*
X1178Y887D01*
X2308Y887D02*
X2378Y887D01*
X2408Y887D02*
X2478Y887D01*
X2508Y887D02*
X2578Y887D01*
X2608Y887D02*
X2678Y887D01*
X2708Y887D02*
X2778Y887D01*
X2808Y887D02*
X2878Y887D01*
X2908Y887D02*
X2978Y887D01*
X3008Y887D02*
X3078Y887D01*
X3108Y887D02*
X3178Y887D01*
X308Y886D02*
X379Y886D01*
X408Y886D02*
X479Y886D01*
X508Y886D02*
X579Y886D01*
X608Y886D02*
X679Y886D01*
X708Y886D02*
X779Y886D01*
X808Y886D02*
X879Y886D01*
X908Y886D02*
X979Y886D01*
X1007Y886D02*
X1079Y886D01*
X1107Y886D02*
X1179Y886D01*
X2307Y886D02*
X2379Y886D01*
X2407Y886D02*
X2479Y886D01*
X2507Y886D02*
X2579Y886D01*
X2607Y886D02*
X2679Y886D01*
X2707Y886D02*
X2779Y886D01*
X2807Y886D02*
X2879Y886D01*
X2907Y886D02*
X2979Y886D01*
X3007Y886D02*
X3079Y886D01*
X3107Y886D02*
X3179Y886D01*
X307Y885D02*
X380Y885D01*
X407Y885D02*
X480Y885D01*
X507Y885D02*
X580Y885D01*
X607Y885D02*
X680Y885D01*
X707Y885D02*
X779Y885D01*
X807Y885D02*
X879Y885D01*
X907Y885D02*
X979Y885D01*
X1007Y885D02*
X1079Y885D01*
X1107Y885D02*
X1179Y885D01*
X2307Y885D02*
X2379Y885D01*
X2407Y885D02*
X2479Y885D01*
X2507Y885D02*
X2579Y885D01*
X2607Y885D02*
X2679Y885D01*
X2707Y885D02*
X2779Y885D01*
X2807Y885D02*
X2879Y885D01*
X2907Y885D02*
X2979Y885D01*
X3007Y885D02*
X3079Y885D01*
X3107Y885D02*
X3179Y885D01*
X307Y884D02*
X380Y884D01*
X407Y884D02*
X480Y884D01*
X507Y884D02*
X580Y884D01*
X607Y884D02*
X680Y884D01*
X707Y884D02*
X780Y884D01*
X807Y884D02*
X880Y884D01*
X907Y884D02*
X980Y884D01*
X1007Y884D02*
X1080Y884D01*
X1107Y884D02*
X1180Y884D01*
X2306Y884D02*
X2380Y884D01*
X2406Y884D02*
X2480Y884D01*
X2506Y884D02*
X2580Y884D01*
X2606Y884D02*
X2680Y884D01*
X2706Y884D02*
X2780Y884D01*
X2806Y884D02*
X2880Y884D01*
X2906Y884D02*
X2980Y884D01*
X3006Y884D02*
X3080Y884D01*
X3106Y884D02*
X3180Y884D01*
X306Y883D02*
X380Y883D01*
X406Y883D02*
X480Y883D01*
X506Y883D02*
X580Y883D01*
X606Y883D02*
X680Y883D01*
X706Y883D02*
X780Y883D01*
X806Y883D02*
X880Y883D01*
X906Y883D02*
X980Y883D01*
X1006Y883D02*
X1080Y883D01*
X1106Y883D02*
X1180Y883D01*
X2306Y883D02*
X2380Y883D01*
X2406Y883D02*
X2480Y883D01*
X2506Y883D02*
X2580Y883D01*
X2606Y883D02*
X2680Y883D01*
X2706Y883D02*
X2780Y883D01*
X2806Y883D02*
X2880Y883D01*
X2906Y883D02*
X2980Y883D01*
X3006Y883D02*
X3080Y883D01*
X3106Y883D02*
X3180Y883D01*
X306Y882D02*
X381Y882D01*
X406Y882D02*
X481Y882D01*
X506Y882D02*
X581Y882D01*
X606Y882D02*
X681Y882D01*
X706Y882D02*
X781Y882D01*
X806Y882D02*
X881Y882D01*
X906Y882D02*
X981Y882D01*
X1006Y882D02*
X1081Y882D01*
X1106Y882D02*
X1181Y882D01*
X2306Y882D02*
X2380Y882D01*
X2406Y882D02*
X2480Y882D01*
X2506Y882D02*
X2580Y882D01*
X2606Y882D02*
X2680Y882D01*
X2706Y882D02*
X2780Y882D01*
X2806Y882D02*
X2880Y882D01*
X2905Y882D02*
X2980Y882D01*
X3005Y882D02*
X3080Y882D01*
X3105Y882D02*
X3180Y882D01*
X306Y881D02*
X381Y881D01*
X406Y881D02*
X481Y881D01*
X506Y881D02*
X581Y881D01*
X606Y881D02*
X681Y881D01*
X706Y881D02*
X781Y881D01*
X806Y881D02*
X881Y881D01*
X905Y881D02*
X981Y881D01*
X1005Y881D02*
X1081Y881D01*
X1105Y881D02*
X1181Y881D01*
X2305Y881D02*
X2381Y881D01*
X2405Y881D02*
X2481Y881D01*
X2505Y881D02*
X2581Y881D01*
X2605Y881D02*
X2681Y881D01*
X2705Y881D02*
X2781Y881D01*
X2805Y881D02*
X2881Y881D01*
X2905Y881D02*
X2981Y881D01*
X3005Y881D02*
X3081Y881D01*
X3105Y881D02*
X3181Y881D01*
X305Y880D02*
X381Y880D01*
X405Y880D02*
X481Y880D01*
X505Y880D02*
X581Y880D01*
X605Y880D02*
X681Y880D01*
X705Y880D02*
X781Y880D01*
X805Y880D02*
X881Y880D01*
X905Y880D02*
X981Y880D01*
X1005Y880D02*
X1081Y880D01*
X1105Y880D02*
X1181Y880D01*
X2305Y880D02*
X2381Y880D01*
X2405Y880D02*
X2481Y880D01*
X2505Y880D02*
X2581Y880D01*
X2605Y880D02*
X2681Y880D01*
X2705Y880D02*
X2781Y880D01*
X2805Y880D02*
X2881Y880D01*
X2905Y880D02*
X2981Y880D01*
X3005Y880D02*
X3081Y880D01*
X3105Y880D02*
X3181Y880D01*
X305Y879D02*
X382Y879D01*
X405Y879D02*
X482Y879D01*
X505Y879D02*
X582Y879D01*
X605Y879D02*
X682Y879D01*
X705Y879D02*
X782Y879D01*
X805Y879D02*
X882Y879D01*
X905Y879D02*
X982Y879D01*
X1005Y879D02*
X1082Y879D01*
X1105Y879D02*
X1182Y879D01*
X2305Y879D02*
X2381Y879D01*
X2405Y879D02*
X2481Y879D01*
X2505Y879D02*
X2581Y879D01*
X2605Y879D02*
X2681Y879D01*
X2705Y879D02*
X2781Y879D01*
X2805Y879D02*
X2881Y879D01*
X2905Y879D02*
X2981Y879D01*
X3005Y879D02*
X3081Y879D01*
X3105Y879D02*
X3181Y879D01*
X305Y878D02*
X382Y878D01*
X405Y878D02*
X482Y878D01*
X505Y878D02*
X582Y878D01*
X605Y878D02*
X682Y878D01*
X705Y878D02*
X782Y878D01*
X805Y878D02*
X882Y878D01*
X905Y878D02*
X982Y878D01*
X1005Y878D02*
X1082Y878D01*
X1105Y878D02*
X1182Y878D01*
X2304Y878D02*
X2382Y878D01*
X2404Y878D02*
X2482Y878D01*
X2504Y878D02*
X2582Y878D01*
X2604Y878D02*
X2682Y878D01*
X2704Y878D02*
X2782Y878D01*
X2804Y878D02*
X2882Y878D01*
X2904Y878D02*
X2982Y878D01*
X3004Y878D02*
X3082Y878D01*
X3104Y878D02*
X3182Y878D01*
X305Y877D02*
X382Y877D01*
X405Y877D02*
X482Y877D01*
X505Y877D02*
X582Y877D01*
X604Y877D02*
X682Y877D01*
X704Y877D02*
X782Y877D01*
X804Y877D02*
X882Y877D01*
X904Y877D02*
X982Y877D01*
X1004Y877D02*
X1082Y877D01*
X1104Y877D02*
X1182Y877D01*
X2304Y877D02*
X2382Y877D01*
X2404Y877D02*
X2482Y877D01*
X2504Y877D02*
X2582Y877D01*
X2604Y877D02*
X2682Y877D01*
X2704Y877D02*
X2782Y877D01*
X2804Y877D02*
X2882Y877D01*
X2904Y877D02*
X2982Y877D01*
X3004Y877D02*
X3082Y877D01*
X3104Y877D02*
X3182Y877D01*
X304Y876D02*
X382Y876D01*
X404Y876D02*
X482Y876D01*
X504Y876D02*
X582Y876D01*
X604Y876D02*
X682Y876D01*
X704Y876D02*
X782Y876D01*
X804Y876D02*
X882Y876D01*
X904Y876D02*
X982Y876D01*
X1004Y876D02*
X1082Y876D01*
X1104Y876D02*
X1182Y876D01*
X2304Y876D02*
X2382Y876D01*
X2404Y876D02*
X2482Y876D01*
X2504Y876D02*
X2582Y876D01*
X2604Y876D02*
X2682Y876D01*
X2704Y876D02*
X2782Y876D01*
X2804Y876D02*
X2882Y876D01*
X2904Y876D02*
X2982Y876D01*
X3004Y876D02*
X3082Y876D01*
X3104Y876D02*
X3182Y876D01*
X304Y875D02*
X383Y875D01*
X404Y875D02*
X482Y875D01*
X504Y875D02*
X582Y875D01*
X604Y875D02*
X682Y875D01*
X704Y875D02*
X782Y875D01*
X804Y875D02*
X882Y875D01*
X904Y875D02*
X982Y875D01*
X1004Y875D02*
X1082Y875D01*
X1104Y875D02*
X1182Y875D01*
X2304Y875D02*
X2382Y875D01*
X2404Y875D02*
X2482Y875D01*
X2504Y875D02*
X2582Y875D01*
X2604Y875D02*
X2682Y875D01*
X2704Y875D02*
X2782Y875D01*
X2804Y875D02*
X2882Y875D01*
X2904Y875D02*
X2982Y875D01*
X3004Y875D02*
X3082Y875D01*
X3104Y875D02*
X3182Y875D01*
X304Y874D02*
X383Y874D01*
X404Y874D02*
X483Y874D01*
X504Y874D02*
X583Y874D01*
X604Y874D02*
X683Y874D01*
X704Y874D02*
X783Y874D01*
X804Y874D02*
X883Y874D01*
X904Y874D02*
X983Y874D01*
X1004Y874D02*
X1083Y874D01*
X1104Y874D02*
X1183Y874D01*
X2304Y874D02*
X2382Y874D01*
X2404Y874D02*
X2482Y874D01*
X2504Y874D02*
X2582Y874D01*
X2604Y874D02*
X2682Y874D01*
X2704Y874D02*
X2782Y874D01*
X2804Y874D02*
X2882Y874D01*
X2904Y874D02*
X2982Y874D01*
X3004Y874D02*
X3082Y874D01*
X3104Y874D02*
X3182Y874D01*
X304Y873D02*
X383Y873D01*
X404Y873D02*
X483Y873D01*
X504Y873D02*
X583Y873D01*
X604Y873D02*
X683Y873D01*
X704Y873D02*
X783Y873D01*
X804Y873D02*
X883Y873D01*
X904Y873D02*
X983Y873D01*
X1004Y873D02*
X1083Y873D01*
X1104Y873D02*
X1183Y873D01*
X2304Y873D02*
X2382Y873D01*
X2404Y873D02*
X2482Y873D01*
X2504Y873D02*
X2582Y873D01*
X2604Y873D02*
X2682Y873D01*
X2704Y873D02*
X2782Y873D01*
X2804Y873D02*
X2882Y873D01*
X2904Y873D02*
X2982Y873D01*
X3004Y873D02*
X3082Y873D01*
X3104Y873D02*
X3182Y873D01*
X304Y872D02*
X383Y872D01*
X404Y872D02*
X483Y872D01*
X504Y872D02*
X583Y872D01*
X604Y872D02*
X683Y872D01*
X704Y872D02*
X783Y872D01*
X804Y872D02*
X883Y872D01*
X904Y872D02*
X983Y872D01*
X1004Y872D02*
X1083Y872D01*
X1104Y872D02*
X1183Y872D01*
X2304Y872D02*
X2382Y872D01*
X2404Y872D02*
X2482Y872D01*
X2504Y872D02*
X2582Y872D01*
X2604Y872D02*
X2682Y872D01*
X2704Y872D02*
X2782Y872D01*
X2804Y872D02*
X2882Y872D01*
X2904Y872D02*
X2982Y872D01*
X3003Y872D02*
X3082Y872D01*
X3103Y872D02*
X3182Y872D01*
X304Y871D02*
X383Y871D01*
X404Y871D02*
X483Y871D01*
X504Y871D02*
X583Y871D01*
X604Y871D02*
X683Y871D01*
X704Y871D02*
X783Y871D01*
X804Y871D02*
X883Y871D01*
X904Y871D02*
X983Y871D01*
X1004Y871D02*
X1083Y871D01*
X1104Y871D02*
X1183Y871D01*
X2304Y871D02*
X2382Y871D01*
X2404Y871D02*
X2482Y871D01*
X2504Y871D02*
X2582Y871D01*
X2603Y871D02*
X2682Y871D01*
X2703Y871D02*
X2782Y871D01*
X2803Y871D02*
X2882Y871D01*
X2903Y871D02*
X2982Y871D01*
X3003Y871D02*
X3082Y871D01*
X3103Y871D02*
X3182Y871D01*
X304Y870D02*
X383Y870D01*
X404Y870D02*
X483Y870D01*
X504Y870D02*
X583Y870D01*
X604Y870D02*
X683Y870D01*
X704Y870D02*
X783Y870D01*
X804Y870D02*
X883Y870D01*
X904Y870D02*
X983Y870D01*
X1004Y870D02*
X1083Y870D01*
X1104Y870D02*
X1183Y870D01*
X2304Y870D02*
X2382Y870D01*
X2404Y870D02*
X2482Y870D01*
X2504Y870D02*
X2582Y870D01*
X2604Y870D02*
X2682Y870D01*
X2703Y870D02*
X2782Y870D01*
X2803Y870D02*
X2882Y870D01*
X2903Y870D02*
X2982Y870D01*
X3003Y870D02*
X3082Y870D01*
X3103Y870D02*
X3182Y870D01*
X304Y869D02*
X383Y869D01*
X404Y869D02*
X483Y869D01*
X504Y869D02*
X583Y869D01*
X604Y869D02*
X683Y869D01*
X704Y869D02*
X783Y869D01*
X804Y869D02*
X883Y869D01*
X904Y869D02*
X983Y869D01*
X1004Y869D02*
X1083Y869D01*
X1104Y869D02*
X1183Y869D01*
X2304Y869D02*
X2382Y869D01*
X2404Y869D02*
X2482Y869D01*
X2504Y869D02*
X2582Y869D01*
X2604Y869D02*
X2682Y869D01*
X2704Y869D02*
X2782Y869D01*
X2804Y869D02*
X2882Y869D01*
X2904Y869D02*
X2982Y869D01*
X3004Y869D02*
X3082Y869D01*
X3103Y869D02*
X3182Y869D01*
X304Y868D02*
X383Y868D01*
X404Y868D02*
X483Y868D01*
X504Y868D02*
X583Y868D01*
X604Y868D02*
X683Y868D01*
X704Y868D02*
X783Y868D01*
X804Y868D02*
X883Y868D01*
X904Y868D02*
X983Y868D01*
X1004Y868D02*
X1083Y868D01*
X1104Y868D02*
X1183Y868D01*
X2304Y868D02*
X2382Y868D01*
X2404Y868D02*
X2482Y868D01*
X2504Y868D02*
X2582Y868D01*
X2604Y868D02*
X2682Y868D01*
X2704Y868D02*
X2782Y868D01*
X2804Y868D02*
X2882Y868D01*
X2904Y868D02*
X2982Y868D01*
X3004Y868D02*
X3082Y868D01*
X3104Y868D02*
X3182Y868D01*
X304Y867D02*
X383Y867D01*
X404Y867D02*
X483Y867D01*
X504Y867D02*
X583Y867D01*
X604Y867D02*
X683Y867D01*
X704Y867D02*
X783Y867D01*
X804Y867D02*
X883Y867D01*
X904Y867D02*
X983Y867D01*
X1004Y867D02*
X1082Y867D01*
X1104Y867D02*
X1182Y867D01*
X2304Y867D02*
X2382Y867D01*
X2404Y867D02*
X2482Y867D01*
X2504Y867D02*
X2582Y867D01*
X2604Y867D02*
X2682Y867D01*
X2704Y867D02*
X2782Y867D01*
X2804Y867D02*
X2882Y867D01*
X2904Y867D02*
X2982Y867D01*
X3004Y867D02*
X3082Y867D01*
X3104Y867D02*
X3182Y867D01*
X304Y866D02*
X382Y866D01*
X404Y866D02*
X482Y866D01*
X504Y866D02*
X582Y866D01*
X604Y866D02*
X682Y866D01*
X704Y866D02*
X782Y866D01*
X804Y866D02*
X882Y866D01*
X904Y866D02*
X982Y866D01*
X1004Y866D02*
X1082Y866D01*
X1104Y866D02*
X1182Y866D01*
X2304Y866D02*
X2382Y866D01*
X2404Y866D02*
X2482Y866D01*
X2504Y866D02*
X2582Y866D01*
X2604Y866D02*
X2682Y866D01*
X2704Y866D02*
X2782Y866D01*
X2804Y866D02*
X2882Y866D01*
X2904Y866D02*
X2982Y866D01*
X3004Y866D02*
X3082Y866D01*
X3104Y866D02*
X3182Y866D01*
X304Y865D02*
X382Y865D01*
X404Y865D02*
X482Y865D01*
X504Y865D02*
X582Y865D01*
X604Y865D02*
X682Y865D01*
X704Y865D02*
X782Y865D01*
X804Y865D02*
X882Y865D01*
X904Y865D02*
X982Y865D01*
X1004Y865D02*
X1082Y865D01*
X1104Y865D02*
X1182Y865D01*
X2304Y865D02*
X2382Y865D01*
X2404Y865D02*
X2482Y865D01*
X2504Y865D02*
X2582Y865D01*
X2604Y865D02*
X2682Y865D01*
X2704Y865D02*
X2782Y865D01*
X2804Y865D02*
X2882Y865D01*
X2904Y865D02*
X2982Y865D01*
X3004Y865D02*
X3082Y865D01*
X3104Y865D02*
X3182Y865D01*
X305Y864D02*
X382Y864D01*
X405Y864D02*
X482Y864D01*
X505Y864D02*
X582Y864D01*
X605Y864D02*
X682Y864D01*
X705Y864D02*
X782Y864D01*
X805Y864D02*
X882Y864D01*
X905Y864D02*
X982Y864D01*
X1004Y864D02*
X1082Y864D01*
X1104Y864D02*
X1182Y864D01*
X2304Y864D02*
X2382Y864D01*
X2404Y864D02*
X2482Y864D01*
X2504Y864D02*
X2582Y864D01*
X2604Y864D02*
X2682Y864D01*
X2704Y864D02*
X2782Y864D01*
X2804Y864D02*
X2882Y864D01*
X2904Y864D02*
X2982Y864D01*
X3004Y864D02*
X3082Y864D01*
X3104Y864D02*
X3182Y864D01*
X305Y863D02*
X382Y863D01*
X405Y863D02*
X482Y863D01*
X505Y863D02*
X582Y863D01*
X605Y863D02*
X682Y863D01*
X705Y863D02*
X782Y863D01*
X805Y863D02*
X882Y863D01*
X905Y863D02*
X982Y863D01*
X1005Y863D02*
X1082Y863D01*
X1105Y863D02*
X1182Y863D01*
X2304Y863D02*
X2382Y863D01*
X2404Y863D02*
X2482Y863D01*
X2504Y863D02*
X2582Y863D01*
X2604Y863D02*
X2681Y863D01*
X2704Y863D02*
X2781Y863D01*
X2804Y863D02*
X2881Y863D01*
X2904Y863D02*
X2981Y863D01*
X3004Y863D02*
X3081Y863D01*
X3104Y863D02*
X3181Y863D01*
X305Y862D02*
X382Y862D01*
X405Y862D02*
X482Y862D01*
X505Y862D02*
X582Y862D01*
X605Y862D02*
X682Y862D01*
X705Y862D02*
X782Y862D01*
X805Y862D02*
X882Y862D01*
X905Y862D02*
X981Y862D01*
X1005Y862D02*
X1081Y862D01*
X1105Y862D02*
X1181Y862D01*
X2305Y862D02*
X2381Y862D01*
X2405Y862D02*
X2481Y862D01*
X2505Y862D02*
X2581Y862D01*
X2605Y862D02*
X2681Y862D01*
X2705Y862D02*
X2781Y862D01*
X2805Y862D02*
X2881Y862D01*
X2905Y862D02*
X2981Y862D01*
X3005Y862D02*
X3081Y862D01*
X3105Y862D02*
X3181Y862D01*
X305Y861D02*
X381Y861D01*
X405Y861D02*
X481Y861D01*
X505Y861D02*
X581Y861D01*
X605Y861D02*
X681Y861D01*
X705Y861D02*
X781Y861D01*
X805Y861D02*
X881Y861D01*
X905Y861D02*
X981Y861D01*
X1005Y861D02*
X1081Y861D01*
X1105Y861D02*
X1181Y861D01*
X2305Y861D02*
X2381Y861D01*
X2405Y861D02*
X2481Y861D01*
X2505Y861D02*
X2581Y861D01*
X2605Y861D02*
X2681Y861D01*
X2705Y861D02*
X2781Y861D01*
X2805Y861D02*
X2881Y861D01*
X2905Y861D02*
X2981Y861D01*
X3005Y861D02*
X3081Y861D01*
X3105Y861D02*
X3181Y861D01*
X306Y860D02*
X381Y860D01*
X406Y860D02*
X481Y860D01*
X506Y860D02*
X581Y860D01*
X606Y860D02*
X681Y860D01*
X706Y860D02*
X781Y860D01*
X806Y860D02*
X881Y860D01*
X906Y860D02*
X981Y860D01*
X1006Y860D02*
X1081Y860D01*
X1106Y860D02*
X1181Y860D01*
X2305Y860D02*
X2381Y860D01*
X2405Y860D02*
X2481Y860D01*
X2505Y860D02*
X2581Y860D01*
X2605Y860D02*
X2681Y860D01*
X2705Y860D02*
X2781Y860D01*
X2805Y860D02*
X2881Y860D01*
X2905Y860D02*
X2981Y860D01*
X3005Y860D02*
X3081Y860D01*
X3105Y860D02*
X3181Y860D01*
X306Y859D02*
X381Y859D01*
X406Y859D02*
X481Y859D01*
X506Y859D02*
X581Y859D01*
X606Y859D02*
X681Y859D01*
X706Y859D02*
X781Y859D01*
X806Y859D02*
X881Y859D01*
X906Y859D02*
X981Y859D01*
X1006Y859D02*
X1081Y859D01*
X1106Y859D02*
X1181Y859D01*
X2306Y859D02*
X2380Y859D01*
X2406Y859D02*
X2480Y859D01*
X2506Y859D02*
X2580Y859D01*
X2606Y859D02*
X2680Y859D01*
X2706Y859D02*
X2780Y859D01*
X2806Y859D02*
X2880Y859D01*
X2906Y859D02*
X2980Y859D01*
X3006Y859D02*
X3080Y859D01*
X3106Y859D02*
X3180Y859D01*
X306Y858D02*
X380Y858D01*
X406Y858D02*
X480Y858D01*
X506Y858D02*
X580Y858D01*
X606Y858D02*
X680Y858D01*
X706Y858D02*
X780Y858D01*
X806Y858D02*
X880Y858D01*
X906Y858D02*
X980Y858D01*
X1006Y858D02*
X1080Y858D01*
X1106Y858D02*
X1180Y858D01*
X2306Y858D02*
X2380Y858D01*
X2406Y858D02*
X2480Y858D01*
X2506Y858D02*
X2580Y858D01*
X2606Y858D02*
X2680Y858D01*
X2706Y858D02*
X2780Y858D01*
X2806Y858D02*
X2880Y858D01*
X2906Y858D02*
X2980Y858D01*
X3006Y858D02*
X3080Y858D01*
X3106Y858D02*
X3180Y858D01*
X307Y857D02*
X380Y857D01*
X407Y857D02*
X480Y857D01*
X507Y857D02*
X580Y857D01*
X607Y857D02*
X680Y857D01*
X707Y857D02*
X780Y857D01*
X807Y857D02*
X880Y857D01*
X907Y857D02*
X980Y857D01*
X1007Y857D02*
X1080Y857D01*
X1107Y857D02*
X1180Y857D01*
X2307Y857D02*
X2379Y857D01*
X2407Y857D02*
X2479Y857D01*
X2507Y857D02*
X2579Y857D01*
X2606Y857D02*
X2679Y857D01*
X2706Y857D02*
X2779Y857D01*
X2806Y857D02*
X2879Y857D01*
X2906Y857D02*
X2979Y857D01*
X3006Y857D02*
X3079Y857D01*
X3106Y857D02*
X3179Y857D01*
X307Y856D02*
X379Y856D01*
X407Y856D02*
X479Y856D01*
X507Y856D02*
X579Y856D01*
X607Y856D02*
X679Y856D01*
X707Y856D02*
X779Y856D01*
X807Y856D02*
X879Y856D01*
X907Y856D02*
X979Y856D01*
X1007Y856D02*
X1079Y856D01*
X1107Y856D02*
X1179Y856D01*
X2307Y856D02*
X2379Y856D01*
X2407Y856D02*
X2479Y856D01*
X2507Y856D02*
X2579Y856D01*
X2607Y856D02*
X2679Y856D01*
X2707Y856D02*
X2779Y856D01*
X2807Y856D02*
X2879Y856D01*
X2907Y856D02*
X2979Y856D01*
X3007Y856D02*
X3079Y856D01*
X3107Y856D02*
X3179Y856D01*
X308Y855D02*
X379Y855D01*
X408Y855D02*
X479Y855D01*
X508Y855D02*
X579Y855D01*
X608Y855D02*
X679Y855D01*
X708Y855D02*
X779Y855D01*
X808Y855D02*
X879Y855D01*
X908Y855D02*
X979Y855D01*
X1008Y855D02*
X1079Y855D01*
X1108Y855D02*
X1179Y855D01*
X2307Y855D02*
X2379Y855D01*
X2407Y855D02*
X2479Y855D01*
X2507Y855D02*
X2579Y855D01*
X2607Y855D02*
X2679Y855D01*
X2707Y855D02*
X2778Y855D01*
X2807Y855D02*
X2878Y855D01*
X2907Y855D02*
X2978Y855D01*
X3007Y855D02*
X3078Y855D01*
X3107Y855D02*
X3178Y855D01*
X308Y854D02*
X378Y854D01*
X408Y854D02*
X478Y854D01*
X508Y854D02*
X578Y854D01*
X608Y854D02*
X678Y854D01*
X708Y854D02*
X778Y854D01*
X808Y854D02*
X878Y854D01*
X908Y854D02*
X978Y854D01*
X1008Y854D02*
X1078Y854D01*
X1108Y854D02*
X1178Y854D01*
X2308Y854D02*
X2378Y854D01*
X2408Y854D02*
X2478Y854D01*
X2508Y854D02*
X2578Y854D01*
X2608Y854D02*
X2678Y854D01*
X2708Y854D02*
X2778Y854D01*
X2808Y854D02*
X2878Y854D01*
X2908Y854D02*
X2978Y854D01*
X3008Y854D02*
X3078Y854D01*
X3108Y854D02*
X3178Y854D01*
X309Y853D02*
X378Y853D01*
X409Y853D02*
X478Y853D01*
X509Y853D02*
X578Y853D01*
X609Y853D02*
X678Y853D01*
X709Y853D02*
X778Y853D01*
X809Y853D02*
X878Y853D01*
X909Y853D02*
X978Y853D01*
X1009Y853D02*
X1078Y853D01*
X1109Y853D02*
X1178Y853D01*
X2309Y853D02*
X2378Y853D01*
X2408Y853D02*
X2477Y853D01*
X2508Y853D02*
X2577Y853D01*
X2608Y853D02*
X2677Y853D01*
X2708Y853D02*
X2777Y853D01*
X2808Y853D02*
X2877Y853D01*
X2908Y853D02*
X2977Y853D01*
X3008Y853D02*
X3077Y853D01*
X3108Y853D02*
X3177Y853D01*
X309Y852D02*
X377Y852D01*
X409Y852D02*
X477Y852D01*
X509Y852D02*
X577Y852D01*
X609Y852D02*
X677Y852D01*
X709Y852D02*
X777Y852D01*
X809Y852D02*
X877Y852D01*
X909Y852D02*
X977Y852D01*
X1009Y852D02*
X1077Y852D01*
X1109Y852D02*
X1177Y852D01*
X2309Y852D02*
X2377Y852D01*
X2409Y852D02*
X2477Y852D01*
X2509Y852D02*
X2577Y852D01*
X2609Y852D02*
X2677Y852D01*
X2709Y852D02*
X2777Y852D01*
X2809Y852D02*
X2877Y852D01*
X2909Y852D02*
X2977Y852D01*
X3009Y852D02*
X3077Y852D01*
X3109Y852D02*
X3177Y852D01*
X310Y851D02*
X377Y851D01*
X410Y851D02*
X477Y851D01*
X510Y851D02*
X577Y851D01*
X610Y851D02*
X677Y851D01*
X710Y851D02*
X777Y851D01*
X810Y851D02*
X877Y851D01*
X910Y851D02*
X977Y851D01*
X1010Y851D02*
X1076Y851D01*
X1110Y851D02*
X1176Y851D01*
X2310Y851D02*
X2376Y851D01*
X2410Y851D02*
X2476Y851D01*
X2510Y851D02*
X2576Y851D01*
X2610Y851D02*
X2676Y851D01*
X2710Y851D02*
X2776Y851D01*
X2810Y851D02*
X2876Y851D01*
X2910Y851D02*
X2976Y851D01*
X3010Y851D02*
X3076Y851D01*
X3110Y851D02*
X3176Y851D01*
X311Y850D02*
X376Y850D01*
X411Y850D02*
X476Y850D01*
X511Y850D02*
X576Y850D01*
X611Y850D02*
X676Y850D01*
X711Y850D02*
X776Y850D01*
X811Y850D02*
X876Y850D01*
X911Y850D02*
X976Y850D01*
X1011Y850D02*
X1076Y850D01*
X1111Y850D02*
X1176Y850D01*
X2310Y850D02*
X2376Y850D01*
X2410Y850D02*
X2476Y850D01*
X2510Y850D02*
X2576Y850D01*
X2610Y850D02*
X2676Y850D01*
X2710Y850D02*
X2776Y850D01*
X2810Y850D02*
X2876Y850D01*
X2910Y850D02*
X2976Y850D01*
X3010Y850D02*
X3076Y850D01*
X3110Y850D02*
X3176Y850D01*
X311Y849D02*
X375Y849D01*
X411Y849D02*
X475Y849D01*
X511Y849D02*
X575Y849D01*
X611Y849D02*
X675Y849D01*
X711Y849D02*
X775Y849D01*
X811Y849D02*
X875Y849D01*
X911Y849D02*
X975Y849D01*
X1011Y849D02*
X1075Y849D01*
X1111Y849D02*
X1175Y849D01*
X2311Y849D02*
X2375Y849D01*
X2411Y849D02*
X2475Y849D01*
X2511Y849D02*
X2575Y849D01*
X2611Y849D02*
X2675Y849D01*
X2711Y849D02*
X2775Y849D01*
X2811Y849D02*
X2875Y849D01*
X2911Y849D02*
X2975Y849D01*
X3011Y849D02*
X3075Y849D01*
X3111Y849D02*
X3175Y849D01*
X312Y848D02*
X375Y848D01*
X412Y848D02*
X475Y848D01*
X512Y848D02*
X574Y848D01*
X612Y848D02*
X674Y848D01*
X712Y848D02*
X774Y848D01*
X812Y848D02*
X874Y848D01*
X912Y848D02*
X974Y848D01*
X1012Y848D02*
X1074Y848D01*
X1112Y848D02*
X1174Y848D01*
X2312Y848D02*
X2374Y848D01*
X2412Y848D02*
X2474Y848D01*
X2512Y848D02*
X2574Y848D01*
X2612Y848D02*
X2674Y848D01*
X2712Y848D02*
X2774Y848D01*
X2812Y848D02*
X2874Y848D01*
X2912Y848D02*
X2974Y848D01*
X3012Y848D02*
X3074Y848D01*
X3112Y848D02*
X3174Y848D01*
X313Y847D02*
X374Y847D01*
X413Y847D02*
X474Y847D01*
X513Y847D02*
X574Y847D01*
X613Y847D02*
X674Y847D01*
X713Y847D02*
X774Y847D01*
X813Y847D02*
X874Y847D01*
X913Y847D02*
X974Y847D01*
X1013Y847D02*
X1074Y847D01*
X1113Y847D02*
X1174Y847D01*
X2313Y847D02*
X2373Y847D01*
X2413Y847D02*
X2473Y847D01*
X2513Y847D02*
X2573Y847D01*
X2613Y847D02*
X2673Y847D01*
X2713Y847D02*
X2773Y847D01*
X2813Y847D02*
X2873Y847D01*
X2913Y847D02*
X2973Y847D01*
X3012Y847D02*
X3073Y847D01*
X3112Y847D02*
X3173Y847D01*
X314Y846D02*
X373Y846D01*
X414Y846D02*
X473Y846D01*
X514Y846D02*
X573Y846D01*
X614Y846D02*
X673Y846D01*
X714Y846D02*
X773Y846D01*
X814Y846D02*
X873Y846D01*
X914Y846D02*
X973Y846D01*
X1014Y846D02*
X1073Y846D01*
X1114Y846D02*
X1173Y846D01*
X2313Y846D02*
X2373Y846D01*
X2413Y846D02*
X2473Y846D01*
X2513Y846D02*
X2573Y846D01*
X2613Y846D02*
X2673Y846D01*
X2713Y846D02*
X2773Y846D01*
X2813Y846D02*
X2873Y846D01*
X2913Y846D02*
X2973Y846D01*
X3013Y846D02*
X3072Y846D01*
X3113Y846D02*
X3172Y846D01*
X315Y845D02*
X372Y845D01*
X415Y845D02*
X472Y845D01*
X515Y845D02*
X572Y845D01*
X615Y845D02*
X672Y845D01*
X715Y845D02*
X772Y845D01*
X815Y845D02*
X872Y845D01*
X915Y845D02*
X972Y845D01*
X1015Y845D02*
X1072Y845D01*
X1115Y845D02*
X1172Y845D01*
X2314Y845D02*
X2372Y845D01*
X2414Y845D02*
X2472Y845D01*
X2514Y845D02*
X2572Y845D01*
X2614Y845D02*
X2672Y845D01*
X2714Y845D02*
X2772Y845D01*
X2814Y845D02*
X2872Y845D01*
X2914Y845D02*
X2972Y845D01*
X3014Y845D02*
X3072Y845D01*
X3114Y845D02*
X3172Y845D01*
X316Y844D02*
X371Y844D01*
X416Y844D02*
X471Y844D01*
X516Y844D02*
X571Y844D01*
X616Y844D02*
X671Y844D01*
X716Y844D02*
X771Y844D01*
X815Y844D02*
X871Y844D01*
X915Y844D02*
X971Y844D01*
X1015Y844D02*
X1071Y844D01*
X1115Y844D02*
X1171Y844D01*
X2315Y844D02*
X2371Y844D01*
X2415Y844D02*
X2471Y844D01*
X2515Y844D02*
X2571Y844D01*
X2615Y844D02*
X2671Y844D01*
X2715Y844D02*
X2771Y844D01*
X2815Y844D02*
X2871Y844D01*
X2915Y844D02*
X2971Y844D01*
X3015Y844D02*
X3071Y844D01*
X3115Y844D02*
X3171Y844D01*
X317Y843D02*
X370Y843D01*
X417Y843D02*
X470Y843D01*
X517Y843D02*
X570Y843D01*
X616Y843D02*
X670Y843D01*
X716Y843D02*
X770Y843D01*
X816Y843D02*
X870Y843D01*
X916Y843D02*
X970Y843D01*
X1016Y843D02*
X1070Y843D01*
X1116Y843D02*
X1170Y843D01*
X2316Y843D02*
X2370Y843D01*
X2416Y843D02*
X2470Y843D01*
X2516Y843D02*
X2570Y843D01*
X2616Y843D02*
X2670Y843D01*
X2716Y843D02*
X2770Y843D01*
X2816Y843D02*
X2870Y843D01*
X2916Y843D02*
X2970Y843D01*
X3016Y843D02*
X3070Y843D01*
X3116Y843D02*
X3170Y843D01*
X318Y842D02*
X369Y842D01*
X418Y842D02*
X469Y842D01*
X518Y842D02*
X569Y842D01*
X618Y842D02*
X669Y842D01*
X718Y842D02*
X769Y842D01*
X818Y842D02*
X869Y842D01*
X918Y842D02*
X969Y842D01*
X1018Y842D02*
X1069Y842D01*
X1117Y842D02*
X1169Y842D01*
X2317Y842D02*
X2369Y842D01*
X2417Y842D02*
X2469Y842D01*
X2517Y842D02*
X2569Y842D01*
X2617Y842D02*
X2669Y842D01*
X2717Y842D02*
X2769Y842D01*
X2817Y842D02*
X2869Y842D01*
X2917Y842D02*
X2969Y842D01*
X3017Y842D02*
X3069Y842D01*
X3117Y842D02*
X3169Y842D01*
X319Y841D02*
X368Y841D01*
X419Y841D02*
X468Y841D01*
X519Y841D02*
X568Y841D01*
X619Y841D02*
X668Y841D01*
X719Y841D02*
X768Y841D01*
X819Y841D02*
X868Y841D01*
X919Y841D02*
X968Y841D01*
X1019Y841D02*
X1068Y841D01*
X1119Y841D02*
X1168Y841D01*
X2318Y841D02*
X2368Y841D01*
X2418Y841D02*
X2468Y841D01*
X2518Y841D02*
X2568Y841D01*
X2618Y841D02*
X2668Y841D01*
X2718Y841D02*
X2768Y841D01*
X2818Y841D02*
X2868Y841D01*
X2918Y841D02*
X2968Y841D01*
X3018Y841D02*
X3068Y841D01*
X3118Y841D02*
X3168Y841D01*
X320Y840D02*
X367Y840D01*
X420Y840D02*
X467Y840D01*
X520Y840D02*
X567Y840D01*
X620Y840D02*
X667Y840D01*
X720Y840D02*
X767Y840D01*
X820Y840D02*
X867Y840D01*
X920Y840D02*
X967Y840D01*
X1020Y840D02*
X1067Y840D01*
X1120Y840D02*
X1167Y840D01*
X2320Y840D02*
X2366Y840D01*
X2420Y840D02*
X2466Y840D01*
X2520Y840D02*
X2566Y840D01*
X2620Y840D02*
X2666Y840D01*
X2719Y840D02*
X2766Y840D01*
X2819Y840D02*
X2866Y840D01*
X2919Y840D02*
X2966Y840D01*
X3019Y840D02*
X3066Y840D01*
X3119Y840D02*
X3166Y840D01*
X321Y839D02*
X366Y839D01*
X421Y839D02*
X466Y839D01*
X521Y839D02*
X565Y839D01*
X621Y839D02*
X665Y839D01*
X721Y839D02*
X765Y839D01*
X821Y839D02*
X865Y839D01*
X921Y839D02*
X965Y839D01*
X1021Y839D02*
X1065Y839D01*
X1121Y839D02*
X1165Y839D01*
X2321Y839D02*
X2365Y839D01*
X2421Y839D02*
X2465Y839D01*
X2521Y839D02*
X2565Y839D01*
X2621Y839D02*
X2665Y839D01*
X2721Y839D02*
X2765Y839D01*
X2821Y839D02*
X2865Y839D01*
X2921Y839D02*
X2965Y839D01*
X3021Y839D02*
X3065Y839D01*
X3121Y839D02*
X3165Y839D01*
X322Y838D02*
X364Y838D01*
X422Y838D02*
X464Y838D01*
X522Y838D02*
X564Y838D01*
X622Y838D02*
X664Y838D01*
X722Y838D02*
X764Y838D01*
X822Y838D02*
X864Y838D01*
X922Y838D02*
X964Y838D01*
X1022Y838D02*
X1064Y838D01*
X1122Y838D02*
X1164Y838D01*
X2322Y838D02*
X2364Y838D01*
X2422Y838D02*
X2464Y838D01*
X2522Y838D02*
X2564Y838D01*
X2622Y838D02*
X2664Y838D01*
X2722Y838D02*
X2764Y838D01*
X2822Y838D02*
X2864Y838D01*
X2922Y838D02*
X2964Y838D01*
X3022Y838D02*
X3064Y838D01*
X3122Y838D02*
X3164Y838D01*
X324Y837D02*
X363Y837D01*
X424Y837D02*
X463Y837D01*
X524Y837D02*
X563Y837D01*
X624Y837D02*
X663Y837D01*
X724Y837D02*
X763Y837D01*
X824Y837D02*
X863Y837D01*
X924Y837D02*
X963Y837D01*
X1024Y837D02*
X1063Y837D01*
X1124Y837D02*
X1163Y837D01*
X2324Y837D02*
X2362Y837D01*
X2424Y837D02*
X2462Y837D01*
X2524Y837D02*
X2562Y837D01*
X2624Y837D02*
X2662Y837D01*
X2724Y837D02*
X2762Y837D01*
X2824Y837D02*
X2862Y837D01*
X2924Y837D02*
X2962Y837D01*
X3024Y837D02*
X3062Y837D01*
X3124Y837D02*
X3162Y837D01*
X326Y836D02*
X361Y836D01*
X426Y836D02*
X461Y836D01*
X526Y836D02*
X561Y836D01*
X626Y836D02*
X661Y836D01*
X726Y836D02*
X761Y836D01*
X826Y836D02*
X861Y836D01*
X925Y836D02*
X961Y836D01*
X1025Y836D02*
X1061Y836D01*
X1125Y836D02*
X1161Y836D01*
X2325Y836D02*
X2361Y836D01*
X2425Y836D02*
X2461Y836D01*
X2525Y836D02*
X2561Y836D01*
X2625Y836D02*
X2661Y836D01*
X2725Y836D02*
X2761Y836D01*
X2825Y836D02*
X2861Y836D01*
X2925Y836D02*
X2961Y836D01*
X3025Y836D02*
X3061Y836D01*
X3125Y836D02*
X3161Y836D01*
X327Y835D02*
X359Y835D01*
X427Y835D02*
X459Y835D01*
X527Y835D02*
X559Y835D01*
X627Y835D02*
X659Y835D01*
X727Y835D02*
X759Y835D01*
X827Y835D02*
X859Y835D01*
X927Y835D02*
X959Y835D01*
X1027Y835D02*
X1059Y835D01*
X1127Y835D02*
X1159Y835D01*
X2327Y835D02*
X2359Y835D01*
X2427Y835D02*
X2459Y835D01*
X2527Y835D02*
X2559Y835D01*
X2627Y835D02*
X2659Y835D01*
X2727Y835D02*
X2759Y835D01*
X2827Y835D02*
X2859Y835D01*
X2927Y835D02*
X2959Y835D01*
X3027Y835D02*
X3059Y835D01*
X3127Y835D02*
X3159Y835D01*
X329Y834D02*
X357Y834D01*
X429Y834D02*
X457Y834D01*
X529Y834D02*
X557Y834D01*
X629Y834D02*
X657Y834D01*
X729Y834D02*
X757Y834D01*
X829Y834D02*
X857Y834D01*
X929Y834D02*
X957Y834D01*
X1029Y834D02*
X1057Y834D01*
X1129Y834D02*
X1157Y834D01*
X2329Y834D02*
X2357Y834D01*
X2429Y834D02*
X2457Y834D01*
X2529Y834D02*
X2557Y834D01*
X2629Y834D02*
X2657Y834D01*
X2729Y834D02*
X2757Y834D01*
X2829Y834D02*
X2857Y834D01*
X2929Y834D02*
X2957Y834D01*
X3029Y834D02*
X3057Y834D01*
X3129Y834D02*
X3157Y834D01*
X332Y833D02*
X355Y833D01*
X432Y833D02*
X455Y833D01*
X532Y833D02*
X555Y833D01*
X632Y833D02*
X655Y833D01*
X732Y833D02*
X755Y833D01*
X832Y833D02*
X855Y833D01*
X932Y833D02*
X955Y833D01*
X1032Y833D02*
X1055Y833D01*
X1132Y833D02*
X1155Y833D01*
X2332Y833D02*
X2354Y833D01*
X2432Y833D02*
X2454Y833D01*
X2532Y833D02*
X2554Y833D01*
X2631Y833D02*
X2654Y833D01*
X2731Y833D02*
X2754Y833D01*
X2831Y833D02*
X2854Y833D01*
X2931Y833D02*
X2954Y833D01*
X3031Y833D02*
X3054Y833D01*
X3131Y833D02*
X3154Y833D01*
X335Y832D02*
X352Y832D01*
X435Y832D02*
X452Y832D01*
X535Y832D02*
X552Y832D01*
X635Y832D02*
X652Y832D01*
X735Y832D02*
X752Y832D01*
X835Y832D02*
X852Y832D01*
X935Y832D02*
X952Y832D01*
X1035Y832D02*
X1052Y832D01*
X1135Y832D02*
X1152Y832D01*
X2335Y832D02*
X2351Y832D01*
X2435Y832D02*
X2451Y832D01*
X2535Y832D02*
X2551Y832D01*
X2635Y832D02*
X2651Y832D01*
X2735Y832D02*
X2751Y832D01*
X2835Y832D02*
X2851Y832D01*
X2935Y832D02*
X2951Y832D01*
X3035Y832D02*
X3051Y832D01*
X3134Y832D02*
X3151Y832D01*
X340Y831D02*
X347Y831D01*
X440Y831D02*
X447Y831D01*
X540Y831D02*
X547Y831D01*
X640Y831D02*
X647Y831D01*
X740Y831D02*
X747Y831D01*
X839Y831D02*
X847Y831D01*
X939Y831D02*
X947Y831D01*
X1039Y831D02*
X1047Y831D01*
X1139Y831D02*
X1147Y831D01*
X2339Y831D02*
X2347Y831D01*
X2439Y831D02*
X2447Y831D01*
X2539Y831D02*
X2547Y831D01*
X2639Y831D02*
X2647Y831D01*
X2739Y831D02*
X2747Y831D01*
X2839Y831D02*
X2847Y831D01*
X2939Y831D02*
X2947Y831D01*
X3039Y831D02*
X3047Y831D01*
X3139Y831D02*
X3147Y831D01*
D02*
G04 End of Mask0*
M02*