; NON-PLATED HOLES START AT T1
; THROUGH (PLATED) HOLES START AT T100
M48
INCH
T1C0.086614
T100C0.038000
T101C0.035000
T102C0.015748
%
T1
X002863Y006500
X036176Y025706
T100
X004741Y029929
X009741Y027929
X032777Y004145
X024465Y002159
X005777Y004273
X028777Y028197
X014018Y029959
X034777Y030197
X007741Y029929
X035777Y004145
X008777Y004273
X004741Y027929
X028777Y030197
X032777Y002145
X029777Y004145
X005777Y002273
X032777Y028197
X025465Y004159
X014018Y027959
X002741Y029929
X007741Y027929
X030777Y004145
X035777Y002145
X008777Y002273
X003777Y004273
X035777Y028197
X032777Y030197
X029777Y002145
X005741Y029929
X033777Y004145
X025465Y002159
X006777Y004273
X029777Y028197
X002741Y027929
X030777Y002145
X015018Y029959
X035777Y030197
X008741Y029929
X003777Y002273
X036777Y004145
X030777Y028197
X023465Y004159
X009777Y004273
X005741Y027929
X029777Y030197
X033777Y002145
X006777Y002273
X010777Y004273
X026465Y004159
X033777Y028197
X015018Y027959
X030777Y030197
X003741Y029929
X008741Y027929
X031777Y004145
X036777Y002145
X023465Y002159
X009777Y002273
X004777Y004273
X033777Y030197
X006741Y029929
X034777Y004145
X010777Y002273
X026465Y002159
X007777Y004273
X003741Y027929
X031777Y002145
X009741Y029929
X004777Y002273
X024465Y004159
X031777Y028197
X006741Y027929
X034777Y002145
X007777Y002273
X034777Y028197
X031777Y030197
T101
X010297Y018629
X028165Y026198
X034777Y012965
X013604Y006543
X012868Y007219
X003937Y013589
X002956Y024265
X013639Y019817
X017777Y010839
X002922Y014131
X017777Y009839
X008777Y017839
X036777Y016959
X031777Y015965
X008755Y008183
X026183Y012780
X015171Y008112
X031777Y025197
X003680Y012146
X014777Y013839
X005777Y021839
X023777Y015618
X001274Y026917
X024973Y026491
X033777Y007357
X017777Y016839
X026777Y018618
X005680Y010146
X027465Y011473
X019549Y005172
X003886Y019068
X029976Y012536
X023777Y022618
X037777Y016959
X036777Y013686
X031777Y010965
X032777Y025197
X001069Y016275
X034777Y013965
X025973Y026491
X031777Y009965
X028795Y020020
X017777Y011839
X011319Y019731
X036777Y011965
X005777Y015839
X031373Y019825
X008777Y018839
X031777Y016965
X037777Y013686
X031777Y026197
X026777Y020618
X014777Y014839
X016718Y005205
X002015Y025750
X005777Y022839
X023777Y016618
X036202Y006357
X000680Y009146
X011383Y018195
X037414Y006357
X011171Y008112
X026777Y019618
X037777Y011965
X002956Y020265
X027465Y012473
X019549Y006172
X028690Y021404
X006868Y006259
X002020Y018982
X001680Y010146
X007831Y007108
X031777Y011965
X032777Y026197
X014043Y021330
X034777Y014965
X012383Y018195
X001274Y022917
X006680Y011146
X017777Y012839
X008777Y020839
X005777Y016839
X008777Y019839
X009604Y006543
X020558Y020003
X026777Y021618
X014777Y015839
X016718Y006205
X023777Y017618
X036202Y007357
X012340Y025249
X020590Y021322
X037414Y007357
X033777Y025197
X013271Y026275
X010297Y022629
X031247Y006357
X028777Y018618
X032459Y006357
X029795Y020020
X021558Y020003
X031777Y012965
X014200Y004678
X020857Y006141
X034777Y015965
X032373Y019825
X014777Y010839
X021590Y021322
X002015Y021750
X034777Y025197
X017777Y013839
X008777Y021839
X026777Y015618
X008755Y012183
X014777Y009839
X005777Y017839
X029777Y018618
X002680Y011146
X002020Y014982
X015200Y004678
X029823Y006357
X029690Y021404
X026777Y022618
X014777Y016839
X023777Y018618
X034777Y010965
X003886Y023068
X018109Y005205
X008868Y007219
X033777Y026197
X015043Y021330
X020667Y017530
X034777Y009965
X037061Y023180
X005944Y008108
X001069Y020275
X027165Y026198
X031247Y007357
X032459Y007357
X008777Y015839
X031777Y013965
X011319Y023731
X034777Y016965
X029415Y026269
X014777Y011839
X028398Y006357
X020525Y018783
X036714Y015323
X003937Y017589
X034777Y026197
X012340Y021249
X017777Y014839
X021667Y017530
X008777Y022839
X026777Y016618
X013271Y022275
X005777Y018839
X014290Y022942
X034990Y006357
X002922Y018131
X023777Y020618
X028135Y010815
X029823Y007357
X023777Y019618
X020857Y002141
X021525Y018783
X034777Y011965
X037714Y015323
X006868Y010259
X030415Y026269
X028976Y012536
X018109Y006205
X004680Y009146
X007831Y011108
X037061Y024180
X015290Y022942
X005944Y009108
X007680Y012146
X029135Y010815
X008777Y016839
X031777Y014965
X026183Y011780
X014777Y012839
X028398Y007357
X005777Y020839
X033777Y006357
X017777Y015839
X026777Y017618
X012639Y019817
X005777Y019839
X034990Y007357
X023777Y021618
T102
X009873Y015139
X026238Y005380
X030214Y010557
X025909Y015862
X013602Y008627
X023728Y023564
X025319Y006896
X018662Y015861
X038553Y010579
X027698Y016642
X035817Y011411
X013705Y016214
X011902Y009572
X030629Y022367
X020539Y007604
X031658Y008848
X026583Y006522
X030844Y012918
X030727Y016018
X027705Y008286
X035688Y010542
X024456Y005242
X029207Y015599
X038400Y029478
X025218Y017009
X019582Y024721
X021706Y014515
X035798Y012945
X022106Y003809
X021989Y015277
X037870Y020749
X020343Y014879
X013886Y018471
X029790Y009295
X027780Y015599
X007406Y020918
X037742Y027351
X026442Y003144
X022105Y016496
X029262Y016971
X022850Y022633
X022800Y019666
X028234Y017443
X032595Y018050
X009797Y016463
X025148Y013150
X022316Y022087
X025442Y005242
X030832Y009403
X016836Y016665
X015407Y025582
X019420Y011776
X037813Y008996
X010816Y015883
X029065Y022285
X014698Y006298
X011970Y003797
X034819Y008238
X027777Y019618
X024540Y027372
X020782Y025121
X014789Y018562
X013705Y015551
X016746Y017388
X030732Y016973
X034177Y023857
T00
M30
