G04 MADE WITH FRITZING*
G04 WWW.FRITZING.ORG*
G04 DOUBLE SIDED*
G04 HOLES PLATED*
G04 CONTOUR ON CENTER OF CONTOUR VECTOR*
%ASAXBY*%
%FSLAX23Y23*%
%MOIN*%
%OFA0B0*%
%SFA1.0B1.0*%
%ADD10C,0.039370*%
%ADD11C,0.075000*%
%ADD12C,0.078000*%
%ADD13R,0.075000X0.075000*%
%ADD14C,0.024000*%
%LNCOPPER0*%
G90*
G70*
G54D10*
X1197Y380D03*
X1190Y957D03*
X1360Y863D03*
X1470Y630D03*
X2285Y2263D03*
X1958Y2472D03*
X1389Y1847D03*
X1082Y1588D03*
X1371Y1621D03*
X1684Y1667D03*
X1675Y1739D03*
X1371Y1555D03*
X1479Y1856D03*
X1541Y2558D03*
X741Y2092D03*
X1942Y1178D03*
X2054Y760D03*
X2522Y1701D03*
X2591Y1586D03*
X2658Y652D03*
X2624Y538D03*
X2544Y524D03*
X2532Y690D03*
X2446Y524D03*
X2211Y1650D03*
X2515Y1315D03*
X2199Y1528D03*
X2034Y1488D03*
X1866Y1586D03*
X2644Y314D03*
X980Y1646D03*
X987Y1514D03*
X2171Y1452D03*
X2211Y381D03*
X2280Y1967D03*
X2778Y1962D03*
X2907Y2229D03*
X3063Y2237D03*
X3418Y2386D03*
X2232Y2209D03*
X3166Y885D03*
X2078Y2512D03*
X3774Y2735D03*
X3840Y2948D03*
X2373Y2356D03*
X2454Y2737D03*
X3787Y2075D03*
X3073Y1602D03*
X2770Y1664D03*
X3073Y1697D03*
X2823Y1744D03*
X2778Y1560D03*
X2921Y1560D03*
X2926Y1697D03*
X3260Y1805D03*
X3084Y1292D03*
X3580Y1295D03*
X3083Y940D03*
X3582Y1141D03*
X3781Y900D03*
X3021Y1056D03*
X2979Y930D03*
X3569Y1054D03*
X3855Y1058D03*
X3482Y824D03*
X2771Y829D03*
G54D11*
X1478Y1684D03*
X1778Y1684D03*
X1478Y1584D03*
X1778Y1584D03*
X1478Y1484D03*
X1778Y1484D03*
X1478Y1384D03*
X1778Y1384D03*
X1478Y1284D03*
X1778Y1284D03*
X1478Y1184D03*
X1778Y1184D03*
X1478Y1084D03*
X1778Y1084D03*
X1478Y984D03*
X1778Y984D03*
X3178Y1697D03*
X3478Y1697D03*
X3178Y1597D03*
X3478Y1597D03*
X3178Y1497D03*
X3478Y1497D03*
X3178Y1397D03*
X3478Y1397D03*
X3178Y1297D03*
X3478Y1297D03*
X3178Y1197D03*
X3478Y1197D03*
X3178Y1097D03*
X3478Y1097D03*
X3178Y997D03*
X3478Y997D03*
X2678Y1562D03*
X2378Y1562D03*
X2678Y1662D03*
X2378Y1662D03*
X2678Y1762D03*
X2378Y1762D03*
X2678Y1862D03*
X2378Y1862D03*
X2678Y1962D03*
X2378Y1962D03*
X2678Y2062D03*
X2378Y2062D03*
X2678Y2162D03*
X2378Y2162D03*
X2678Y2262D03*
X2378Y2262D03*
X878Y1584D03*
X578Y1584D03*
X878Y1684D03*
X578Y1684D03*
X878Y1784D03*
X578Y1784D03*
X878Y1884D03*
X578Y1884D03*
X878Y1984D03*
X578Y1984D03*
X878Y2084D03*
X578Y2084D03*
X878Y2184D03*
X578Y2184D03*
X878Y2284D03*
X578Y2284D03*
G54D12*
X2347Y216D03*
X2447Y216D03*
X2547Y216D03*
X2647Y216D03*
X2347Y416D03*
X2447Y416D03*
X2547Y416D03*
X2647Y416D03*
X1502Y2796D03*
X1402Y2796D03*
X1502Y2996D03*
X1402Y2996D03*
X378Y427D03*
X478Y427D03*
X578Y427D03*
X678Y427D03*
X778Y427D03*
X878Y427D03*
X978Y427D03*
X1078Y427D03*
X2978Y215D03*
X3078Y215D03*
X3178Y215D03*
X3278Y215D03*
X3378Y215D03*
X3478Y215D03*
X3578Y215D03*
X3678Y215D03*
X3578Y3020D03*
X3478Y3020D03*
X3378Y3020D03*
X3278Y3020D03*
X3178Y3020D03*
X3078Y3020D03*
X2978Y3020D03*
X2878Y3020D03*
X974Y2793D03*
X874Y2793D03*
X774Y2793D03*
X674Y2793D03*
X574Y2793D03*
X474Y2793D03*
X374Y2793D03*
X274Y2793D03*
X378Y227D03*
X478Y227D03*
X578Y227D03*
X678Y227D03*
X778Y227D03*
X878Y227D03*
X978Y227D03*
X1078Y227D03*
X2978Y415D03*
X3078Y415D03*
X3178Y415D03*
X3278Y415D03*
X3378Y415D03*
X3478Y415D03*
X3578Y415D03*
X3678Y415D03*
X3578Y2820D03*
X3478Y2820D03*
X3378Y2820D03*
X3278Y2820D03*
X3178Y2820D03*
X3078Y2820D03*
X2978Y2820D03*
X2878Y2820D03*
X974Y2993D03*
X874Y2993D03*
X774Y2993D03*
X674Y2993D03*
X574Y2993D03*
X474Y2993D03*
X374Y2993D03*
X274Y2993D03*
G54D11*
X2086Y214D03*
X2086Y614D03*
X960Y654D03*
X1360Y654D03*
X887Y722D03*
X1287Y722D03*
X68Y915D03*
X468Y915D03*
X168Y1015D03*
X568Y1015D03*
X368Y1215D03*
X768Y1215D03*
X1117Y811D03*
X1517Y811D03*
X268Y1115D03*
X668Y1115D03*
X3125Y636D03*
X3125Y736D03*
X3620Y636D03*
X3620Y736D03*
X3378Y636D03*
X3378Y736D03*
X2982Y636D03*
X2982Y736D03*
X3499Y636D03*
X3499Y736D03*
X3741Y636D03*
X3741Y736D03*
X2840Y636D03*
X2840Y736D03*
X3246Y636D03*
X3246Y736D03*
X3278Y2620D03*
X3278Y2520D03*
X3478Y2620D03*
X3478Y2520D03*
X3706Y2418D03*
X3706Y2318D03*
X3378Y2620D03*
X3378Y2520D03*
X3178Y2620D03*
X3178Y2520D03*
X3042Y2627D03*
X2942Y2627D03*
X2817Y2620D03*
X2717Y2620D03*
X2597Y2649D03*
X2497Y2649D03*
X1327Y2628D03*
X1327Y2228D03*
X1234Y2525D03*
X1234Y2125D03*
X1132Y2373D03*
X1132Y1973D03*
X1030Y2263D03*
X1030Y1863D03*
X389Y2307D03*
X389Y1907D03*
X296Y2427D03*
X296Y2027D03*
X202Y2575D03*
X202Y2175D03*
X127Y2692D03*
X127Y2292D03*
X783Y1111D03*
X783Y711D03*
X687Y1026D03*
X687Y626D03*
X594Y911D03*
X594Y811D03*
X1811Y621D03*
X1811Y521D03*
X1420Y468D03*
X1520Y468D03*
X1672Y621D03*
X1672Y521D03*
X876Y1218D03*
X876Y818D03*
X1955Y617D03*
X1955Y517D03*
X3678Y1369D03*
X3778Y1369D03*
X2747Y1247D03*
X2747Y1147D03*
X3671Y1532D03*
X3771Y1532D03*
X2618Y1278D03*
X2618Y1178D03*
X2998Y1254D03*
X2898Y1254D03*
X3678Y1696D03*
X3778Y1696D03*
X2914Y1082D03*
X2814Y1082D03*
X3678Y1197D03*
X3778Y1197D03*
X2869Y2140D03*
X2969Y2140D03*
X2156Y2000D03*
X2056Y2000D03*
X2167Y1753D03*
X2067Y1753D03*
X2878Y1862D03*
X2978Y1862D03*
X2880Y2002D03*
X2980Y2002D03*
X3237Y1983D03*
X3137Y1983D03*
X2153Y1878D03*
X2053Y1878D03*
X2159Y2132D03*
X2059Y2132D03*
X1264Y1982D03*
X1364Y1982D03*
X1429Y2294D03*
X1529Y2294D03*
X1404Y2133D03*
X1504Y2133D03*
X1138Y1820D03*
X1238Y1820D03*
X394Y1759D03*
X394Y1359D03*
X292Y1813D03*
X292Y1413D03*
X202Y1898D03*
X202Y1498D03*
X107Y2028D03*
X107Y1628D03*
G54D13*
X1478Y1684D03*
X3178Y1697D03*
X2678Y1562D03*
X878Y1584D03*
G54D14*
X1698Y1654D02*
X1756Y1603D01*
D02*
X988Y1341D02*
X1377Y1832D01*
D02*
X723Y1627D02*
X732Y1338D01*
D02*
X732Y1338D02*
X988Y1341D01*
D02*
X604Y1674D02*
X723Y1627D01*
D02*
X1018Y1293D02*
X690Y1296D01*
D02*
X678Y1555D02*
X605Y1576D01*
D02*
X690Y1296D02*
X678Y1555D01*
D02*
X1467Y1842D02*
X1018Y1293D01*
D02*
X1753Y1697D02*
X1691Y1730D01*
D02*
X674Y652D02*
X607Y785D01*
D02*
X1108Y227D02*
X2057Y215D01*
D02*
X788Y456D02*
X877Y695D01*
D02*
X888Y456D02*
X951Y628D01*
D02*
X988Y456D02*
X1107Y784D01*
D02*
X2058Y742D02*
X2080Y642D01*
D02*
X1806Y1183D02*
X1923Y1178D01*
D02*
X1664Y899D02*
X1542Y826D01*
D02*
X1673Y1262D02*
X1664Y899D01*
D02*
X1750Y1278D02*
X1673Y1262D01*
D02*
X1351Y846D02*
X1300Y747D01*
D02*
X1542Y943D02*
X1378Y870D01*
D02*
X1553Y1435D02*
X1542Y943D01*
D02*
X1750Y1478D02*
X1553Y1435D01*
D02*
X1433Y841D02*
X1371Y681D01*
D02*
X1602Y924D02*
X1433Y841D01*
D02*
X1625Y1356D02*
X1602Y924D01*
D02*
X1750Y1379D02*
X1625Y1356D01*
D02*
X1197Y399D02*
X1190Y938D01*
D02*
X1768Y721D02*
X1544Y802D01*
D02*
X1800Y647D02*
X1768Y721D01*
D02*
X1645Y511D02*
X1547Y477D01*
D02*
X1782Y521D02*
X1700Y521D01*
D02*
X1926Y518D02*
X1840Y520D01*
D02*
X2194Y390D02*
X1980Y504D01*
D02*
X1369Y627D02*
X1411Y495D01*
D02*
X1643Y622D02*
X1489Y629D01*
D02*
X2057Y615D02*
X1984Y617D01*
D02*
X298Y2264D02*
X435Y2204D01*
D02*
X435Y2204D02*
X553Y2270D01*
D02*
X53Y2543D02*
X298Y2264D01*
D02*
X1930Y3151D02*
X70Y3154D01*
D02*
X70Y3154D02*
X53Y2543D01*
D02*
X1958Y2491D02*
X1930Y3151D01*
D02*
X2358Y2183D02*
X2298Y2249D01*
D02*
X1402Y2826D02*
X1402Y2966D01*
D02*
X1502Y2826D02*
X1502Y2966D01*
D02*
X1798Y2275D02*
X1517Y2770D01*
D02*
X1490Y1871D02*
X1798Y2275D01*
D02*
X1531Y2575D02*
X1417Y2770D01*
D02*
X974Y2823D02*
X974Y2963D01*
D02*
X874Y2823D02*
X874Y2963D01*
D02*
X774Y2823D02*
X774Y2963D01*
D02*
X674Y2823D02*
X674Y2963D01*
D02*
X474Y2823D02*
X474Y2963D01*
D02*
X374Y2823D02*
X374Y2963D01*
D02*
X274Y2823D02*
X274Y2963D01*
D02*
X574Y2823D02*
X574Y2963D01*
D02*
X851Y2275D02*
X605Y2193D01*
D02*
X249Y2776D02*
X151Y2708D01*
D02*
X355Y2769D02*
X219Y2597D01*
D02*
X461Y2766D02*
X308Y2452D01*
D02*
X563Y2765D02*
X399Y2334D01*
D02*
X905Y2093D02*
X1300Y2219D01*
D02*
X904Y1994D02*
X1207Y2114D01*
D02*
X905Y1893D02*
X1105Y1964D01*
D02*
X903Y1797D02*
X1004Y1850D01*
D02*
X691Y2768D02*
X1014Y2287D01*
D02*
X794Y2770D02*
X1113Y2395D01*
D02*
X948Y2694D02*
X1209Y2540D01*
D02*
X892Y2769D02*
X948Y2694D01*
D02*
X1001Y2780D02*
X1301Y2640D01*
D02*
X552Y2096D02*
X153Y2280D01*
D02*
X552Y1997D02*
X227Y2162D01*
D02*
X552Y1897D02*
X321Y2014D01*
D02*
X554Y1800D02*
X413Y1891D01*
D02*
X1351Y2243D02*
X1405Y2279D01*
D02*
X1540Y2539D02*
X1530Y2323D01*
D02*
X724Y2101D02*
X603Y2170D01*
D02*
X390Y1878D02*
X393Y1788D01*
D02*
X202Y2146D02*
X202Y1927D01*
D02*
X185Y1521D02*
X124Y1605D01*
D02*
X109Y2056D02*
X125Y2263D01*
D02*
X295Y1998D02*
X293Y1842D01*
D02*
X271Y1433D02*
X223Y1479D01*
D02*
X369Y1372D02*
X318Y1400D01*
D02*
X1056Y1852D02*
X1112Y1830D01*
D02*
X1263Y2126D02*
X1376Y2132D01*
D02*
X1525Y2266D02*
X1509Y2161D01*
D02*
X1160Y1975D02*
X1235Y1980D01*
D02*
X1346Y1959D02*
X1256Y1842D01*
D02*
X1485Y2112D02*
X1383Y2003D01*
D02*
X2347Y246D02*
X2347Y386D01*
D02*
X2447Y386D02*
X2447Y246D01*
D02*
X2547Y386D02*
X2547Y246D01*
D02*
X2645Y295D02*
X2646Y246D01*
D02*
X2646Y386D02*
X2645Y333D01*
D02*
X2540Y1696D02*
X2650Y1669D01*
D02*
X2641Y446D02*
X2627Y519D01*
D02*
X2609Y1581D02*
X2650Y1570D01*
D02*
X2356Y587D02*
X2640Y648D01*
D02*
X2348Y446D02*
X2356Y587D01*
D02*
X2514Y697D02*
X1804Y974D01*
D02*
X2546Y446D02*
X2545Y505D01*
D02*
X2229Y1651D02*
X2349Y1660D01*
D02*
X2446Y446D02*
X2446Y505D01*
D02*
X1931Y1690D02*
X1806Y1685D01*
D02*
X2026Y1505D02*
X1931Y1690D01*
D02*
X2350Y1556D02*
X2218Y1531D01*
D02*
X1605Y1871D02*
X1976Y1775D01*
D02*
X1976Y1775D02*
X2145Y1348D01*
D02*
X2145Y1348D02*
X2496Y1317D01*
D02*
X1494Y1708D02*
X1605Y1871D01*
D02*
X1806Y1585D02*
X1847Y1586D01*
D02*
X905Y1674D02*
X962Y1653D01*
D02*
X1450Y1577D02*
X1389Y1560D01*
D02*
X1387Y1631D02*
X1453Y1669D01*
D02*
X906Y1585D02*
X1063Y1588D01*
D02*
X378Y397D02*
X378Y258D01*
D02*
X478Y397D02*
X478Y258D01*
D02*
X578Y397D02*
X578Y258D01*
D02*
X678Y397D02*
X678Y258D01*
D02*
X778Y397D02*
X778Y258D01*
D02*
X878Y258D02*
X878Y397D01*
D02*
X978Y397D02*
X978Y258D01*
D02*
X1078Y397D02*
X1078Y258D01*
D02*
X76Y634D02*
X69Y886D01*
D02*
X353Y444D02*
X76Y634D01*
D02*
X309Y854D02*
X187Y993D01*
D02*
X467Y455D02*
X309Y854D01*
D02*
X349Y871D02*
X277Y1087D01*
D02*
X564Y454D02*
X349Y871D01*
D02*
X398Y871D02*
X370Y1186D01*
D02*
X662Y453D02*
X398Y871D01*
D02*
X847Y1217D02*
X797Y1216D01*
D02*
X755Y1112D02*
X697Y1114D01*
D02*
X658Y1023D02*
X596Y1017D01*
D02*
X945Y1132D02*
X893Y1196D01*
D02*
X1379Y1472D02*
X945Y1132D01*
D02*
X1449Y1481D02*
X1379Y1472D01*
D02*
X930Y1061D02*
X810Y1102D01*
D02*
X1368Y1382D02*
X930Y1061D01*
D02*
X1449Y1383D02*
X1368Y1382D01*
D02*
X922Y985D02*
X715Y1021D01*
D02*
X1375Y1280D02*
X922Y985D01*
D02*
X1449Y1283D02*
X1375Y1280D01*
D02*
X922Y909D02*
X623Y911D01*
D02*
X1375Y1189D02*
X922Y909D01*
D02*
X1449Y1185D02*
X1375Y1189D01*
D02*
X566Y912D02*
X497Y914D01*
D02*
X762Y692D02*
X708Y645D01*
D02*
X857Y797D02*
X802Y733D01*
D02*
X1173Y950D02*
X902Y830D01*
D02*
X1449Y981D02*
X1209Y959D01*
D02*
X2164Y1470D02*
X2076Y1726D01*
D02*
X1216Y380D02*
X2192Y381D01*
D02*
X2753Y1804D02*
X2703Y1776D01*
D02*
X2986Y1777D02*
X2753Y1804D01*
D02*
X3215Y1964D02*
X2986Y1777D01*
D02*
X2849Y1862D02*
X2706Y1862D01*
D02*
X2759Y1962D02*
X2706Y1962D01*
D02*
X2853Y1992D02*
X2795Y1969D01*
D02*
X2704Y2073D02*
X2843Y2130D01*
D02*
X2349Y1761D02*
X2195Y1754D01*
D02*
X2349Y1864D02*
X2181Y1876D01*
D02*
X2299Y1966D02*
X2349Y1963D01*
D02*
X2183Y1993D02*
X2262Y1972D01*
D02*
X2186Y2123D02*
X2351Y2071D01*
D02*
X3115Y1965D02*
X3001Y1879D01*
D02*
X2978Y1890D02*
X2979Y1973D01*
D02*
X3630Y2287D02*
X3680Y2307D01*
D02*
X3082Y2238D02*
X3630Y2287D01*
D02*
X2880Y2167D02*
X2899Y2211D01*
D02*
X3578Y2990D02*
X3578Y2850D01*
D02*
X3713Y2722D02*
X3722Y2521D01*
D02*
X3722Y2521D02*
X3711Y2446D01*
D02*
X3602Y2802D02*
X3713Y2722D01*
D02*
X3478Y2790D02*
X3478Y2648D01*
D02*
X3478Y2850D02*
X3478Y2990D01*
D02*
X3378Y2990D02*
X3378Y2850D01*
D02*
X3378Y2790D02*
X3378Y2648D01*
D02*
X3278Y2790D02*
X3278Y2648D01*
D02*
X3278Y2850D02*
X3278Y2990D01*
D02*
X3178Y2990D02*
X3178Y2850D01*
D02*
X3078Y2990D02*
X3078Y2850D01*
D02*
X3178Y2790D02*
X3178Y2648D01*
D02*
X3072Y2790D02*
X3047Y2655D01*
D02*
X2978Y2990D02*
X2978Y2850D01*
D02*
X2959Y2796D02*
X2834Y2642D01*
D02*
X2852Y2804D02*
X2622Y2664D01*
D02*
X2878Y2850D02*
X2878Y2990D01*
D02*
X3464Y2385D02*
X3437Y2385D01*
D02*
X3475Y2491D02*
X3464Y2385D01*
D02*
X3210Y2394D02*
X2561Y2379D01*
D02*
X2561Y2379D02*
X2542Y1756D01*
D02*
X2542Y1756D02*
X2649Y1761D01*
D02*
X3264Y2495D02*
X3210Y2394D01*
D02*
X3225Y2347D02*
X2666Y2338D01*
D02*
X2666Y2338D02*
X2608Y2312D01*
D02*
X3374Y2408D02*
X3225Y2347D01*
D02*
X2608Y2312D02*
X2602Y1828D01*
D02*
X2602Y1828D02*
X2652Y1850D01*
D02*
X3377Y2491D02*
X3374Y2408D01*
D02*
X2977Y2031D02*
X2971Y2112D01*
D02*
X2972Y2297D02*
X2706Y2265D01*
D02*
X2970Y2169D02*
X2972Y2297D01*
D02*
X3128Y2435D02*
X3163Y2495D01*
D02*
X2505Y2420D02*
X3128Y2435D01*
D02*
X2493Y1759D02*
X2505Y2420D01*
D02*
X2406Y1761D02*
X2493Y1759D01*
D02*
X2962Y2557D02*
X2949Y2599D01*
D02*
X2731Y2476D02*
X2950Y2481D01*
D02*
X2526Y2479D02*
X2731Y2476D01*
D02*
X2950Y2481D02*
X2962Y2557D01*
D02*
X2453Y2440D02*
X2526Y2478D01*
D02*
X2446Y1831D02*
X2453Y2440D01*
D02*
X2404Y1850D02*
X2446Y1831D01*
D02*
X2235Y2412D02*
X2232Y2228D01*
D02*
X2482Y2543D02*
X2235Y2412D01*
D02*
X2657Y2555D02*
X2482Y2543D01*
D02*
X2697Y2599D02*
X2657Y2555D01*
D02*
X2174Y2448D02*
X2160Y2161D01*
D02*
X2473Y2634D02*
X2174Y2448D01*
D02*
X2061Y2161D02*
X2077Y2493D01*
D02*
X3168Y904D02*
X3175Y968D01*
D02*
X2058Y2104D02*
X2057Y2029D01*
D02*
X2055Y1972D02*
X2053Y1907D01*
D02*
X2056Y1850D02*
X2064Y1781D01*
D02*
X3775Y2716D02*
X3787Y2094D01*
D02*
X3768Y2076D02*
X2998Y2138D01*
D02*
X3840Y2929D02*
X3855Y1077D01*
D02*
X2376Y2290D02*
X2374Y2337D01*
D02*
X2227Y2607D02*
X2438Y2728D01*
D02*
X2094Y2522D02*
X2227Y2607D01*
D02*
X3787Y2056D02*
X3778Y1725D01*
D02*
X2767Y1127D02*
X2793Y1102D01*
D02*
X2759Y1560D02*
X2706Y1561D01*
D02*
X2925Y1678D02*
X2922Y1579D01*
D02*
X3149Y1697D02*
X3092Y1697D01*
D02*
X2449Y1413D02*
X2390Y1536D01*
D02*
X2844Y1417D02*
X2449Y1413D01*
D02*
X3006Y1467D02*
X2844Y1417D01*
D02*
X3014Y1733D02*
X3006Y1467D01*
D02*
X3165Y1856D02*
X3014Y1733D01*
D02*
X3308Y1856D02*
X3165Y1856D01*
D02*
X3457Y1716D02*
X3308Y1856D01*
D02*
X2838Y1478D02*
X2825Y1725D01*
D02*
X3273Y1792D02*
X3457Y1616D01*
D02*
X2488Y1470D02*
X2838Y1478D01*
D02*
X2458Y1657D02*
X2488Y1470D01*
D02*
X2406Y1660D02*
X2458Y1657D01*
D02*
X2751Y1664D02*
X2706Y1663D01*
D02*
X3149Y1598D02*
X3092Y1601D01*
D02*
X3003Y1060D02*
X2941Y1075D01*
D02*
X2857Y759D02*
X2968Y914D01*
D02*
X3075Y923D02*
X2995Y761D01*
D02*
X3628Y816D02*
X3623Y764D01*
D02*
X3634Y1100D02*
X3628Y816D01*
D02*
X3597Y1129D02*
X3634Y1100D01*
D02*
X3682Y1168D02*
X3738Y764D01*
D02*
X3247Y1362D02*
X3203Y1384D01*
D02*
X3247Y893D02*
X3247Y1362D01*
D02*
X3142Y758D02*
X3247Y893D01*
D02*
X3297Y1408D02*
X3201Y1479D01*
D02*
X3295Y888D02*
X3297Y1408D01*
D02*
X3255Y763D02*
X3295Y888D01*
D02*
X3351Y1412D02*
X3454Y1481D01*
D02*
X3347Y886D02*
X3351Y1412D01*
D02*
X3372Y764D02*
X3347Y886D01*
D02*
X3398Y1360D02*
X3452Y1385D01*
D02*
X3397Y886D02*
X3398Y1360D01*
D02*
X3477Y754D02*
X3436Y786D01*
D02*
X3436Y786D02*
X3397Y886D01*
D02*
X2870Y997D02*
X2829Y1058D01*
D02*
X3149Y997D02*
X2870Y997D01*
D02*
X3778Y1168D02*
X3781Y919D01*
D02*
X3778Y1225D02*
X3778Y1340D01*
D02*
X2827Y1170D02*
X2879Y1232D01*
D02*
X2774Y1155D02*
X2827Y1170D01*
D02*
X2885Y1228D02*
X2826Y1107D01*
D02*
X3504Y1084D02*
X3552Y1062D01*
D02*
X3773Y1504D02*
X3777Y1397D01*
D02*
X3773Y1561D02*
X3777Y1667D01*
D02*
X3481Y843D02*
X3478Y968D01*
D02*
X2688Y720D02*
X2759Y814D01*
D02*
X1804Y1073D02*
X2688Y720D01*
D02*
X3676Y413D02*
X3678Y245D01*
D02*
X3653Y397D02*
X3676Y413D01*
D02*
X3576Y413D02*
X3577Y245D01*
D02*
X3551Y400D02*
X3576Y413D01*
D02*
X3475Y413D02*
X3477Y245D01*
D02*
X3450Y403D02*
X3475Y413D01*
D02*
X3380Y413D02*
X3378Y245D01*
D02*
X3405Y402D02*
X3380Y413D01*
D02*
X3280Y413D02*
X3278Y245D01*
D02*
X3304Y399D02*
X3280Y413D01*
D02*
X3179Y413D02*
X3178Y245D01*
D02*
X3201Y395D02*
X3179Y413D01*
D02*
X3079Y413D02*
X3078Y245D01*
D02*
X3094Y389D02*
X3079Y413D01*
D02*
X2978Y413D02*
X2978Y245D01*
D02*
X2983Y385D02*
X2978Y413D01*
D02*
X3734Y608D02*
X3686Y443D01*
D02*
X3615Y608D02*
X3583Y444D01*
D02*
X3496Y607D02*
X3481Y445D01*
D02*
X3378Y607D02*
X3378Y445D01*
D02*
X3250Y607D02*
X3273Y444D01*
D02*
X3131Y608D02*
X3171Y444D01*
D02*
X2994Y609D02*
X3066Y442D01*
D02*
X2855Y611D02*
X2962Y440D01*
D02*
X3152Y1185D02*
X2940Y1093D01*
D02*
X3067Y1284D02*
X3024Y1265D01*
D02*
X3149Y1295D02*
X3103Y1293D01*
D02*
X2646Y1171D02*
X2719Y1154D01*
D02*
X3658Y1676D02*
X3498Y1517D01*
D02*
X3648Y1516D02*
X3501Y1413D01*
D02*
X3561Y1295D02*
X3506Y1296D01*
D02*
X3655Y1351D02*
X3595Y1306D01*
D02*
X3649Y1197D02*
X3506Y1197D01*
D02*
X2778Y1302D02*
X3150Y1390D01*
D02*
X2761Y1272D02*
X2778Y1302D01*
D02*
X3083Y1428D02*
X3155Y1480D01*
D02*
X2671Y1318D02*
X3083Y1428D01*
D02*
X2641Y1295D02*
X2671Y1318D01*
G04 End of Copper0*
M02*